<ttFont>
    <TTGlyph name=".notdef" xMin="56" yMin="85" xMax="271" yMax="388">
      <contour>
        <pt x="56" y="106" on="1"/>
        <pt x="56" y="111" on="0"/>
        <pt x="60" y="119" on="1"/>
        <pt x="137" y="236" on="1"/>
        <pt x="60" y="354" on="1"/>
        <pt x="56" y="362" on="0"/>
        <pt x="56" y="366" on="1"/>
        <pt x="56" y="375" on="0"/>
        <pt x="70" y="388" on="0"/>
        <pt x="90" y="388" on="0"/>
        <pt x="98" y="378" on="1"/>
        <pt x="164" y="275" on="1"/>
        <pt x="230" y="378" on="1"/>
        <pt x="237" y="388" on="0"/>
        <pt x="248" y="388" on="1"/>
        <pt x="257" y="388" on="0"/>
        <pt x="271" y="375" on="0"/>
        <pt x="271" y="366" on="1"/>
        <pt x="271" y="359" on="0"/>
        <pt x="267" y="354" on="1"/>
        <pt x="191" y="236" on="1"/>
        <pt x="266" y="119" on="1"/>
        <pt x="270" y="114" on="0"/>
        <pt x="270" y="98" on="0"/>
        <pt x="257" y="85" on="0"/>
        <pt x="247" y="85" on="1"/>
        <pt x="236" y="85" on="0"/>
        <pt x="230" y="95" on="1"/>
        <pt x="164" y="196" on="1"/>
        <pt x="98" y="95" on="1"/>
        <pt x="91" y="85" on="0"/>
        <pt x="80" y="85" on="1"/>
        <pt x="70" y="85" on="0"/>
        <pt x="56" y="98" on="0"/>
      </contour>
    </TTGlyph>
    <TTGlyph name="A" xMin="23" yMin="0" xMax="507" yMax="737">
      <contour>
        <pt x="23" y="22" on="1"/>
        <pt x="23" y="26" on="0"/>
        <pt x="24" y="28" on="1"/>
        <pt x="238" y="719" on="1"/>
        <pt x="244" y="737" on="0"/>
        <pt x="288" y="737" on="0"/>
        <pt x="294" y="719" on="1"/>
        <pt x="506" y="28" on="1"/>
        <pt x="506" y="27" on="0"/>
        <pt x="507" y="24" on="0"/>
        <pt x="507" y="22" on="1"/>
        <pt x="507" y="13" on="0"/>
        <pt x="489" y="0" on="0"/>
        <pt x="478" y="0" on="1"/>
        <pt x="462" y="0" on="0"/>
        <pt x="458" y="15" on="1"/>
        <pt x="409" y="174" on="1"/>
        <pt x="121" y="174" on="1"/>
        <pt x="73" y="15" on="1"/>
        <pt x="68" y="0" on="0"/>
        <pt x="51" y="0" on="1"/>
        <pt x="40" y="0" on="0"/>
        <pt x="23" y="12" on="0"/>
      </contour>
      <contour>
        <pt x="134" y="220" on="1"/>
        <pt x="395" y="220" on="1"/>
        <pt x="266" y="647" on="1"/>
      </contour>
    </TTGlyph>
    <TTGlyph name="AE" xMin="76" yMin="0" xMax="670" yMax="731">
      <contour>
        <pt x="76" y="27" on="1"/>
        <pt x="76" y="521" on="1"/>
        <pt x="76" y="630" on="0"/>
        <pt x="186" y="731" on="0"/>
        <pt x="277" y="731" on="1"/>
        <pt x="650" y="731" on="1"/>
        <pt x="670" y="731" on="0"/>
        <pt x="670" y="708" on="1"/>
        <pt x="670" y="683" on="0"/>
        <pt x="650" y="683" on="1"/>
        <pt x="414" y="683" on="1"/>
        <pt x="414" y="389" on="1"/>
        <pt x="568" y="389" on="1"/>
        <pt x="577" y="389" on="0"/>
        <pt x="589" y="375" on="0"/>
        <pt x="589" y="365" on="1"/>
        <pt x="589" y="343" on="0"/>
        <pt x="568" y="343" on="1"/>
        <pt x="414" y="343" on="1"/>
        <pt x="414" y="48" on="1"/>
        <pt x="650" y="48" on="1"/>
        <pt x="670" y="48" on="0"/>
        <pt x="670" y="23" on="1"/>
        <pt x="670" y="0" on="0"/>
        <pt x="650" y="0" on="1"/>
        <pt x="388" y="0" on="1"/>
        <pt x="364" y="0" on="0"/>
        <pt x="364" y="22" on="1"/>
        <pt x="364" y="343" on="1"/>
        <pt x="125" y="343" on="1"/>
        <pt x="125" y="27" on="1"/>
        <pt x="125" y="0" on="0"/>
        <pt x="100" y="0" on="1"/>
        <pt x="76" y="0" on="0"/>
      </contour>
      <contour>
        <pt x="125" y="389" on="1"/>
        <pt x="364" y="389" on="1"/>
        <pt x="364" y="683" on="1"/>
        <pt x="277" y="683" on="1"/>
        <pt x="204" y="683" on="0"/>
        <pt x="125" y="602" on="0"/>
        <pt x="125" y="521" on="1"/>
      </contour>
    </TTGlyph>
    <TTGlyph name="AEacute" xMin="76" yMin="0" xMax="670" yMax="953">
      <contour>
        <pt x="76" y="27" on="1"/>
        <pt x="76" y="521" on="1"/>
        <pt x="76" y="630" on="0"/>
        <pt x="186" y="731" on="0"/>
        <pt x="277" y="731" on="1"/>
        <pt x="650" y="731" on="1"/>
        <pt x="670" y="731" on="0"/>
        <pt x="670" y="708" on="1"/>
        <pt x="670" y="683" on="0"/>
        <pt x="650" y="683" on="1"/>
        <pt x="414" y="683" on="1"/>
        <pt x="414" y="389" on="1"/>
        <pt x="568" y="389" on="1"/>
        <pt x="577" y="389" on="0"/>
        <pt x="589" y="375" on="0"/>
        <pt x="589" y="365" on="1"/>
        <pt x="589" y="343" on="0"/>
        <pt x="568" y="343" on="1"/>
        <pt x="414" y="343" on="1"/>
        <pt x="414" y="48" on="1"/>
        <pt x="650" y="48" on="1"/>
        <pt x="670" y="48" on="0"/>
        <pt x="670" y="23" on="1"/>
        <pt x="670" y="0" on="0"/>
        <pt x="650" y="0" on="1"/>
        <pt x="388" y="0" on="1"/>
        <pt x="364" y="0" on="0"/>
        <pt x="364" y="22" on="1"/>
        <pt x="364" y="343" on="1"/>
        <pt x="125" y="343" on="1"/>
        <pt x="125" y="27" on="1"/>
        <pt x="125" y="0" on="0"/>
        <pt x="100" y="0" on="1"/>
        <pt x="76" y="0" on="0"/>
      </contour>
      <contour>
        <pt x="125" y="389" on="1"/>
        <pt x="364" y="389" on="1"/>
        <pt x="364" y="683" on="1"/>
        <pt x="277" y="683" on="1"/>
        <pt x="204" y="683" on="0"/>
        <pt x="125" y="602" on="0"/>
        <pt x="125" y="521" on="1"/>
      </contour>
      <contour>
        <pt x="289" y="875" on="1"/>
        <pt x="289" y="886" on="0"/>
        <pt x="298" y="890" on="1"/>
        <pt x="405" y="951" on="1"/>
        <pt x="409" y="953" on="0"/>
        <pt x="413" y="953" on="1"/>
        <pt x="422" y="953" on="0"/>
        <pt x="432" y="939" on="0"/>
        <pt x="432" y="930" on="1"/>
        <pt x="432" y="917" on="0"/>
        <pt x="421" y="910" on="1"/>
        <pt x="321" y="855" on="1"/>
        <pt x="316" y="852" on="0"/>
        <pt x="311" y="852" on="1"/>
        <pt x="302" y="852" on="0"/>
        <pt x="289" y="866" on="0"/>
      </contour>
    </TTGlyph>
    <TTGlyph name="Aacute" xMin="23" yMin="0" xMax="507" yMax="954">
      <contour>
        <pt x="23" y="22" on="1"/>
        <pt x="23" y="26" on="0"/>
        <pt x="24" y="28" on="1"/>
        <pt x="238" y="719" on="1"/>
        <pt x="244" y="737" on="0"/>
        <pt x="288" y="737" on="0"/>
        <pt x="294" y="719" on="1"/>
        <pt x="506" y="28" on="1"/>
        <pt x="506" y="27" on="0"/>
        <pt x="507" y="24" on="0"/>
        <pt x="507" y="22" on="1"/>
        <pt x="507" y="13" on="0"/>
        <pt x="489" y="0" on="0"/>
        <pt x="478" y="0" on="1"/>
        <pt x="462" y="0" on="0"/>
        <pt x="458" y="15" on="1"/>
        <pt x="409" y="174" on="1"/>
        <pt x="121" y="174" on="1"/>
        <pt x="73" y="15" on="1"/>
        <pt x="68" y="0" on="0"/>
        <pt x="51" y="0" on="1"/>
        <pt x="40" y="0" on="0"/>
        <pt x="23" y="12" on="0"/>
      </contour>
      <contour>
        <pt x="134" y="220" on="1"/>
        <pt x="395" y="220" on="1"/>
        <pt x="266" y="647" on="1"/>
      </contour>
      <contour>
        <pt x="198" y="876" on="1"/>
        <pt x="198" y="887" on="0"/>
        <pt x="207" y="891" on="1"/>
        <pt x="314" y="952" on="1"/>
        <pt x="318" y="954" on="0"/>
        <pt x="322" y="954" on="1"/>
        <pt x="331" y="954" on="0"/>
        <pt x="341" y="940" on="0"/>
        <pt x="341" y="931" on="1"/>
        <pt x="341" y="918" on="0"/>
        <pt x="330" y="911" on="1"/>
        <pt x="230" y="856" on="1"/>
        <pt x="226" y="853" on="0"/>
        <pt x="220" y="853" on="1"/>
        <pt x="211" y="853" on="0"/>
        <pt x="198" y="867" on="0"/>
      </contour>
    </TTGlyph>
    <TTGlyph name="Abreve" xMin="23" yMin="0" xMax="507" yMax="969">
      <contour>
        <pt x="23" y="22" on="1"/>
        <pt x="23" y="26" on="0"/>
        <pt x="24" y="28" on="1"/>
        <pt x="238" y="719" on="1"/>
        <pt x="244" y="737" on="0"/>
        <pt x="288" y="737" on="0"/>
        <pt x="294" y="719" on="1"/>
        <pt x="506" y="28" on="1"/>
        <pt x="506" y="27" on="0"/>
        <pt x="507" y="24" on="0"/>
        <pt x="507" y="22" on="1"/>
        <pt x="507" y="13" on="0"/>
        <pt x="489" y="0" on="0"/>
        <pt x="478" y="0" on="1"/>
        <pt x="462" y="0" on="0"/>
        <pt x="458" y="15" on="1"/>
        <pt x="409" y="174" on="1"/>
        <pt x="121" y="174" on="1"/>
        <pt x="73" y="15" on="1"/>
        <pt x="68" y="0" on="0"/>
        <pt x="51" y="0" on="1"/>
        <pt x="40" y="0" on="0"/>
        <pt x="23" y="12" on="0"/>
      </contour>
      <contour>
        <pt x="134" y="220" on="1"/>
        <pt x="395" y="220" on="1"/>
        <pt x="266" y="647" on="1"/>
      </contour>
      <contour>
        <pt x="153" y="969" on="1"/>
        <pt x="191" y="969" on="1"/>
        <pt x="191" y="935" on="0"/>
        <pt x="235" y="887" on="0"/>
        <pt x="266" y="887" on="1"/>
        <pt x="296" y="887" on="0"/>
        <pt x="340" y="935" on="0"/>
        <pt x="340" y="969" on="1"/>
        <pt x="378" y="969" on="1"/>
        <pt x="378" y="924" on="0"/>
        <pt x="310" y="856" on="0"/>
        <pt x="266" y="856" on="1"/>
        <pt x="221" y="856" on="0"/>
        <pt x="153" y="923" on="0"/>
      </contour>
    </TTGlyph>
    <TTGlyph name="Acircumflex" xMin="23" yMin="0" xMax="507" yMax="954">
      <contour>
        <pt x="23" y="22" on="1"/>
        <pt x="23" y="26" on="0"/>
        <pt x="24" y="28" on="1"/>
        <pt x="238" y="719" on="1"/>
        <pt x="244" y="737" on="0"/>
        <pt x="288" y="737" on="0"/>
        <pt x="294" y="719" on="1"/>
        <pt x="506" y="28" on="1"/>
        <pt x="506" y="27" on="0"/>
        <pt x="507" y="24" on="0"/>
        <pt x="507" y="22" on="1"/>
        <pt x="507" y="13" on="0"/>
        <pt x="489" y="0" on="0"/>
        <pt x="478" y="0" on="1"/>
        <pt x="462" y="0" on="0"/>
        <pt x="458" y="15" on="1"/>
        <pt x="409" y="174" on="1"/>
        <pt x="121" y="174" on="1"/>
        <pt x="73" y="15" on="1"/>
        <pt x="68" y="0" on="0"/>
        <pt x="51" y="0" on="1"/>
        <pt x="40" y="0" on="0"/>
        <pt x="23" y="12" on="0"/>
      </contour>
      <contour>
        <pt x="133" y="876" on="1"/>
        <pt x="133" y="888" on="0"/>
        <pt x="144" y="893" on="1"/>
        <pt x="248" y="949" on="1"/>
        <pt x="256" y="954" on="0"/>
        <pt x="274" y="954" on="0"/>
        <pt x="282" y="949" on="1"/>
        <pt x="386" y="894" on="1"/>
        <pt x="397" y="888" on="0"/>
        <pt x="397" y="874" on="1"/>
        <pt x="397" y="866" on="0"/>
        <pt x="386" y="854" on="0"/>
        <pt x="378" y="854" on="1"/>
        <pt x="369" y="857" on="1"/>
        <pt x="265" y="912" on="1"/>
        <pt x="161" y="856" on="1"/>
        <pt x="160" y="856" on="0"/>
        <pt x="154" y="853" on="0"/>
        <pt x="153" y="853" on="1"/>
        <pt x="145" y="853" on="0"/>
        <pt x="133" y="866" on="0"/>
      </contour>
      <contour>
        <pt x="134" y="220" on="1"/>
        <pt x="395" y="220" on="1"/>
        <pt x="266" y="647" on="1"/>
      </contour>
    </TTGlyph>
    <TTGlyph name="Adieresis" xMin="23" yMin="0" xMax="507" yMax="919">
      <contour>
        <pt x="23" y="22" on="1"/>
        <pt x="23" y="26" on="0"/>
        <pt x="24" y="28" on="1"/>
        <pt x="238" y="719" on="1"/>
        <pt x="244" y="737" on="0"/>
        <pt x="288" y="737" on="0"/>
        <pt x="294" y="719" on="1"/>
        <pt x="506" y="28" on="1"/>
        <pt x="506" y="27" on="0"/>
        <pt x="507" y="24" on="0"/>
        <pt x="507" y="22" on="1"/>
        <pt x="507" y="13" on="0"/>
        <pt x="489" y="0" on="0"/>
        <pt x="478" y="0" on="1"/>
        <pt x="462" y="0" on="0"/>
        <pt x="458" y="15" on="1"/>
        <pt x="409" y="174" on="1"/>
        <pt x="121" y="174" on="1"/>
        <pt x="73" y="15" on="1"/>
        <pt x="68" y="0" on="0"/>
        <pt x="51" y="0" on="1"/>
        <pt x="40" y="0" on="0"/>
        <pt x="23" y="12" on="0"/>
      </contour>
      <contour>
        <pt x="134" y="220" on="1"/>
        <pt x="395" y="220" on="1"/>
        <pt x="266" y="647" on="1"/>
      </contour>
      <contour>
        <pt x="174" y="873" on="0"/>
        <pt x="174" y="901" on="0"/>
        <pt x="193" y="919" on="0"/>
        <pt x="221" y="919" on="0"/>
        <pt x="239" y="901" on="0"/>
        <pt x="239" y="873" on="0"/>
        <pt x="221" y="854" on="0"/>
        <pt x="193" y="854" on="0"/>
      </contour>
      <contour>
        <pt x="291" y="873" on="0"/>
        <pt x="291" y="901" on="0"/>
        <pt x="309" y="919" on="0"/>
        <pt x="324" y="919" on="1"/>
        <pt x="338" y="919" on="0"/>
        <pt x="356" y="901" on="0"/>
        <pt x="356" y="873" on="0"/>
        <pt x="338" y="854" on="0"/>
        <pt x="324" y="854" on="1"/>
        <pt x="309" y="854" on="0"/>
      </contour>
    </TTGlyph>
    <TTGlyph name="Agrave" xMin="23" yMin="0" xMax="507" yMax="954">
      <contour>
        <pt x="23" y="22" on="1"/>
        <pt x="23" y="26" on="0"/>
        <pt x="24" y="28" on="1"/>
        <pt x="238" y="719" on="1"/>
        <pt x="244" y="737" on="0"/>
        <pt x="288" y="737" on="0"/>
        <pt x="294" y="719" on="1"/>
        <pt x="506" y="28" on="1"/>
        <pt x="506" y="27" on="0"/>
        <pt x="507" y="24" on="0"/>
        <pt x="507" y="22" on="1"/>
        <pt x="507" y="13" on="0"/>
        <pt x="489" y="0" on="0"/>
        <pt x="478" y="0" on="1"/>
        <pt x="462" y="0" on="0"/>
        <pt x="458" y="15" on="1"/>
        <pt x="409" y="174" on="1"/>
        <pt x="121" y="174" on="1"/>
        <pt x="73" y="15" on="1"/>
        <pt x="68" y="0" on="0"/>
        <pt x="51" y="0" on="1"/>
        <pt x="40" y="0" on="0"/>
        <pt x="23" y="12" on="0"/>
      </contour>
      <contour>
        <pt x="134" y="220" on="1"/>
        <pt x="395" y="220" on="1"/>
        <pt x="266" y="647" on="1"/>
      </contour>
      <contour>
        <pt x="192" y="931" on="1"/>
        <pt x="192" y="940" on="0"/>
        <pt x="203" y="954" on="0"/>
        <pt x="212" y="954" on="1"/>
        <pt x="215" y="954" on="0"/>
        <pt x="219" y="952" on="1"/>
        <pt x="326" y="891" on="1"/>
        <pt x="335" y="887" on="0"/>
        <pt x="335" y="876" on="1"/>
        <pt x="335" y="867" on="0"/>
        <pt x="322" y="853" on="0"/>
        <pt x="313" y="853" on="1"/>
        <pt x="309" y="853" on="0"/>
        <pt x="303" y="856" on="1"/>
        <pt x="203" y="911" on="1"/>
        <pt x="192" y="918" on="0"/>
      </contour>
    </TTGlyph>
    <TTGlyph name="Amacron" xMin="23" yMin="0" xMax="507" yMax="941">
      <contour>
        <pt x="23" y="22" on="1"/>
        <pt x="23" y="26" on="0"/>
        <pt x="24" y="28" on="1"/>
        <pt x="238" y="719" on="1"/>
        <pt x="244" y="737" on="0"/>
        <pt x="288" y="737" on="0"/>
        <pt x="294" y="719" on="1"/>
        <pt x="506" y="28" on="1"/>
        <pt x="506" y="27" on="0"/>
        <pt x="507" y="24" on="0"/>
        <pt x="507" y="22" on="1"/>
        <pt x="507" y="13" on="0"/>
        <pt x="489" y="0" on="0"/>
        <pt x="478" y="0" on="1"/>
        <pt x="462" y="0" on="0"/>
        <pt x="458" y="15" on="1"/>
        <pt x="409" y="174" on="1"/>
        <pt x="121" y="174" on="1"/>
        <pt x="73" y="15" on="1"/>
        <pt x="68" y="0" on="0"/>
        <pt x="51" y="0" on="1"/>
        <pt x="40" y="0" on="0"/>
        <pt x="23" y="12" on="0"/>
      </contour>
      <contour>
        <pt x="134" y="220" on="1"/>
        <pt x="395" y="220" on="1"/>
        <pt x="266" y="647" on="1"/>
      </contour>
      <contour>
        <pt x="136" y="919" on="1"/>
        <pt x="136" y="941" on="0"/>
        <pt x="157" y="941" on="1"/>
        <pt x="374" y="941" on="1"/>
        <pt x="382" y="941" on="0"/>
        <pt x="396" y="928" on="0"/>
        <pt x="396" y="910" on="0"/>
        <pt x="383" y="899" on="0"/>
        <pt x="374" y="899" on="1"/>
        <pt x="157" y="899" on="1"/>
        <pt x="136" y="899" on="0"/>
      </contour>
    </TTGlyph>
    <TTGlyph name="Aogonek" xMin="23" yMin="-198" xMax="507" yMax="737">
      <contour>
        <pt x="23" y="22" on="1"/>
        <pt x="23" y="26" on="0"/>
        <pt x="24" y="28" on="1"/>
        <pt x="238" y="719" on="1"/>
        <pt x="244" y="737" on="0"/>
        <pt x="288" y="737" on="0"/>
        <pt x="294" y="719" on="1"/>
        <pt x="506" y="28" on="1"/>
        <pt x="506" y="27" on="0"/>
        <pt x="507" y="24" on="0"/>
        <pt x="507" y="22" on="1"/>
        <pt x="507" y="10" on="0"/>
        <pt x="491" y="3" on="1"/>
        <pt x="418" y="-65" on="0"/>
        <pt x="418" y="-124" on="1"/>
        <pt x="418" y="-167" on="0"/>
        <pt x="481" y="-167" on="1"/>
        <pt x="499" y="-167" on="0"/>
        <pt x="499" y="-183" on="1"/>
        <pt x="499" y="-198" on="0"/>
        <pt x="475" y="-198" on="1"/>
        <pt x="438" y="-198" on="0"/>
        <pt x="384" y="-164" on="0"/>
        <pt x="384" y="-127" on="1"/>
        <pt x="384" y="-51" on="0"/>
        <pt x="458" y="15" on="1"/>
        <pt x="409" y="174" on="1"/>
        <pt x="121" y="174" on="1"/>
        <pt x="73" y="15" on="1"/>
        <pt x="68" y="0" on="0"/>
        <pt x="51" y="0" on="1"/>
        <pt x="40" y="0" on="0"/>
        <pt x="23" y="12" on="0"/>
      </contour>
      <contour>
        <pt x="134" y="220" on="1"/>
        <pt x="395" y="220" on="1"/>
        <pt x="266" y="647" on="1"/>
      </contour>
    </TTGlyph>
    <TTGlyph name="Aring" xMin="23" yMin="0" xMax="507" yMax="1025">
      <contour>
        <pt x="23" y="22" on="1"/>
        <pt x="23" y="26" on="0"/>
        <pt x="24" y="28" on="1"/>
        <pt x="238" y="719" on="1"/>
        <pt x="244" y="737" on="0"/>
        <pt x="288" y="737" on="0"/>
        <pt x="294" y="719" on="1"/>
        <pt x="506" y="28" on="1"/>
        <pt x="506" y="27" on="0"/>
        <pt x="507" y="24" on="0"/>
        <pt x="507" y="22" on="1"/>
        <pt x="507" y="13" on="0"/>
        <pt x="489" y="0" on="0"/>
        <pt x="478" y="0" on="1"/>
        <pt x="462" y="0" on="0"/>
        <pt x="458" y="15" on="1"/>
        <pt x="409" y="174" on="1"/>
        <pt x="121" y="174" on="1"/>
        <pt x="73" y="15" on="1"/>
        <pt x="68" y="0" on="0"/>
        <pt x="51" y="0" on="1"/>
        <pt x="40" y="0" on="0"/>
        <pt x="23" y="12" on="0"/>
      </contour>
      <contour>
        <pt x="134" y="220" on="1"/>
        <pt x="395" y="220" on="1"/>
        <pt x="266" y="647" on="1"/>
      </contour>
      <contour>
        <pt x="174" y="933" on="1"/>
        <pt x="174" y="970" on="0"/>
        <pt x="227" y="1025" on="0"/>
        <pt x="265" y="1025" on="1"/>
        <pt x="301" y="1025" on="0"/>
        <pt x="356" y="970" on="0"/>
        <pt x="356" y="896" on="0"/>
        <pt x="301" y="839" on="0"/>
        <pt x="265" y="839" on="1"/>
        <pt x="228" y="839" on="0"/>
        <pt x="174" y="895" on="0"/>
      </contour>
      <contour>
        <pt x="202" y="933" on="1"/>
        <pt x="202" y="908" on="0"/>
        <pt x="240" y="866" on="0"/>
        <pt x="290" y="866" on="0"/>
        <pt x="327" y="907" on="0"/>
        <pt x="327" y="933" on="1"/>
        <pt x="327" y="956" on="0"/>
        <pt x="290" y="995" on="0"/>
        <pt x="240" y="995" on="0"/>
        <pt x="202" y="956" on="0"/>
      </contour>
    </TTGlyph>
    <TTGlyph name="Atilde" xMin="23" yMin="0" xMax="507" yMax="949">
      <contour>
        <pt x="23" y="22" on="1"/>
        <pt x="23" y="26" on="0"/>
        <pt x="24" y="28" on="1"/>
        <pt x="238" y="719" on="1"/>
        <pt x="244" y="737" on="0"/>
        <pt x="288" y="737" on="0"/>
        <pt x="294" y="719" on="1"/>
        <pt x="506" y="28" on="1"/>
        <pt x="506" y="27" on="0"/>
        <pt x="507" y="24" on="0"/>
        <pt x="507" y="22" on="1"/>
        <pt x="507" y="13" on="0"/>
        <pt x="489" y="0" on="0"/>
        <pt x="478" y="0" on="1"/>
        <pt x="462" y="0" on="0"/>
        <pt x="458" y="15" on="1"/>
        <pt x="409" y="174" on="1"/>
        <pt x="121" y="174" on="1"/>
        <pt x="73" y="15" on="1"/>
        <pt x="68" y="0" on="0"/>
        <pt x="51" y="0" on="1"/>
        <pt x="40" y="0" on="0"/>
        <pt x="23" y="12" on="0"/>
      </contour>
      <contour>
        <pt x="115" y="895" on="1"/>
        <pt x="115" y="917" on="0"/>
        <pt x="176" y="949" on="0"/>
        <pt x="204" y="949" on="1"/>
        <pt x="229" y="949" on="0"/>
        <pt x="307" y="913" on="0"/>
        <pt x="359" y="913" on="0"/>
        <pt x="395" y="944" on="0"/>
        <pt x="400" y="944" on="1"/>
        <pt x="407" y="944" on="0"/>
        <pt x="417" y="932" on="0"/>
        <pt x="417" y="925" on="1"/>
        <pt x="417" y="901" on="0"/>
        <pt x="360" y="871" on="0"/>
        <pt x="333" y="871" on="1"/>
        <pt x="308" y="871" on="0"/>
        <pt x="230" y="907" on="0"/>
        <pt x="202" y="907" on="1"/>
        <pt x="177" y="907" on="0"/>
        <pt x="135" y="874" on="0"/>
        <pt x="131" y="874" on="1"/>
        <pt x="115" y="874" on="0"/>
      </contour>
      <contour>
        <pt x="134" y="220" on="1"/>
        <pt x="395" y="220" on="1"/>
        <pt x="266" y="647" on="1"/>
      </contour>
    </TTGlyph>
    <TTGlyph name="B" xMin="79" yMin="0" xMax="482" yMax="731">
      <contour>
        <pt x="79" y="21" on="1"/>
        <pt x="79" y="709" on="1"/>
        <pt x="79" y="731" on="0"/>
        <pt x="103" y="731" on="1"/>
        <pt x="259" y="731" on="1"/>
        <pt x="357" y="731" on="0"/>
        <pt x="464" y="660" on="0"/>
        <pt x="464" y="563" on="1"/>
        <pt x="464" y="500" on="0"/>
        <pt x="418" y="413" on="0"/>
        <pt x="379" y="396" on="1"/>
        <pt x="429" y="375" on="0"/>
        <pt x="482" y="295" on="0"/>
        <pt x="482" y="222" on="1"/>
        <pt x="482" y="204" on="1"/>
        <pt x="482" y="97" on="0"/>
        <pt x="375" y="0" on="0"/>
        <pt x="285" y="0" on="1"/>
        <pt x="103" y="0" on="1"/>
        <pt x="92" y="0" on="0"/>
        <pt x="79" y="12" on="0"/>
      </contour>
      <contour>
        <pt x="129" y="48" on="1"/>
        <pt x="281" y="48" on="1"/>
        <pt x="432" y="48" on="0"/>
        <pt x="432" y="206" on="1"/>
        <pt x="432" y="223" on="1"/>
        <pt x="432" y="302" on="0"/>
        <pt x="355" y="373" on="0"/>
        <pt x="281" y="373" on="1"/>
        <pt x="129" y="373" on="1"/>
      </contour>
      <contour>
        <pt x="129" y="419" on="1"/>
        <pt x="264" y="419" on="1"/>
        <pt x="343" y="419" on="0"/>
        <pt x="414" y="482" on="0"/>
        <pt x="414" y="559" on="1"/>
        <pt x="414" y="631" on="0"/>
        <pt x="336" y="683" on="0"/>
        <pt x="260" y="683" on="1"/>
        <pt x="129" y="683" on="1"/>
      </contour>
    </TTGlyph>
    <TTGlyph name="C" xMin="72" yMin="-6" xMax="475" yMax="731">
      <contour>
        <pt x="72" y="204" on="1"/>
        <pt x="72" y="521" on="1"/>
        <pt x="72" y="629" on="0"/>
        <pt x="185" y="731" on="0"/>
        <pt x="276" y="731" on="1"/>
        <pt x="368" y="731" on="0"/>
        <pt x="475" y="636" on="0"/>
        <pt x="475" y="569" on="1"/>
        <pt x="475" y="550" on="0"/>
        <pt x="463" y="536" on="0"/>
        <pt x="450" y="536" on="1"/>
        <pt x="425" y="536" on="0"/>
        <pt x="425" y="557" on="1"/>
        <pt x="424" y="578" on="0"/>
        <pt x="411" y="615" on="0"/>
        <pt x="382" y="658" on="0"/>
        <pt x="320" y="683" on="0"/>
        <pt x="276" y="683" on="1"/>
        <pt x="122" y="683" on="0"/>
        <pt x="122" y="521" on="1"/>
        <pt x="122" y="204" on="1"/>
        <pt x="122" y="42" on="0"/>
        <pt x="279" y="42" on="1"/>
        <pt x="315" y="42" on="0"/>
        <pt x="368" y="60" on="0"/>
        <pt x="397" y="83" on="0"/>
        <pt x="416" y="124" on="0"/>
        <pt x="422" y="148" on="0"/>
        <pt x="425" y="169" on="1"/>
        <pt x="427" y="190" on="0"/>
        <pt x="449" y="190" on="1"/>
        <pt x="463" y="190" on="0"/>
        <pt x="475" y="176" on="0"/>
        <pt x="475" y="156" on="1"/>
        <pt x="475" y="90" on="0"/>
        <pt x="366" y="-6" on="0"/>
        <pt x="273" y="-6" on="1"/>
        <pt x="183" y="-6" on="0"/>
        <pt x="72" y="96" on="0"/>
      </contour>
    </TTGlyph>
    <TTGlyph name="Cacute" xMin="72" yMin="-6" xMax="475" yMax="954">
      <contour>
        <pt x="72" y="204" on="1"/>
        <pt x="72" y="521" on="1"/>
        <pt x="72" y="629" on="0"/>
        <pt x="185" y="731" on="0"/>
        <pt x="276" y="731" on="1"/>
        <pt x="368" y="731" on="0"/>
        <pt x="475" y="636" on="0"/>
        <pt x="475" y="569" on="1"/>
        <pt x="475" y="550" on="0"/>
        <pt x="463" y="536" on="0"/>
        <pt x="450" y="536" on="1"/>
        <pt x="425" y="536" on="0"/>
        <pt x="425" y="557" on="1"/>
        <pt x="424" y="578" on="0"/>
        <pt x="411" y="615" on="0"/>
        <pt x="382" y="658" on="0"/>
        <pt x="320" y="683" on="0"/>
        <pt x="276" y="683" on="1"/>
        <pt x="122" y="683" on="0"/>
        <pt x="122" y="521" on="1"/>
        <pt x="122" y="204" on="1"/>
        <pt x="122" y="42" on="0"/>
        <pt x="279" y="42" on="1"/>
        <pt x="315" y="42" on="0"/>
        <pt x="368" y="60" on="0"/>
        <pt x="397" y="83" on="0"/>
        <pt x="416" y="124" on="0"/>
        <pt x="422" y="148" on="0"/>
        <pt x="425" y="169" on="1"/>
        <pt x="427" y="190" on="0"/>
        <pt x="449" y="190" on="1"/>
        <pt x="463" y="190" on="0"/>
        <pt x="475" y="176" on="0"/>
        <pt x="475" y="156" on="1"/>
        <pt x="475" y="90" on="0"/>
        <pt x="366" y="-6" on="0"/>
        <pt x="273" y="-6" on="1"/>
        <pt x="183" y="-6" on="0"/>
        <pt x="72" y="96" on="0"/>
      </contour>
      <contour>
        <pt x="204" y="876" on="1"/>
        <pt x="204" y="887" on="0"/>
        <pt x="213" y="891" on="1"/>
        <pt x="320" y="952" on="1"/>
        <pt x="324" y="954" on="0"/>
        <pt x="328" y="954" on="1"/>
        <pt x="337" y="954" on="0"/>
        <pt x="347" y="940" on="0"/>
        <pt x="347" y="931" on="1"/>
        <pt x="347" y="918" on="0"/>
        <pt x="336" y="911" on="1"/>
        <pt x="236" y="856" on="1"/>
        <pt x="232" y="853" on="0"/>
        <pt x="226" y="853" on="1"/>
        <pt x="217" y="853" on="0"/>
        <pt x="204" y="867" on="0"/>
      </contour>
    </TTGlyph>
    <TTGlyph name="Ccaron" xMin="72" yMin="-6" xMax="475" yMax="988">
      <contour>
        <pt x="72" y="204" on="1"/>
        <pt x="72" y="521" on="1"/>
        <pt x="72" y="629" on="0"/>
        <pt x="185" y="731" on="0"/>
        <pt x="276" y="731" on="1"/>
        <pt x="368" y="731" on="0"/>
        <pt x="475" y="636" on="0"/>
        <pt x="475" y="569" on="1"/>
        <pt x="475" y="550" on="0"/>
        <pt x="463" y="536" on="0"/>
        <pt x="450" y="536" on="1"/>
        <pt x="425" y="536" on="0"/>
        <pt x="425" y="557" on="1"/>
        <pt x="424" y="578" on="0"/>
        <pt x="411" y="615" on="0"/>
        <pt x="382" y="658" on="0"/>
        <pt x="320" y="683" on="0"/>
        <pt x="276" y="683" on="1"/>
        <pt x="122" y="683" on="0"/>
        <pt x="122" y="521" on="1"/>
        <pt x="122" y="204" on="1"/>
        <pt x="122" y="42" on="0"/>
        <pt x="279" y="42" on="1"/>
        <pt x="315" y="42" on="0"/>
        <pt x="368" y="60" on="0"/>
        <pt x="397" y="83" on="0"/>
        <pt x="416" y="124" on="0"/>
        <pt x="422" y="148" on="0"/>
        <pt x="425" y="169" on="1"/>
        <pt x="427" y="190" on="0"/>
        <pt x="449" y="190" on="1"/>
        <pt x="463" y="190" on="0"/>
        <pt x="475" y="176" on="0"/>
        <pt x="475" y="156" on="1"/>
        <pt x="475" y="90" on="0"/>
        <pt x="366" y="-6" on="0"/>
        <pt x="273" y="-6" on="1"/>
        <pt x="183" y="-6" on="0"/>
        <pt x="72" y="96" on="0"/>
      </contour>
      <contour>
        <pt x="141" y="969" on="1"/>
        <pt x="141" y="976" on="0"/>
        <pt x="151" y="988" on="0"/>
        <pt x="158" y="988" on="1"/>
        <pt x="166" y="988" on="0"/>
        <pt x="173" y="981" on="1"/>
        <pt x="272" y="883" on="1"/>
        <pt x="370" y="981" on="1"/>
        <pt x="377" y="988" on="0"/>
        <pt x="386" y="988" on="1"/>
        <pt x="393" y="988" on="0"/>
        <pt x="403" y="976" on="0"/>
        <pt x="403" y="962" on="0"/>
        <pt x="393" y="950" on="1"/>
        <pt x="292" y="854" on="1"/>
        <pt x="280" y="844" on="0"/>
        <pt x="272" y="844" on="1"/>
        <pt x="261" y="844" on="0"/>
        <pt x="251" y="854" on="1"/>
        <pt x="151" y="950" on="1"/>
        <pt x="141" y="960" on="0"/>
      </contour>
    </TTGlyph>
    <TTGlyph name="Ccedilla" xMin="72" yMin="-208" xMax="475" yMax="731">
      <contour>
        <pt x="72" y="204" on="1"/>
        <pt x="72" y="521" on="1"/>
        <pt x="72" y="629" on="0"/>
        <pt x="185" y="731" on="0"/>
        <pt x="276" y="731" on="1"/>
        <pt x="368" y="731" on="0"/>
        <pt x="475" y="636" on="0"/>
        <pt x="475" y="569" on="1"/>
        <pt x="475" y="550" on="0"/>
        <pt x="463" y="536" on="0"/>
        <pt x="450" y="536" on="1"/>
        <pt x="425" y="536" on="0"/>
        <pt x="425" y="557" on="1"/>
        <pt x="424" y="578" on="0"/>
        <pt x="411" y="615" on="0"/>
        <pt x="382" y="658" on="0"/>
        <pt x="320" y="683" on="0"/>
        <pt x="276" y="683" on="1"/>
        <pt x="122" y="683" on="0"/>
        <pt x="122" y="521" on="1"/>
        <pt x="122" y="204" on="1"/>
        <pt x="122" y="42" on="0"/>
        <pt x="279" y="42" on="1"/>
        <pt x="315" y="42" on="0"/>
        <pt x="368" y="60" on="0"/>
        <pt x="397" y="83" on="0"/>
        <pt x="416" y="124" on="0"/>
        <pt x="422" y="148" on="0"/>
        <pt x="425" y="169" on="1"/>
        <pt x="427" y="190" on="0"/>
        <pt x="449" y="190" on="1"/>
        <pt x="463" y="190" on="0"/>
        <pt x="475" y="176" on="0"/>
        <pt x="475" y="156" on="1"/>
        <pt x="475" y="97" on="0"/>
        <pt x="386" y="6" on="0"/>
        <pt x="309" y="-3" on="1"/>
        <pt x="294" y="-63" on="1"/>
        <pt x="342" y="-64" on="0"/>
        <pt x="389" y="-105" on="0"/>
        <pt x="389" y="-134" on="1"/>
        <pt x="389" y="-164" on="0"/>
        <pt x="344" y="-208" on="0"/>
        <pt x="304" y="-208" on="1"/>
        <pt x="280" y="-208" on="0"/>
        <pt x="228" y="-195" on="0"/>
        <pt x="228" y="-184" on="1"/>
        <pt x="228" y="-178" on="0"/>
        <pt x="236" y="-163" on="0"/>
        <pt x="242" y="-163" on="1"/>
        <pt x="260" y="-170" on="1"/>
        <pt x="278" y="-176" on="0"/>
        <pt x="298" y="-176" on="1"/>
        <pt x="352" y="-176" on="0"/>
        <pt x="352" y="-136" on="1"/>
        <pt x="352" y="-97" on="0"/>
        <pt x="285" y="-92" on="1"/>
        <pt x="252" y="-90" on="1"/>
        <pt x="273" y="-6" on="1"/>
        <pt x="183" y="-6" on="0"/>
        <pt x="72" y="96" on="0"/>
      </contour>
    </TTGlyph>
    <TTGlyph name="Ccircumflex" xMin="72" yMin="-6" xMax="475" yMax="954">
      <contour>
        <pt x="72" y="204" on="1"/>
        <pt x="72" y="521" on="1"/>
        <pt x="72" y="629" on="0"/>
        <pt x="185" y="731" on="0"/>
        <pt x="276" y="731" on="1"/>
        <pt x="368" y="731" on="0"/>
        <pt x="475" y="636" on="0"/>
        <pt x="475" y="569" on="1"/>
        <pt x="475" y="550" on="0"/>
        <pt x="463" y="536" on="0"/>
        <pt x="450" y="536" on="1"/>
        <pt x="425" y="536" on="0"/>
        <pt x="425" y="557" on="1"/>
        <pt x="424" y="578" on="0"/>
        <pt x="411" y="615" on="0"/>
        <pt x="382" y="658" on="0"/>
        <pt x="320" y="683" on="0"/>
        <pt x="276" y="683" on="1"/>
        <pt x="122" y="683" on="0"/>
        <pt x="122" y="521" on="1"/>
        <pt x="122" y="204" on="1"/>
        <pt x="122" y="42" on="0"/>
        <pt x="279" y="42" on="1"/>
        <pt x="315" y="42" on="0"/>
        <pt x="368" y="60" on="0"/>
        <pt x="397" y="83" on="0"/>
        <pt x="416" y="124" on="0"/>
        <pt x="422" y="148" on="0"/>
        <pt x="425" y="169" on="1"/>
        <pt x="427" y="190" on="0"/>
        <pt x="449" y="190" on="1"/>
        <pt x="463" y="190" on="0"/>
        <pt x="475" y="176" on="0"/>
        <pt x="475" y="156" on="1"/>
        <pt x="475" y="90" on="0"/>
        <pt x="366" y="-6" on="0"/>
        <pt x="273" y="-6" on="1"/>
        <pt x="183" y="-6" on="0"/>
        <pt x="72" y="96" on="0"/>
      </contour>
      <contour>
        <pt x="141" y="876" on="1"/>
        <pt x="141" y="888" on="0"/>
        <pt x="152" y="893" on="1"/>
        <pt x="256" y="949" on="1"/>
        <pt x="264" y="954" on="0"/>
        <pt x="282" y="954" on="0"/>
        <pt x="290" y="949" on="1"/>
        <pt x="394" y="894" on="1"/>
        <pt x="405" y="888" on="0"/>
        <pt x="405" y="874" on="1"/>
        <pt x="405" y="866" on="0"/>
        <pt x="394" y="854" on="0"/>
        <pt x="386" y="854" on="1"/>
        <pt x="377" y="857" on="1"/>
        <pt x="273" y="912" on="1"/>
        <pt x="169" y="856" on="1"/>
        <pt x="168" y="856" on="0"/>
        <pt x="162" y="853" on="0"/>
        <pt x="161" y="853" on="1"/>
        <pt x="153" y="853" on="0"/>
        <pt x="141" y="866" on="0"/>
      </contour>
    </TTGlyph>
    <TTGlyph name="Cdotaccent" xMin="72" yMin="-6" xMax="475" yMax="919">
      <contour>
        <pt x="72" y="204" on="1"/>
        <pt x="72" y="521" on="1"/>
        <pt x="72" y="629" on="0"/>
        <pt x="185" y="731" on="0"/>
        <pt x="276" y="731" on="1"/>
        <pt x="368" y="731" on="0"/>
        <pt x="475" y="636" on="0"/>
        <pt x="475" y="569" on="1"/>
        <pt x="475" y="550" on="0"/>
        <pt x="463" y="536" on="0"/>
        <pt x="450" y="536" on="1"/>
        <pt x="425" y="536" on="0"/>
        <pt x="425" y="557" on="1"/>
        <pt x="424" y="578" on="0"/>
        <pt x="411" y="615" on="0"/>
        <pt x="382" y="658" on="0"/>
        <pt x="320" y="683" on="0"/>
        <pt x="276" y="683" on="1"/>
        <pt x="122" y="683" on="0"/>
        <pt x="122" y="521" on="1"/>
        <pt x="122" y="204" on="1"/>
        <pt x="122" y="42" on="0"/>
        <pt x="279" y="42" on="1"/>
        <pt x="315" y="42" on="0"/>
        <pt x="368" y="60" on="0"/>
        <pt x="397" y="83" on="0"/>
        <pt x="416" y="124" on="0"/>
        <pt x="422" y="148" on="0"/>
        <pt x="425" y="169" on="1"/>
        <pt x="427" y="190" on="0"/>
        <pt x="449" y="190" on="1"/>
        <pt x="463" y="190" on="0"/>
        <pt x="475" y="176" on="0"/>
        <pt x="475" y="156" on="1"/>
        <pt x="475" y="90" on="0"/>
        <pt x="366" y="-6" on="0"/>
        <pt x="273" y="-6" on="1"/>
        <pt x="183" y="-6" on="0"/>
        <pt x="72" y="96" on="0"/>
      </contour>
      <contour>
        <pt x="240" y="873" on="0"/>
        <pt x="240" y="901" on="0"/>
        <pt x="259" y="919" on="0"/>
        <pt x="287" y="919" on="0"/>
        <pt x="306" y="901" on="0"/>
        <pt x="306" y="873" on="0"/>
        <pt x="287" y="854" on="0"/>
        <pt x="259" y="854" on="0"/>
      </contour>
    </TTGlyph>
    <TTGlyph name="D" xMin="79" yMin="0" xMax="482" yMax="731">
      <contour>
        <pt x="79" y="21" on="1"/>
        <pt x="79" y="710" on="1"/>
        <pt x="79" y="718" on="0"/>
        <pt x="93" y="731" on="0"/>
        <pt x="103" y="731" on="1"/>
        <pt x="280" y="731" on="1"/>
        <pt x="371" y="731" on="0"/>
        <pt x="482" y="630" on="0"/>
        <pt x="482" y="521" on="1"/>
        <pt x="482" y="210" on="1"/>
        <pt x="482" y="101" on="0"/>
        <pt x="371" y="0" on="0"/>
        <pt x="280" y="0" on="1"/>
        <pt x="103" y="0" on="1"/>
        <pt x="93" y="0" on="0"/>
        <pt x="79" y="13" on="0"/>
      </contour>
      <contour>
        <pt x="129" y="48" on="1"/>
        <pt x="280" y="48" on="1"/>
        <pt x="353" y="48" on="0"/>
        <pt x="432" y="129" on="0"/>
        <pt x="432" y="210" on="1"/>
        <pt x="432" y="521" on="1"/>
        <pt x="432" y="602" on="0"/>
        <pt x="353" y="683" on="0"/>
        <pt x="280" y="683" on="1"/>
        <pt x="129" y="683" on="1"/>
      </contour>
    </TTGlyph>
    <TTGlyph name="Dcaron" xMin="79" yMin="0" xMax="482" yMax="988">
      <contour>
        <pt x="79" y="21" on="1"/>
        <pt x="79" y="710" on="1"/>
        <pt x="79" y="718" on="0"/>
        <pt x="93" y="731" on="0"/>
        <pt x="103" y="731" on="1"/>
        <pt x="280" y="731" on="1"/>
        <pt x="371" y="731" on="0"/>
        <pt x="482" y="630" on="0"/>
        <pt x="482" y="521" on="1"/>
        <pt x="482" y="210" on="1"/>
        <pt x="482" y="101" on="0"/>
        <pt x="371" y="0" on="0"/>
        <pt x="280" y="0" on="1"/>
        <pt x="103" y="0" on="1"/>
        <pt x="93" y="0" on="0"/>
        <pt x="79" y="13" on="0"/>
      </contour>
      <contour>
        <pt x="129" y="48" on="1"/>
        <pt x="280" y="48" on="1"/>
        <pt x="353" y="48" on="0"/>
        <pt x="432" y="129" on="0"/>
        <pt x="432" y="210" on="1"/>
        <pt x="432" y="521" on="1"/>
        <pt x="432" y="602" on="0"/>
        <pt x="353" y="683" on="0"/>
        <pt x="280" y="683" on="1"/>
        <pt x="129" y="683" on="1"/>
      </contour>
      <contour>
        <pt x="146" y="969" on="1"/>
        <pt x="146" y="976" on="0"/>
        <pt x="156" y="988" on="0"/>
        <pt x="163" y="988" on="1"/>
        <pt x="171" y="988" on="0"/>
        <pt x="178" y="981" on="1"/>
        <pt x="277" y="883" on="1"/>
        <pt x="375" y="981" on="1"/>
        <pt x="382" y="988" on="0"/>
        <pt x="391" y="988" on="1"/>
        <pt x="398" y="988" on="0"/>
        <pt x="408" y="976" on="0"/>
        <pt x="408" y="962" on="0"/>
        <pt x="398" y="950" on="1"/>
        <pt x="297" y="854" on="1"/>
        <pt x="285" y="844" on="0"/>
        <pt x="277" y="844" on="1"/>
        <pt x="266" y="844" on="0"/>
        <pt x="256" y="854" on="1"/>
        <pt x="156" y="950" on="1"/>
        <pt x="146" y="960" on="0"/>
      </contour>
    </TTGlyph>
    <TTGlyph name="Dcroat" xMin="1" yMin="0" xMax="492" yMax="731">
      <contour>
        <pt x="1" y="375" on="0"/>
        <pt x="1" y="393" on="0"/>
        <pt x="12" y="406" on="0"/>
        <pt x="21" y="406" on="1"/>
        <pt x="89" y="406" on="1"/>
        <pt x="89" y="710" on="1"/>
        <pt x="89" y="718" on="0"/>
        <pt x="103" y="731" on="0"/>
        <pt x="113" y="731" on="1"/>
        <pt x="290" y="731" on="1"/>
        <pt x="381" y="731" on="0"/>
        <pt x="492" y="630" on="0"/>
        <pt x="492" y="521" on="1"/>
        <pt x="492" y="210" on="1"/>
        <pt x="492" y="101" on="0"/>
        <pt x="381" y="0" on="0"/>
        <pt x="290" y="0" on="1"/>
        <pt x="113" y="0" on="1"/>
        <pt x="103" y="0" on="0"/>
        <pt x="89" y="13" on="0"/>
        <pt x="89" y="21" on="1"/>
        <pt x="89" y="362" on="1"/>
        <pt x="21" y="362" on="1"/>
        <pt x="12" y="362" on="0"/>
      </contour>
      <contour>
        <pt x="139" y="48" on="1"/>
        <pt x="290" y="48" on="1"/>
        <pt x="363" y="48" on="0"/>
        <pt x="442" y="129" on="0"/>
        <pt x="442" y="210" on="1"/>
        <pt x="442" y="521" on="1"/>
        <pt x="442" y="602" on="0"/>
        <pt x="363" y="683" on="0"/>
        <pt x="290" y="683" on="1"/>
        <pt x="139" y="683" on="1"/>
        <pt x="139" y="406" on="1"/>
        <pt x="262" y="406" on="1"/>
        <pt x="270" y="406" on="0"/>
        <pt x="282" y="393" on="0"/>
        <pt x="282" y="375" on="0"/>
        <pt x="270" y="362" on="0"/>
        <pt x="262" y="362" on="1"/>
        <pt x="139" y="362" on="1"/>
      </contour>
    </TTGlyph>
    <TTGlyph name="E" xMin="79" yMin="0" xMax="480" yMax="731">
      <contour>
        <pt x="79" y="22" on="1"/>
        <pt x="79" y="709" on="1"/>
        <pt x="79" y="731" on="0"/>
        <pt x="103" y="731" on="1"/>
        <pt x="459" y="731" on="1"/>
        <pt x="480" y="731" on="0"/>
        <pt x="480" y="708" on="1"/>
        <pt x="480" y="698" on="0"/>
        <pt x="468" y="683" on="0"/>
        <pt x="459" y="683" on="1"/>
        <pt x="129" y="683" on="1"/>
        <pt x="129" y="389" on="1"/>
        <pt x="288" y="389" on="1"/>
        <pt x="297" y="389" on="0"/>
        <pt x="309" y="375" on="0"/>
        <pt x="309" y="365" on="1"/>
        <pt x="309" y="343" on="0"/>
        <pt x="288" y="343" on="1"/>
        <pt x="129" y="343" on="1"/>
        <pt x="129" y="48" on="1"/>
        <pt x="459" y="48" on="1"/>
        <pt x="468" y="48" on="0"/>
        <pt x="480" y="33" on="0"/>
        <pt x="480" y="23" on="1"/>
        <pt x="480" y="0" on="0"/>
        <pt x="459" y="0" on="1"/>
        <pt x="103" y="0" on="1"/>
        <pt x="79" y="0" on="0"/>
      </contour>
    </TTGlyph>
    <TTGlyph name="Eacute" xMin="79" yMin="0" xMax="480" yMax="954">
      <contour>
        <pt x="79" y="22" on="1"/>
        <pt x="79" y="709" on="1"/>
        <pt x="79" y="731" on="0"/>
        <pt x="103" y="731" on="1"/>
        <pt x="459" y="731" on="1"/>
        <pt x="480" y="731" on="0"/>
        <pt x="480" y="708" on="1"/>
        <pt x="480" y="698" on="0"/>
        <pt x="468" y="683" on="0"/>
        <pt x="459" y="683" on="1"/>
        <pt x="129" y="683" on="1"/>
        <pt x="129" y="389" on="1"/>
        <pt x="288" y="389" on="1"/>
        <pt x="297" y="389" on="0"/>
        <pt x="309" y="375" on="0"/>
        <pt x="309" y="365" on="1"/>
        <pt x="309" y="343" on="0"/>
        <pt x="288" y="343" on="1"/>
        <pt x="129" y="343" on="1"/>
        <pt x="129" y="48" on="1"/>
        <pt x="459" y="48" on="1"/>
        <pt x="468" y="48" on="0"/>
        <pt x="480" y="33" on="0"/>
        <pt x="480" y="23" on="1"/>
        <pt x="480" y="0" on="0"/>
        <pt x="459" y="0" on="1"/>
        <pt x="103" y="0" on="1"/>
        <pt x="79" y="0" on="0"/>
      </contour>
      <contour>
        <pt x="210" y="876" on="1"/>
        <pt x="210" y="887" on="0"/>
        <pt x="219" y="891" on="1"/>
        <pt x="326" y="952" on="1"/>
        <pt x="330" y="954" on="0"/>
        <pt x="334" y="954" on="1"/>
        <pt x="343" y="954" on="0"/>
        <pt x="353" y="940" on="0"/>
        <pt x="353" y="931" on="1"/>
        <pt x="353" y="918" on="0"/>
        <pt x="342" y="911" on="1"/>
        <pt x="242" y="856" on="1"/>
        <pt x="238" y="853" on="0"/>
        <pt x="232" y="853" on="1"/>
        <pt x="223" y="853" on="0"/>
        <pt x="210" y="867" on="0"/>
      </contour>
    </TTGlyph>
    <TTGlyph name="Ebreve" xMin="79" yMin="0" xMax="480" yMax="969">
      <contour>
        <pt x="79" y="22" on="1"/>
        <pt x="79" y="709" on="1"/>
        <pt x="79" y="731" on="0"/>
        <pt x="103" y="731" on="1"/>
        <pt x="459" y="731" on="1"/>
        <pt x="480" y="731" on="0"/>
        <pt x="480" y="708" on="1"/>
        <pt x="480" y="698" on="0"/>
        <pt x="468" y="683" on="0"/>
        <pt x="459" y="683" on="1"/>
        <pt x="129" y="683" on="1"/>
        <pt x="129" y="389" on="1"/>
        <pt x="288" y="389" on="1"/>
        <pt x="297" y="389" on="0"/>
        <pt x="309" y="375" on="0"/>
        <pt x="309" y="365" on="1"/>
        <pt x="309" y="343" on="0"/>
        <pt x="288" y="343" on="1"/>
        <pt x="129" y="343" on="1"/>
        <pt x="129" y="48" on="1"/>
        <pt x="459" y="48" on="1"/>
        <pt x="468" y="48" on="0"/>
        <pt x="480" y="33" on="0"/>
        <pt x="480" y="23" on="1"/>
        <pt x="480" y="0" on="0"/>
        <pt x="459" y="0" on="1"/>
        <pt x="103" y="0" on="1"/>
        <pt x="79" y="0" on="0"/>
      </contour>
      <contour>
        <pt x="166" y="969" on="1"/>
        <pt x="204" y="969" on="1"/>
        <pt x="204" y="935" on="0"/>
        <pt x="248" y="887" on="0"/>
        <pt x="279" y="887" on="1"/>
        <pt x="309" y="887" on="0"/>
        <pt x="353" y="935" on="0"/>
        <pt x="353" y="969" on="1"/>
        <pt x="391" y="969" on="1"/>
        <pt x="391" y="924" on="0"/>
        <pt x="323" y="856" on="0"/>
        <pt x="279" y="856" on="1"/>
        <pt x="234" y="856" on="0"/>
        <pt x="166" y="923" on="0"/>
      </contour>
    </TTGlyph>
    <TTGlyph name="Ecaron" xMin="79" yMin="0" xMax="480" yMax="988">
      <contour>
        <pt x="79" y="22" on="1"/>
        <pt x="79" y="709" on="1"/>
        <pt x="79" y="731" on="0"/>
        <pt x="103" y="731" on="1"/>
        <pt x="459" y="731" on="1"/>
        <pt x="480" y="731" on="0"/>
        <pt x="480" y="708" on="1"/>
        <pt x="480" y="698" on="0"/>
        <pt x="468" y="683" on="0"/>
        <pt x="459" y="683" on="1"/>
        <pt x="129" y="683" on="1"/>
        <pt x="129" y="389" on="1"/>
        <pt x="288" y="389" on="1"/>
        <pt x="297" y="389" on="0"/>
        <pt x="309" y="375" on="0"/>
        <pt x="309" y="365" on="1"/>
        <pt x="309" y="343" on="0"/>
        <pt x="288" y="343" on="1"/>
        <pt x="129" y="343" on="1"/>
        <pt x="129" y="48" on="1"/>
        <pt x="459" y="48" on="1"/>
        <pt x="468" y="48" on="0"/>
        <pt x="480" y="33" on="0"/>
        <pt x="480" y="23" on="1"/>
        <pt x="480" y="0" on="0"/>
        <pt x="459" y="0" on="1"/>
        <pt x="103" y="0" on="1"/>
        <pt x="79" y="0" on="0"/>
      </contour>
      <contour>
        <pt x="147" y="969" on="1"/>
        <pt x="147" y="976" on="0"/>
        <pt x="157" y="988" on="0"/>
        <pt x="164" y="988" on="1"/>
        <pt x="172" y="988" on="0"/>
        <pt x="179" y="981" on="1"/>
        <pt x="278" y="883" on="1"/>
        <pt x="376" y="981" on="1"/>
        <pt x="383" y="988" on="0"/>
        <pt x="392" y="988" on="1"/>
        <pt x="399" y="988" on="0"/>
        <pt x="409" y="976" on="0"/>
        <pt x="409" y="962" on="0"/>
        <pt x="399" y="950" on="1"/>
        <pt x="298" y="854" on="1"/>
        <pt x="286" y="844" on="0"/>
        <pt x="278" y="844" on="1"/>
        <pt x="267" y="844" on="0"/>
        <pt x="257" y="854" on="1"/>
        <pt x="157" y="950" on="1"/>
        <pt x="147" y="960" on="0"/>
      </contour>
    </TTGlyph>
    <TTGlyph name="Ecircumflex" xMin="79" yMin="0" xMax="480" yMax="954">
      <contour>
        <pt x="79" y="22" on="1"/>
        <pt x="79" y="709" on="1"/>
        <pt x="79" y="731" on="0"/>
        <pt x="103" y="731" on="1"/>
        <pt x="459" y="731" on="1"/>
        <pt x="480" y="731" on="0"/>
        <pt x="480" y="708" on="1"/>
        <pt x="480" y="698" on="0"/>
        <pt x="468" y="683" on="0"/>
        <pt x="459" y="683" on="1"/>
        <pt x="129" y="683" on="1"/>
        <pt x="129" y="389" on="1"/>
        <pt x="288" y="389" on="1"/>
        <pt x="297" y="389" on="0"/>
        <pt x="309" y="375" on="0"/>
        <pt x="309" y="365" on="1"/>
        <pt x="309" y="343" on="0"/>
        <pt x="288" y="343" on="1"/>
        <pt x="129" y="343" on="1"/>
        <pt x="129" y="48" on="1"/>
        <pt x="459" y="48" on="1"/>
        <pt x="468" y="48" on="0"/>
        <pt x="480" y="33" on="0"/>
        <pt x="480" y="23" on="1"/>
        <pt x="480" y="0" on="0"/>
        <pt x="459" y="0" on="1"/>
        <pt x="103" y="0" on="1"/>
        <pt x="79" y="0" on="0"/>
      </contour>
      <contour>
        <pt x="148" y="876" on="1"/>
        <pt x="148" y="888" on="0"/>
        <pt x="159" y="893" on="1"/>
        <pt x="263" y="949" on="1"/>
        <pt x="271" y="954" on="0"/>
        <pt x="289" y="954" on="0"/>
        <pt x="297" y="949" on="1"/>
        <pt x="401" y="894" on="1"/>
        <pt x="412" y="888" on="0"/>
        <pt x="412" y="874" on="1"/>
        <pt x="412" y="866" on="0"/>
        <pt x="401" y="854" on="0"/>
        <pt x="393" y="854" on="1"/>
        <pt x="384" y="857" on="1"/>
        <pt x="280" y="912" on="1"/>
        <pt x="176" y="856" on="1"/>
        <pt x="175" y="856" on="0"/>
        <pt x="169" y="853" on="0"/>
        <pt x="168" y="853" on="1"/>
        <pt x="160" y="853" on="0"/>
        <pt x="148" y="866" on="0"/>
      </contour>
    </TTGlyph>
    <TTGlyph name="Edieresis" xMin="79" yMin="0" xMax="480" yMax="919">
      <contour>
        <pt x="79" y="22" on="1"/>
        <pt x="79" y="709" on="1"/>
        <pt x="79" y="731" on="0"/>
        <pt x="103" y="731" on="1"/>
        <pt x="459" y="731" on="1"/>
        <pt x="480" y="731" on="0"/>
        <pt x="480" y="708" on="1"/>
        <pt x="480" y="698" on="0"/>
        <pt x="468" y="683" on="0"/>
        <pt x="459" y="683" on="1"/>
        <pt x="129" y="683" on="1"/>
        <pt x="129" y="389" on="1"/>
        <pt x="288" y="389" on="1"/>
        <pt x="297" y="389" on="0"/>
        <pt x="309" y="375" on="0"/>
        <pt x="309" y="365" on="1"/>
        <pt x="309" y="343" on="0"/>
        <pt x="288" y="343" on="1"/>
        <pt x="129" y="343" on="1"/>
        <pt x="129" y="48" on="1"/>
        <pt x="459" y="48" on="1"/>
        <pt x="468" y="48" on="0"/>
        <pt x="480" y="33" on="0"/>
        <pt x="480" y="23" on="1"/>
        <pt x="480" y="0" on="0"/>
        <pt x="459" y="0" on="1"/>
        <pt x="103" y="0" on="1"/>
        <pt x="79" y="0" on="0"/>
      </contour>
      <contour>
        <pt x="188" y="873" on="0"/>
        <pt x="188" y="901" on="0"/>
        <pt x="207" y="919" on="0"/>
        <pt x="235" y="919" on="0"/>
        <pt x="253" y="901" on="0"/>
        <pt x="253" y="873" on="0"/>
        <pt x="235" y="854" on="0"/>
        <pt x="207" y="854" on="0"/>
      </contour>
      <contour>
        <pt x="305" y="873" on="0"/>
        <pt x="305" y="901" on="0"/>
        <pt x="323" y="919" on="0"/>
        <pt x="338" y="919" on="1"/>
        <pt x="352" y="919" on="0"/>
        <pt x="370" y="901" on="0"/>
        <pt x="370" y="873" on="0"/>
        <pt x="352" y="854" on="0"/>
        <pt x="338" y="854" on="1"/>
        <pt x="323" y="854" on="0"/>
      </contour>
    </TTGlyph>
    <TTGlyph name="Edotaccent" xMin="79" yMin="0" xMax="480" yMax="919">
      <contour>
        <pt x="79" y="22" on="1"/>
        <pt x="79" y="709" on="1"/>
        <pt x="79" y="731" on="0"/>
        <pt x="103" y="731" on="1"/>
        <pt x="459" y="731" on="1"/>
        <pt x="480" y="731" on="0"/>
        <pt x="480" y="708" on="1"/>
        <pt x="480" y="698" on="0"/>
        <pt x="468" y="683" on="0"/>
        <pt x="459" y="683" on="1"/>
        <pt x="129" y="683" on="1"/>
        <pt x="129" y="389" on="1"/>
        <pt x="288" y="389" on="1"/>
        <pt x="297" y="389" on="0"/>
        <pt x="309" y="375" on="0"/>
        <pt x="309" y="365" on="1"/>
        <pt x="309" y="343" on="0"/>
        <pt x="288" y="343" on="1"/>
        <pt x="129" y="343" on="1"/>
        <pt x="129" y="48" on="1"/>
        <pt x="459" y="48" on="1"/>
        <pt x="468" y="48" on="0"/>
        <pt x="480" y="33" on="0"/>
        <pt x="480" y="23" on="1"/>
        <pt x="480" y="0" on="0"/>
        <pt x="459" y="0" on="1"/>
        <pt x="103" y="0" on="1"/>
        <pt x="79" y="0" on="0"/>
      </contour>
      <contour>
        <pt x="248" y="873" on="0"/>
        <pt x="248" y="901" on="0"/>
        <pt x="267" y="919" on="0"/>
        <pt x="295" y="919" on="0"/>
        <pt x="314" y="901" on="0"/>
        <pt x="314" y="873" on="0"/>
        <pt x="295" y="854" on="0"/>
        <pt x="267" y="854" on="0"/>
      </contour>
    </TTGlyph>
    <TTGlyph name="Egrave" xMin="79" yMin="0" xMax="480" yMax="954">
      <contour>
        <pt x="79" y="22" on="1"/>
        <pt x="79" y="709" on="1"/>
        <pt x="79" y="731" on="0"/>
        <pt x="103" y="731" on="1"/>
        <pt x="459" y="731" on="1"/>
        <pt x="480" y="731" on="0"/>
        <pt x="480" y="708" on="1"/>
        <pt x="480" y="698" on="0"/>
        <pt x="468" y="683" on="0"/>
        <pt x="459" y="683" on="1"/>
        <pt x="129" y="683" on="1"/>
        <pt x="129" y="389" on="1"/>
        <pt x="288" y="389" on="1"/>
        <pt x="297" y="389" on="0"/>
        <pt x="309" y="375" on="0"/>
        <pt x="309" y="365" on="1"/>
        <pt x="309" y="343" on="0"/>
        <pt x="288" y="343" on="1"/>
        <pt x="129" y="343" on="1"/>
        <pt x="129" y="48" on="1"/>
        <pt x="459" y="48" on="1"/>
        <pt x="468" y="48" on="0"/>
        <pt x="480" y="33" on="0"/>
        <pt x="480" y="23" on="1"/>
        <pt x="480" y="0" on="0"/>
        <pt x="459" y="0" on="1"/>
        <pt x="103" y="0" on="1"/>
        <pt x="79" y="0" on="0"/>
      </contour>
      <contour>
        <pt x="207" y="931" on="1"/>
        <pt x="207" y="940" on="0"/>
        <pt x="218" y="954" on="0"/>
        <pt x="227" y="954" on="1"/>
        <pt x="230" y="954" on="0"/>
        <pt x="234" y="952" on="1"/>
        <pt x="341" y="891" on="1"/>
        <pt x="350" y="887" on="0"/>
        <pt x="350" y="876" on="1"/>
        <pt x="350" y="867" on="0"/>
        <pt x="337" y="853" on="0"/>
        <pt x="328" y="853" on="1"/>
        <pt x="324" y="853" on="0"/>
        <pt x="318" y="856" on="1"/>
        <pt x="218" y="911" on="1"/>
        <pt x="207" y="918" on="0"/>
      </contour>
    </TTGlyph>
    <TTGlyph name="Emacron" xMin="79" yMin="0" xMax="480" yMax="941">
      <contour>
        <pt x="79" y="22" on="1"/>
        <pt x="79" y="709" on="1"/>
        <pt x="79" y="731" on="0"/>
        <pt x="103" y="731" on="1"/>
        <pt x="459" y="731" on="1"/>
        <pt x="480" y="731" on="0"/>
        <pt x="480" y="708" on="1"/>
        <pt x="480" y="698" on="0"/>
        <pt x="468" y="683" on="0"/>
        <pt x="459" y="683" on="1"/>
        <pt x="129" y="683" on="1"/>
        <pt x="129" y="389" on="1"/>
        <pt x="288" y="389" on="1"/>
        <pt x="297" y="389" on="0"/>
        <pt x="309" y="375" on="0"/>
        <pt x="309" y="365" on="1"/>
        <pt x="309" y="343" on="0"/>
        <pt x="288" y="343" on="1"/>
        <pt x="129" y="343" on="1"/>
        <pt x="129" y="48" on="1"/>
        <pt x="459" y="48" on="1"/>
        <pt x="468" y="48" on="0"/>
        <pt x="480" y="33" on="0"/>
        <pt x="480" y="23" on="1"/>
        <pt x="480" y="0" on="0"/>
        <pt x="459" y="0" on="1"/>
        <pt x="103" y="0" on="1"/>
        <pt x="79" y="0" on="0"/>
      </contour>
      <contour>
        <pt x="150" y="919" on="1"/>
        <pt x="150" y="941" on="0"/>
        <pt x="171" y="941" on="1"/>
        <pt x="388" y="941" on="1"/>
        <pt x="396" y="941" on="0"/>
        <pt x="410" y="928" on="0"/>
        <pt x="410" y="910" on="0"/>
        <pt x="397" y="899" on="0"/>
        <pt x="388" y="899" on="1"/>
        <pt x="171" y="899" on="1"/>
        <pt x="150" y="899" on="0"/>
      </contour>
    </TTGlyph>
    <TTGlyph name="Eng" xMin="79" yMin="-235" xMax="484" yMax="731">
      <contour>
        <pt x="79" y="22" on="1"/>
        <pt x="79" y="710" on="1"/>
        <pt x="79" y="731" on="0"/>
        <pt x="104" y="731" on="1"/>
        <pt x="123" y="731" on="0"/>
        <pt x="145" y="690" on="1"/>
        <pt x="434" y="119" on="1"/>
        <pt x="434" y="710" on="1"/>
        <pt x="434" y="731" on="0"/>
        <pt x="484" y="731" on="0"/>
        <pt x="484" y="710" on="1"/>
        <pt x="484" y="-46" on="1"/>
        <pt x="484" y="-235" on="0"/>
        <pt x="358" y="-235" on="1"/>
        <pt x="346" y="-235" on="0"/>
        <pt x="333" y="-221" on="0"/>
        <pt x="333" y="-201" on="0"/>
        <pt x="346" y="-189" on="0"/>
        <pt x="355" y="-189" on="1"/>
        <pt x="404" y="-189" on="0"/>
        <pt x="435" y="-118" on="0"/>
        <pt x="435" y="-46" on="1"/>
        <pt x="435" y="1" on="1"/>
        <pt x="435" y="14" on="0"/>
        <pt x="423" y="37" on="1"/>
        <pt x="129" y="613" on="1"/>
        <pt x="129" y="22" on="1"/>
        <pt x="129" y="0" on="0"/>
        <pt x="79" y="0" on="0"/>
      </contour>
    </TTGlyph>
    <TTGlyph name="Eogonek" xMin="79" yMin="-198" xMax="480" yMax="731">
      <contour>
        <pt x="79" y="22" on="1"/>
        <pt x="79" y="709" on="1"/>
        <pt x="79" y="731" on="0"/>
        <pt x="103" y="731" on="1"/>
        <pt x="459" y="731" on="1"/>
        <pt x="480" y="731" on="0"/>
        <pt x="480" y="708" on="1"/>
        <pt x="480" y="698" on="0"/>
        <pt x="468" y="683" on="0"/>
        <pt x="459" y="683" on="1"/>
        <pt x="129" y="683" on="1"/>
        <pt x="129" y="389" on="1"/>
        <pt x="288" y="389" on="1"/>
        <pt x="297" y="389" on="0"/>
        <pt x="309" y="375" on="0"/>
        <pt x="309" y="365" on="1"/>
        <pt x="309" y="343" on="0"/>
        <pt x="288" y="343" on="1"/>
        <pt x="129" y="343" on="1"/>
        <pt x="129" y="48" on="1"/>
        <pt x="459" y="48" on="1"/>
        <pt x="468" y="48" on="0"/>
        <pt x="480" y="33" on="0"/>
        <pt x="480" y="23" on="1"/>
        <pt x="480" y="8" on="0"/>
        <pt x="468" y="2" on="1"/>
        <pt x="396" y="-63" on="0"/>
        <pt x="396" y="-124" on="1"/>
        <pt x="396" y="-167" on="0"/>
        <pt x="459" y="-167" on="1"/>
        <pt x="477" y="-167" on="0"/>
        <pt x="477" y="-183" on="1"/>
        <pt x="477" y="-198" on="0"/>
        <pt x="453" y="-198" on="1"/>
        <pt x="416" y="-198" on="0"/>
        <pt x="362" y="-164" on="0"/>
        <pt x="362" y="-127" on="1"/>
        <pt x="362" y="-60" on="0"/>
        <pt x="420" y="0" on="1"/>
        <pt x="103" y="0" on="1"/>
        <pt x="79" y="0" on="0"/>
      </contour>
    </TTGlyph>
    <TTGlyph name="Eth" xMin="1" yMin="0" xMax="492" yMax="731">
      <contour>
        <pt x="1" y="375" on="0"/>
        <pt x="1" y="393" on="0"/>
        <pt x="12" y="406" on="0"/>
        <pt x="21" y="406" on="1"/>
        <pt x="89" y="406" on="1"/>
        <pt x="89" y="710" on="1"/>
        <pt x="89" y="718" on="0"/>
        <pt x="103" y="731" on="0"/>
        <pt x="113" y="731" on="1"/>
        <pt x="290" y="731" on="1"/>
        <pt x="381" y="731" on="0"/>
        <pt x="492" y="630" on="0"/>
        <pt x="492" y="521" on="1"/>
        <pt x="492" y="210" on="1"/>
        <pt x="492" y="101" on="0"/>
        <pt x="381" y="0" on="0"/>
        <pt x="290" y="0" on="1"/>
        <pt x="113" y="0" on="1"/>
        <pt x="103" y="0" on="0"/>
        <pt x="89" y="13" on="0"/>
        <pt x="89" y="21" on="1"/>
        <pt x="89" y="362" on="1"/>
        <pt x="21" y="362" on="1"/>
        <pt x="12" y="362" on="0"/>
      </contour>
      <contour>
        <pt x="139" y="48" on="1"/>
        <pt x="290" y="48" on="1"/>
        <pt x="363" y="48" on="0"/>
        <pt x="442" y="129" on="0"/>
        <pt x="442" y="210" on="1"/>
        <pt x="442" y="521" on="1"/>
        <pt x="442" y="602" on="0"/>
        <pt x="363" y="683" on="0"/>
        <pt x="290" y="683" on="1"/>
        <pt x="139" y="683" on="1"/>
        <pt x="139" y="406" on="1"/>
        <pt x="262" y="406" on="1"/>
        <pt x="270" y="406" on="0"/>
        <pt x="282" y="393" on="0"/>
        <pt x="282" y="375" on="0"/>
        <pt x="270" y="362" on="0"/>
        <pt x="262" y="362" on="1"/>
        <pt x="139" y="362" on="1"/>
      </contour>
    </TTGlyph>
    <TTGlyph name="Euro" xMin="35" yMin="-6" xMax="524" yMax="731">
      <contour>
        <pt x="35" y="279" on="1"/>
        <pt x="35" y="302" on="0"/>
        <pt x="55" y="302" on="1"/>
        <pt x="122" y="302" on="1"/>
        <pt x="122" y="404" on="1"/>
        <pt x="55" y="404" on="1"/>
        <pt x="35" y="404" on="0"/>
        <pt x="35" y="425" on="1"/>
        <pt x="35" y="448" on="0"/>
        <pt x="55" y="448" on="1"/>
        <pt x="122" y="448" on="1"/>
        <pt x="122" y="521" on="1"/>
        <pt x="122" y="630" on="0"/>
        <pt x="231" y="731" on="0"/>
        <pt x="322" y="731" on="1"/>
        <pt x="414" y="731" on="0"/>
        <pt x="524" y="636" on="0"/>
        <pt x="524" y="562" on="1"/>
        <pt x="524" y="536" on="0"/>
        <pt x="474" y="536" on="0"/>
        <pt x="474" y="557" on="1"/>
        <pt x="474" y="617" on="0"/>
        <pt x="391" y="683" on="0"/>
        <pt x="323" y="683" on="1"/>
        <pt x="172" y="683" on="0"/>
        <pt x="172" y="521" on="1"/>
        <pt x="172" y="448" on="1"/>
        <pt x="359" y="448" on="1"/>
        <pt x="368" y="448" on="0"/>
        <pt x="381" y="434" on="0"/>
        <pt x="381" y="416" on="0"/>
        <pt x="368" y="404" on="0"/>
        <pt x="359" y="404" on="1"/>
        <pt x="172" y="404" on="1"/>
        <pt x="172" y="302" on="1"/>
        <pt x="359" y="302" on="1"/>
        <pt x="367" y="302" on="0"/>
        <pt x="381" y="289" on="0"/>
        <pt x="381" y="271" on="0"/>
        <pt x="368" y="258" on="0"/>
        <pt x="359" y="258" on="1"/>
        <pt x="172" y="258" on="1"/>
        <pt x="172" y="201" on="1"/>
        <pt x="172" y="124" on="0"/>
        <pt x="250" y="42" on="0"/>
        <pt x="323" y="42" on="1"/>
        <pt x="391" y="42" on="0"/>
        <pt x="474" y="108" on="0"/>
        <pt x="474" y="169" on="1"/>
        <pt x="476" y="190" on="0"/>
        <pt x="499" y="190" on="1"/>
        <pt x="524" y="190" on="0"/>
        <pt x="524" y="164" on="1"/>
        <pt x="524" y="90" on="0"/>
        <pt x="414" y="-6" on="0"/>
        <pt x="322" y="-6" on="1"/>
        <pt x="231" y="-6" on="0"/>
        <pt x="122" y="96" on="0"/>
        <pt x="122" y="201" on="1"/>
        <pt x="122" y="258" on="1"/>
        <pt x="55" y="258" on="1"/>
        <pt x="35" y="258" on="0"/>
      </contour>
    </TTGlyph>
    <TTGlyph name="F" xMin="79" yMin="0" xMax="479" yMax="731">
      <contour>
        <pt x="79" y="21" on="1"/>
        <pt x="79" y="709" on="1"/>
        <pt x="79" y="731" on="0"/>
        <pt x="103" y="731" on="1"/>
        <pt x="458" y="731" on="1"/>
        <pt x="468" y="731" on="0"/>
        <pt x="479" y="717" on="0"/>
        <pt x="479" y="708" on="1"/>
        <pt x="479" y="698" on="0"/>
        <pt x="467" y="683" on="0"/>
        <pt x="458" y="683" on="1"/>
        <pt x="129" y="683" on="1"/>
        <pt x="129" y="389" on="1"/>
        <pt x="288" y="389" on="1"/>
        <pt x="297" y="389" on="0"/>
        <pt x="309" y="375" on="0"/>
        <pt x="309" y="365" on="1"/>
        <pt x="309" y="343" on="0"/>
        <pt x="288" y="343" on="1"/>
        <pt x="129" y="343" on="1"/>
        <pt x="129" y="21" on="1"/>
        <pt x="129" y="0" on="0"/>
        <pt x="79" y="0" on="0"/>
      </contour>
    </TTGlyph>
    <TTGlyph name="G" xMin="72" yMin="-6" xMax="475" yMax="731">
      <contour>
        <pt x="72" y="204" on="1"/>
        <pt x="72" y="521" on="1"/>
        <pt x="72" y="630" on="0"/>
        <pt x="181" y="731" on="0"/>
        <pt x="272" y="731" on="1"/>
        <pt x="365" y="731" on="0"/>
        <pt x="475" y="636" on="0"/>
        <pt x="475" y="562" on="1"/>
        <pt x="475" y="536" on="0"/>
        <pt x="450" y="536" on="1"/>
        <pt x="426" y="536" on="0"/>
        <pt x="425" y="557" on="1"/>
        <pt x="408" y="683" on="0"/>
        <pt x="273" y="683" on="1"/>
        <pt x="122" y="683" on="0"/>
        <pt x="122" y="521" on="1"/>
        <pt x="122" y="204" on="1"/>
        <pt x="122" y="42" on="0"/>
        <pt x="273" y="42" on="1"/>
        <pt x="346" y="42" on="0"/>
        <pt x="425" y="123" on="0"/>
        <pt x="425" y="204" on="1"/>
        <pt x="425" y="338" on="1"/>
        <pt x="277" y="338" on="1"/>
        <pt x="268" y="338" on="0"/>
        <pt x="257" y="352" on="0"/>
        <pt x="257" y="370" on="0"/>
        <pt x="268" y="384" on="0"/>
        <pt x="277" y="384" on="1"/>
        <pt x="454" y="384" on="1"/>
        <pt x="463" y="384" on="0"/>
        <pt x="475" y="370" on="0"/>
        <pt x="475" y="361" on="1"/>
        <pt x="475" y="204" on="1"/>
        <pt x="475" y="95" on="0"/>
        <pt x="364" y="-6" on="0"/>
        <pt x="273" y="-6" on="1"/>
        <pt x="181" y="-6" on="0"/>
        <pt x="72" y="95" on="0"/>
      </contour>
    </TTGlyph>
    <TTGlyph name="Gbreve" xMin="72" yMin="-6" xMax="475" yMax="969">
      <contour>
        <pt x="72" y="204" on="1"/>
        <pt x="72" y="521" on="1"/>
        <pt x="72" y="630" on="0"/>
        <pt x="181" y="731" on="0"/>
        <pt x="272" y="731" on="1"/>
        <pt x="365" y="731" on="0"/>
        <pt x="475" y="636" on="0"/>
        <pt x="475" y="562" on="1"/>
        <pt x="475" y="536" on="0"/>
        <pt x="450" y="536" on="1"/>
        <pt x="426" y="536" on="0"/>
        <pt x="425" y="557" on="1"/>
        <pt x="408" y="683" on="0"/>
        <pt x="273" y="683" on="1"/>
        <pt x="122" y="683" on="0"/>
        <pt x="122" y="521" on="1"/>
        <pt x="122" y="204" on="1"/>
        <pt x="122" y="42" on="0"/>
        <pt x="273" y="42" on="1"/>
        <pt x="346" y="42" on="0"/>
        <pt x="425" y="123" on="0"/>
        <pt x="425" y="204" on="1"/>
        <pt x="425" y="338" on="1"/>
        <pt x="277" y="338" on="1"/>
        <pt x="268" y="338" on="0"/>
        <pt x="257" y="352" on="0"/>
        <pt x="257" y="370" on="0"/>
        <pt x="268" y="384" on="0"/>
        <pt x="277" y="384" on="1"/>
        <pt x="454" y="384" on="1"/>
        <pt x="463" y="384" on="0"/>
        <pt x="475" y="370" on="0"/>
        <pt x="475" y="361" on="1"/>
        <pt x="475" y="204" on="1"/>
        <pt x="475" y="95" on="0"/>
        <pt x="364" y="-6" on="0"/>
        <pt x="273" y="-6" on="1"/>
        <pt x="181" y="-6" on="0"/>
        <pt x="72" y="95" on="0"/>
      </contour>
      <contour>
        <pt x="160" y="969" on="1"/>
        <pt x="198" y="969" on="1"/>
        <pt x="198" y="935" on="0"/>
        <pt x="242" y="887" on="0"/>
        <pt x="273" y="887" on="1"/>
        <pt x="303" y="887" on="0"/>
        <pt x="347" y="935" on="0"/>
        <pt x="347" y="969" on="1"/>
        <pt x="385" y="969" on="1"/>
        <pt x="385" y="924" on="0"/>
        <pt x="317" y="856" on="0"/>
        <pt x="273" y="856" on="1"/>
        <pt x="228" y="856" on="0"/>
        <pt x="160" y="923" on="0"/>
      </contour>
    </TTGlyph>
    <TTGlyph name="Gcircumflex" xMin="72" yMin="-6" xMax="475" yMax="954">
      <contour>
        <pt x="72" y="204" on="1"/>
        <pt x="72" y="521" on="1"/>
        <pt x="72" y="630" on="0"/>
        <pt x="181" y="731" on="0"/>
        <pt x="272" y="731" on="1"/>
        <pt x="365" y="731" on="0"/>
        <pt x="475" y="636" on="0"/>
        <pt x="475" y="562" on="1"/>
        <pt x="475" y="536" on="0"/>
        <pt x="450" y="536" on="1"/>
        <pt x="426" y="536" on="0"/>
        <pt x="425" y="557" on="1"/>
        <pt x="408" y="683" on="0"/>
        <pt x="273" y="683" on="1"/>
        <pt x="122" y="683" on="0"/>
        <pt x="122" y="521" on="1"/>
        <pt x="122" y="204" on="1"/>
        <pt x="122" y="42" on="0"/>
        <pt x="273" y="42" on="1"/>
        <pt x="346" y="42" on="0"/>
        <pt x="425" y="123" on="0"/>
        <pt x="425" y="204" on="1"/>
        <pt x="425" y="338" on="1"/>
        <pt x="277" y="338" on="1"/>
        <pt x="268" y="338" on="0"/>
        <pt x="257" y="352" on="0"/>
        <pt x="257" y="370" on="0"/>
        <pt x="268" y="384" on="0"/>
        <pt x="277" y="384" on="1"/>
        <pt x="454" y="384" on="1"/>
        <pt x="463" y="384" on="0"/>
        <pt x="475" y="370" on="0"/>
        <pt x="475" y="361" on="1"/>
        <pt x="475" y="204" on="1"/>
        <pt x="475" y="95" on="0"/>
        <pt x="364" y="-6" on="0"/>
        <pt x="273" y="-6" on="1"/>
        <pt x="181" y="-6" on="0"/>
        <pt x="72" y="95" on="0"/>
      </contour>
      <contour>
        <pt x="139" y="876" on="1"/>
        <pt x="139" y="888" on="0"/>
        <pt x="150" y="893" on="1"/>
        <pt x="254" y="949" on="1"/>
        <pt x="262" y="954" on="0"/>
        <pt x="280" y="954" on="0"/>
        <pt x="288" y="949" on="1"/>
        <pt x="392" y="894" on="1"/>
        <pt x="403" y="888" on="0"/>
        <pt x="403" y="874" on="1"/>
        <pt x="403" y="866" on="0"/>
        <pt x="392" y="854" on="0"/>
        <pt x="384" y="854" on="1"/>
        <pt x="375" y="857" on="1"/>
        <pt x="271" y="912" on="1"/>
        <pt x="167" y="856" on="1"/>
        <pt x="166" y="856" on="0"/>
        <pt x="160" y="853" on="0"/>
        <pt x="159" y="853" on="1"/>
        <pt x="151" y="853" on="0"/>
        <pt x="139" y="866" on="0"/>
      </contour>
    </TTGlyph>
    <TTGlyph name="Gcommaaccent" xMin="72" yMin="-149" xMax="475" yMax="731">
      <contour>
        <pt x="72" y="204" on="1"/>
        <pt x="72" y="521" on="1"/>
        <pt x="72" y="630" on="0"/>
        <pt x="181" y="731" on="0"/>
        <pt x="272" y="731" on="1"/>
        <pt x="365" y="731" on="0"/>
        <pt x="475" y="636" on="0"/>
        <pt x="475" y="562" on="1"/>
        <pt x="475" y="536" on="0"/>
        <pt x="450" y="536" on="1"/>
        <pt x="426" y="536" on="0"/>
        <pt x="425" y="557" on="1"/>
        <pt x="408" y="683" on="0"/>
        <pt x="273" y="683" on="1"/>
        <pt x="122" y="683" on="0"/>
        <pt x="122" y="521" on="1"/>
        <pt x="122" y="204" on="1"/>
        <pt x="122" y="42" on="0"/>
        <pt x="273" y="42" on="1"/>
        <pt x="346" y="42" on="0"/>
        <pt x="425" y="123" on="0"/>
        <pt x="425" y="204" on="1"/>
        <pt x="425" y="338" on="1"/>
        <pt x="277" y="338" on="1"/>
        <pt x="268" y="338" on="0"/>
        <pt x="257" y="352" on="0"/>
        <pt x="257" y="370" on="0"/>
        <pt x="268" y="384" on="0"/>
        <pt x="277" y="384" on="1"/>
        <pt x="454" y="384" on="1"/>
        <pt x="463" y="384" on="0"/>
        <pt x="475" y="370" on="0"/>
        <pt x="475" y="361" on="1"/>
        <pt x="475" y="204" on="1"/>
        <pt x="475" y="95" on="0"/>
        <pt x="364" y="-6" on="0"/>
        <pt x="273" y="-6" on="1"/>
        <pt x="181" y="-6" on="0"/>
        <pt x="72" y="95" on="0"/>
      </contour>
      <contour>
        <pt x="198" y="-126" on="1"/>
        <pt x="198" y="-115" on="0"/>
        <pt x="208" y="-111" on="1"/>
        <pt x="314" y="-50" on="1"/>
        <pt x="320" y="-48" on="0"/>
        <pt x="322" y="-48" on="1"/>
        <pt x="331" y="-48" on="0"/>
        <pt x="342" y="-62" on="0"/>
        <pt x="342" y="-71" on="1"/>
        <pt x="342" y="-84" on="0"/>
        <pt x="330" y="-91" on="1"/>
        <pt x="230" y="-146" on="1"/>
        <pt x="226" y="-149" on="0"/>
        <pt x="221" y="-149" on="1"/>
        <pt x="212" y="-149" on="0"/>
        <pt x="198" y="-135" on="0"/>
      </contour>
    </TTGlyph>
    <TTGlyph name="Gdotaccent" xMin="72" yMin="-6" xMax="475" yMax="919">
      <contour>
        <pt x="72" y="204" on="1"/>
        <pt x="72" y="521" on="1"/>
        <pt x="72" y="630" on="0"/>
        <pt x="181" y="731" on="0"/>
        <pt x="272" y="731" on="1"/>
        <pt x="365" y="731" on="0"/>
        <pt x="475" y="636" on="0"/>
        <pt x="475" y="562" on="1"/>
        <pt x="475" y="536" on="0"/>
        <pt x="450" y="536" on="1"/>
        <pt x="426" y="536" on="0"/>
        <pt x="425" y="557" on="1"/>
        <pt x="408" y="683" on="0"/>
        <pt x="273" y="683" on="1"/>
        <pt x="122" y="683" on="0"/>
        <pt x="122" y="521" on="1"/>
        <pt x="122" y="204" on="1"/>
        <pt x="122" y="42" on="0"/>
        <pt x="273" y="42" on="1"/>
        <pt x="346" y="42" on="0"/>
        <pt x="425" y="123" on="0"/>
        <pt x="425" y="204" on="1"/>
        <pt x="425" y="338" on="1"/>
        <pt x="277" y="338" on="1"/>
        <pt x="268" y="338" on="0"/>
        <pt x="257" y="352" on="0"/>
        <pt x="257" y="370" on="0"/>
        <pt x="268" y="384" on="0"/>
        <pt x="277" y="384" on="1"/>
        <pt x="454" y="384" on="1"/>
        <pt x="463" y="384" on="0"/>
        <pt x="475" y="370" on="0"/>
        <pt x="475" y="361" on="1"/>
        <pt x="475" y="204" on="1"/>
        <pt x="475" y="95" on="0"/>
        <pt x="364" y="-6" on="0"/>
        <pt x="273" y="-6" on="1"/>
        <pt x="181" y="-6" on="0"/>
        <pt x="72" y="95" on="0"/>
      </contour>
      <contour>
        <pt x="240" y="873" on="0"/>
        <pt x="240" y="901" on="0"/>
        <pt x="259" y="919" on="0"/>
        <pt x="287" y="919" on="0"/>
        <pt x="306" y="901" on="0"/>
        <pt x="306" y="873" on="0"/>
        <pt x="287" y="854" on="0"/>
        <pt x="259" y="854" on="0"/>
      </contour>
    </TTGlyph>
    <TTGlyph name="H" xMin="79" yMin="0" xMax="484" yMax="731">
      <contour>
        <pt x="79" y="22" on="1"/>
        <pt x="79" y="710" on="1"/>
        <pt x="79" y="731" on="0"/>
        <pt x="129" y="731" on="0"/>
        <pt x="129" y="710" on="1"/>
        <pt x="129" y="402" on="1"/>
        <pt x="434" y="402" on="1"/>
        <pt x="434" y="710" on="1"/>
        <pt x="434" y="731" on="0"/>
        <pt x="484" y="731" on="0"/>
        <pt x="484" y="710" on="1"/>
        <pt x="484" y="22" on="1"/>
        <pt x="484" y="0" on="0"/>
        <pt x="434" y="0" on="0"/>
        <pt x="434" y="22" on="1"/>
        <pt x="434" y="356" on="1"/>
        <pt x="129" y="356" on="1"/>
        <pt x="129" y="22" on="1"/>
        <pt x="129" y="0" on="0"/>
        <pt x="79" y="0" on="0"/>
      </contour>
    </TTGlyph>
    <TTGlyph name="Hbar" xMin="20" yMin="0" xMax="544" yMax="731">
      <contour>
        <pt x="20" y="562" on="1"/>
        <pt x="20" y="571" on="0"/>
        <pt x="31" y="584" on="0"/>
        <pt x="40" y="584" on="1"/>
        <pt x="80" y="584" on="1"/>
        <pt x="80" y="710" on="1"/>
        <pt x="80" y="731" on="0"/>
        <pt x="130" y="731" on="0"/>
        <pt x="130" y="710" on="1"/>
        <pt x="130" y="584" on="1"/>
        <pt x="435" y="584" on="1"/>
        <pt x="435" y="710" on="1"/>
        <pt x="435" y="731" on="0"/>
        <pt x="485" y="731" on="0"/>
        <pt x="485" y="710" on="1"/>
        <pt x="485" y="584" on="1"/>
        <pt x="524" y="584" on="1"/>
        <pt x="532" y="584" on="0"/>
        <pt x="544" y="571" on="0"/>
        <pt x="544" y="562" on="1"/>
        <pt x="544" y="554" on="0"/>
        <pt x="532" y="542" on="0"/>
        <pt x="524" y="542" on="1"/>
        <pt x="485" y="542" on="1"/>
        <pt x="485" y="22" on="1"/>
        <pt x="485" y="0" on="0"/>
        <pt x="435" y="0" on="0"/>
        <pt x="435" y="22" on="1"/>
        <pt x="435" y="356" on="1"/>
        <pt x="130" y="356" on="1"/>
        <pt x="130" y="22" on="1"/>
        <pt x="130" y="0" on="0"/>
        <pt x="80" y="0" on="0"/>
        <pt x="80" y="22" on="1"/>
        <pt x="80" y="542" on="1"/>
        <pt x="40" y="542" on="1"/>
        <pt x="31" y="542" on="0"/>
        <pt x="20" y="554" on="0"/>
      </contour>
      <contour>
        <pt x="130" y="402" on="1"/>
        <pt x="435" y="402" on="1"/>
        <pt x="435" y="542" on="1"/>
        <pt x="130" y="542" on="1"/>
      </contour>
    </TTGlyph>
    <TTGlyph name="Hcircumflex" xMin="79" yMin="0" xMax="484" yMax="954">
      <contour>
        <pt x="79" y="22" on="1"/>
        <pt x="79" y="710" on="1"/>
        <pt x="79" y="731" on="0"/>
        <pt x="129" y="731" on="0"/>
        <pt x="129" y="710" on="1"/>
        <pt x="129" y="402" on="1"/>
        <pt x="434" y="402" on="1"/>
        <pt x="434" y="710" on="1"/>
        <pt x="434" y="731" on="0"/>
        <pt x="484" y="731" on="0"/>
        <pt x="484" y="710" on="1"/>
        <pt x="484" y="22" on="1"/>
        <pt x="484" y="0" on="0"/>
        <pt x="434" y="0" on="0"/>
        <pt x="434" y="22" on="1"/>
        <pt x="434" y="356" on="1"/>
        <pt x="129" y="356" on="1"/>
        <pt x="129" y="22" on="1"/>
        <pt x="129" y="0" on="0"/>
        <pt x="79" y="0" on="0"/>
      </contour>
      <contour>
        <pt x="150" y="876" on="1"/>
        <pt x="150" y="888" on="0"/>
        <pt x="161" y="893" on="1"/>
        <pt x="265" y="949" on="1"/>
        <pt x="273" y="954" on="0"/>
        <pt x="291" y="954" on="0"/>
        <pt x="299" y="949" on="1"/>
        <pt x="403" y="894" on="1"/>
        <pt x="414" y="888" on="0"/>
        <pt x="414" y="874" on="1"/>
        <pt x="414" y="866" on="0"/>
        <pt x="403" y="854" on="0"/>
        <pt x="395" y="854" on="1"/>
        <pt x="386" y="857" on="1"/>
        <pt x="282" y="912" on="1"/>
        <pt x="178" y="856" on="1"/>
        <pt x="177" y="856" on="0"/>
        <pt x="171" y="853" on="0"/>
        <pt x="170" y="853" on="1"/>
        <pt x="162" y="853" on="0"/>
        <pt x="150" y="866" on="0"/>
      </contour>
    </TTGlyph>
    <TTGlyph name="I" xMin="79" yMin="0" xMax="129" yMax="731">
      <contour>
        <pt x="79" y="22" on="1"/>
        <pt x="79" y="710" on="1"/>
        <pt x="79" y="731" on="0"/>
        <pt x="129" y="731" on="0"/>
        <pt x="129" y="710" on="1"/>
        <pt x="129" y="22" on="1"/>
        <pt x="129" y="0" on="0"/>
        <pt x="79" y="0" on="0"/>
      </contour>
    </TTGlyph>
    <TTGlyph name="IJ" xMin="79" yMin="-6" xMax="632" yMax="731">
      <contour>
        <pt x="79" y="22" on="1"/>
        <pt x="79" y="710" on="1"/>
        <pt x="79" y="731" on="0"/>
        <pt x="129" y="731" on="0"/>
        <pt x="129" y="710" on="1"/>
        <pt x="129" y="22" on="1"/>
        <pt x="129" y="0" on="0"/>
        <pt x="79" y="0" on="0"/>
      </contour>
      <contour>
        <pt x="229" y="164" on="1"/>
        <pt x="229" y="190" on="0"/>
        <pt x="279" y="190" on="0"/>
        <pt x="279" y="169" on="1"/>
        <pt x="280" y="108" on="0"/>
        <pt x="364" y="42" on="0"/>
        <pt x="431" y="42" on="1"/>
        <pt x="582" y="42" on="0"/>
        <pt x="582" y="204" on="1"/>
        <pt x="582" y="683" on="1"/>
        <pt x="432" y="683" on="1"/>
        <pt x="411" y="683" on="0"/>
        <pt x="411" y="708" on="1"/>
        <pt x="411" y="731" on="0"/>
        <pt x="432" y="731" on="1"/>
        <pt x="608" y="731" on="1"/>
        <pt x="632" y="731" on="0"/>
        <pt x="632" y="709" on="1"/>
        <pt x="632" y="204" on="1"/>
        <pt x="632" y="95" on="0"/>
        <pt x="523" y="-6" on="0"/>
        <pt x="432" y="-6" on="1"/>
        <pt x="340" y="-6" on="0"/>
        <pt x="229" y="90" on="0"/>
      </contour>
    </TTGlyph>
    <TTGlyph name="Iacute" xMin="33" yMin="0" xMax="176" yMax="954">
      <contour>
        <pt x="33" y="876" on="1"/>
        <pt x="33" y="887" on="0"/>
        <pt x="42" y="891" on="1"/>
        <pt x="149" y="952" on="1"/>
        <pt x="153" y="954" on="0"/>
        <pt x="157" y="954" on="1"/>
        <pt x="166" y="954" on="0"/>
        <pt x="176" y="940" on="0"/>
        <pt x="176" y="931" on="1"/>
        <pt x="176" y="918" on="0"/>
        <pt x="165" y="911" on="1"/>
        <pt x="65" y="856" on="1"/>
        <pt x="60" y="853" on="0"/>
        <pt x="55" y="853" on="1"/>
        <pt x="46" y="853" on="0"/>
        <pt x="33" y="867" on="0"/>
      </contour>
      <contour>
        <pt x="79" y="22" on="1"/>
        <pt x="79" y="710" on="1"/>
        <pt x="79" y="731" on="0"/>
        <pt x="129" y="731" on="0"/>
        <pt x="129" y="710" on="1"/>
        <pt x="129" y="22" on="1"/>
        <pt x="129" y="0" on="0"/>
        <pt x="79" y="0" on="0"/>
      </contour>
    </TTGlyph>
    <TTGlyph name="Ibreve" xMin="-8" yMin="0" xMax="217" yMax="969">
      <contour>
        <pt x="-8" y="969" on="1"/>
        <pt x="30" y="969" on="1"/>
        <pt x="30" y="935" on="0"/>
        <pt x="74" y="887" on="0"/>
        <pt x="105" y="887" on="1"/>
        <pt x="135" y="887" on="0"/>
        <pt x="179" y="935" on="0"/>
        <pt x="179" y="969" on="1"/>
        <pt x="217" y="969" on="1"/>
        <pt x="217" y="924" on="0"/>
        <pt x="149" y="856" on="0"/>
        <pt x="105" y="856" on="1"/>
        <pt x="60" y="856" on="0"/>
        <pt x="-8" y="923" on="0"/>
      </contour>
      <contour>
        <pt x="79" y="22" on="1"/>
        <pt x="79" y="710" on="1"/>
        <pt x="79" y="731" on="0"/>
        <pt x="129" y="731" on="0"/>
        <pt x="129" y="710" on="1"/>
        <pt x="129" y="22" on="1"/>
        <pt x="129" y="0" on="0"/>
        <pt x="79" y="0" on="0"/>
      </contour>
    </TTGlyph>
    <TTGlyph name="Icircumflex" xMin="-27" yMin="0" xMax="237" yMax="954">
      <contour>
        <pt x="-27" y="876" on="1"/>
        <pt x="-27" y="888" on="0"/>
        <pt x="-16" y="893" on="1"/>
        <pt x="88" y="949" on="1"/>
        <pt x="96" y="954" on="0"/>
        <pt x="114" y="954" on="0"/>
        <pt x="122" y="949" on="1"/>
        <pt x="226" y="894" on="1"/>
        <pt x="237" y="888" on="0"/>
        <pt x="237" y="874" on="1"/>
        <pt x="237" y="866" on="0"/>
        <pt x="226" y="854" on="0"/>
        <pt x="218" y="854" on="1"/>
        <pt x="209" y="857" on="1"/>
        <pt x="105" y="912" on="1"/>
        <pt x="1" y="856" on="1"/>
        <pt x="0" y="856" on="0"/>
        <pt x="-6" y="853" on="0"/>
        <pt x="-7" y="853" on="1"/>
        <pt x="-15" y="853" on="0"/>
        <pt x="-27" y="866" on="0"/>
      </contour>
      <contour>
        <pt x="79" y="22" on="1"/>
        <pt x="79" y="710" on="1"/>
        <pt x="79" y="731" on="0"/>
        <pt x="129" y="731" on="0"/>
        <pt x="129" y="710" on="1"/>
        <pt x="129" y="22" on="1"/>
        <pt x="129" y="0" on="0"/>
        <pt x="79" y="0" on="0"/>
      </contour>
    </TTGlyph>
    <TTGlyph name="Idieresis" xMin="13" yMin="0" xMax="195" yMax="919">
      <contour>
        <pt x="13" y="873" on="0"/>
        <pt x="13" y="901" on="0"/>
        <pt x="32" y="919" on="0"/>
        <pt x="60" y="919" on="0"/>
        <pt x="78" y="901" on="0"/>
        <pt x="78" y="873" on="0"/>
        <pt x="60" y="854" on="0"/>
        <pt x="32" y="854" on="0"/>
      </contour>
      <contour>
        <pt x="79" y="22" on="1"/>
        <pt x="79" y="710" on="1"/>
        <pt x="79" y="731" on="0"/>
        <pt x="129" y="731" on="0"/>
        <pt x="129" y="710" on="1"/>
        <pt x="129" y="22" on="1"/>
        <pt x="129" y="0" on="0"/>
        <pt x="79" y="0" on="0"/>
      </contour>
      <contour>
        <pt x="130" y="873" on="0"/>
        <pt x="130" y="901" on="0"/>
        <pt x="148" y="919" on="0"/>
        <pt x="163" y="919" on="1"/>
        <pt x="177" y="919" on="0"/>
        <pt x="195" y="901" on="0"/>
        <pt x="195" y="873" on="0"/>
        <pt x="177" y="854" on="0"/>
        <pt x="163" y="854" on="1"/>
        <pt x="148" y="854" on="0"/>
      </contour>
    </TTGlyph>
    <TTGlyph name="Idotaccent" xMin="71" yMin="0" xMax="137" yMax="919">
      <contour>
        <pt x="71" y="873" on="0"/>
        <pt x="71" y="901" on="0"/>
        <pt x="90" y="919" on="0"/>
        <pt x="118" y="919" on="0"/>
        <pt x="137" y="901" on="0"/>
        <pt x="137" y="873" on="0"/>
        <pt x="118" y="854" on="0"/>
        <pt x="90" y="854" on="0"/>
      </contour>
      <contour>
        <pt x="79" y="22" on="1"/>
        <pt x="79" y="710" on="1"/>
        <pt x="79" y="731" on="0"/>
        <pt x="129" y="731" on="0"/>
        <pt x="129" y="710" on="1"/>
        <pt x="129" y="22" on="1"/>
        <pt x="129" y="0" on="0"/>
        <pt x="79" y="0" on="0"/>
      </contour>
    </TTGlyph>
    <TTGlyph name="Igrave" xMin="31" yMin="0" xMax="174" yMax="954">
      <contour>
        <pt x="31" y="931" on="1"/>
        <pt x="31" y="940" on="0"/>
        <pt x="42" y="954" on="0"/>
        <pt x="51" y="954" on="1"/>
        <pt x="54" y="954" on="0"/>
        <pt x="58" y="952" on="1"/>
        <pt x="165" y="891" on="1"/>
        <pt x="174" y="887" on="0"/>
        <pt x="174" y="876" on="1"/>
        <pt x="174" y="867" on="0"/>
        <pt x="161" y="853" on="0"/>
        <pt x="152" y="853" on="1"/>
        <pt x="148" y="853" on="0"/>
        <pt x="142" y="856" on="1"/>
        <pt x="42" y="911" on="1"/>
        <pt x="31" y="918" on="0"/>
      </contour>
      <contour>
        <pt x="79" y="22" on="1"/>
        <pt x="79" y="710" on="1"/>
        <pt x="79" y="731" on="0"/>
        <pt x="129" y="731" on="0"/>
        <pt x="129" y="710" on="1"/>
        <pt x="129" y="22" on="1"/>
        <pt x="129" y="0" on="0"/>
        <pt x="79" y="0" on="0"/>
      </contour>
    </TTGlyph>
    <TTGlyph name="Imacron" xMin="-25" yMin="0" xMax="235" yMax="941">
      <contour>
        <pt x="-25" y="919" on="1"/>
        <pt x="-25" y="941" on="0"/>
        <pt x="-4" y="941" on="1"/>
        <pt x="213" y="941" on="1"/>
        <pt x="221" y="941" on="0"/>
        <pt x="235" y="928" on="0"/>
        <pt x="235" y="910" on="0"/>
        <pt x="222" y="899" on="0"/>
        <pt x="213" y="899" on="1"/>
        <pt x="-4" y="899" on="1"/>
        <pt x="-25" y="899" on="0"/>
      </contour>
      <contour>
        <pt x="79" y="22" on="1"/>
        <pt x="79" y="710" on="1"/>
        <pt x="79" y="731" on="0"/>
        <pt x="129" y="731" on="0"/>
        <pt x="129" y="710" on="1"/>
        <pt x="129" y="22" on="1"/>
        <pt x="129" y="0" on="0"/>
        <pt x="79" y="0" on="0"/>
      </contour>
    </TTGlyph>
    <TTGlyph name="Iogonek" xMin="16" yMin="-194" xMax="131" yMax="731">
      <contour>
        <pt x="16" y="-123" on="1"/>
        <pt x="16" y="-51" on="0"/>
        <pt x="82" y="12" on="1"/>
        <pt x="80" y="15" on="0"/>
        <pt x="80" y="22" on="1"/>
        <pt x="80" y="710" on="1"/>
        <pt x="80" y="731" on="0"/>
        <pt x="130" y="731" on="0"/>
        <pt x="130" y="710" on="1"/>
        <pt x="130" y="22" on="1"/>
        <pt x="130" y="8" on="0"/>
        <pt x="118" y="3" on="1"/>
        <pt x="50" y="-60" on="0"/>
        <pt x="50" y="-120" on="1"/>
        <pt x="50" y="-163" on="0"/>
        <pt x="113" y="-163" on="1"/>
        <pt x="131" y="-163" on="0"/>
        <pt x="131" y="-179" on="1"/>
        <pt x="131" y="-194" on="0"/>
        <pt x="107" y="-194" on="1"/>
        <pt x="70" y="-194" on="0"/>
        <pt x="16" y="-160" on="0"/>
      </contour>
    </TTGlyph>
    <TTGlyph name="Itilde" xMin="-46" yMin="0" xMax="256" yMax="949">
      <contour>
        <pt x="-46" y="895" on="1"/>
        <pt x="-46" y="917" on="0"/>
        <pt x="15" y="949" on="0"/>
        <pt x="43" y="949" on="1"/>
        <pt x="68" y="949" on="0"/>
        <pt x="146" y="913" on="0"/>
        <pt x="198" y="913" on="0"/>
        <pt x="234" y="944" on="0"/>
        <pt x="239" y="944" on="1"/>
        <pt x="246" y="944" on="0"/>
        <pt x="256" y="932" on="0"/>
        <pt x="256" y="925" on="1"/>
        <pt x="256" y="901" on="0"/>
        <pt x="199" y="871" on="0"/>
        <pt x="172" y="871" on="1"/>
        <pt x="147" y="871" on="0"/>
        <pt x="69" y="907" on="0"/>
        <pt x="41" y="907" on="1"/>
        <pt x="16" y="907" on="0"/>
        <pt x="-26" y="874" on="0"/>
        <pt x="-30" y="874" on="1"/>
        <pt x="-46" y="874" on="0"/>
      </contour>
      <contour>
        <pt x="79" y="22" on="1"/>
        <pt x="79" y="710" on="1"/>
        <pt x="79" y="731" on="0"/>
        <pt x="129" y="731" on="0"/>
        <pt x="129" y="710" on="1"/>
        <pt x="129" y="22" on="1"/>
        <pt x="129" y="0" on="0"/>
        <pt x="79" y="0" on="0"/>
      </contour>
    </TTGlyph>
    <TTGlyph name="J" xMin="24" yMin="-6" xMax="427" yMax="731">
      <contour>
        <pt x="24" y="164" on="1"/>
        <pt x="24" y="190" on="0"/>
        <pt x="74" y="190" on="0"/>
        <pt x="74" y="169" on="1"/>
        <pt x="75" y="108" on="0"/>
        <pt x="159" y="42" on="0"/>
        <pt x="226" y="42" on="1"/>
        <pt x="377" y="42" on="0"/>
        <pt x="377" y="204" on="1"/>
        <pt x="377" y="683" on="1"/>
        <pt x="227" y="683" on="1"/>
        <pt x="206" y="683" on="0"/>
        <pt x="206" y="708" on="1"/>
        <pt x="206" y="731" on="0"/>
        <pt x="227" y="731" on="1"/>
        <pt x="403" y="731" on="1"/>
        <pt x="427" y="731" on="0"/>
        <pt x="427" y="709" on="1"/>
        <pt x="427" y="204" on="1"/>
        <pt x="427" y="95" on="0"/>
        <pt x="318" y="-6" on="0"/>
        <pt x="227" y="-6" on="1"/>
        <pt x="135" y="-6" on="0"/>
        <pt x="24" y="90" on="0"/>
      </contour>
    </TTGlyph>
    <TTGlyph name="Jcircumflex" xMin="24" yMin="-6" xMax="427" yMax="954">
      <contour>
        <pt x="24" y="164" on="1"/>
        <pt x="24" y="190" on="0"/>
        <pt x="74" y="190" on="0"/>
        <pt x="74" y="169" on="1"/>
        <pt x="75" y="108" on="0"/>
        <pt x="159" y="42" on="0"/>
        <pt x="226" y="42" on="1"/>
        <pt x="377" y="42" on="0"/>
        <pt x="377" y="204" on="1"/>
        <pt x="377" y="683" on="1"/>
        <pt x="227" y="683" on="1"/>
        <pt x="206" y="683" on="0"/>
        <pt x="206" y="708" on="1"/>
        <pt x="206" y="731" on="0"/>
        <pt x="227" y="731" on="1"/>
        <pt x="403" y="731" on="1"/>
        <pt x="427" y="731" on="0"/>
        <pt x="427" y="709" on="1"/>
        <pt x="427" y="204" on="1"/>
        <pt x="427" y="95" on="0"/>
        <pt x="318" y="-6" on="0"/>
        <pt x="227" y="-6" on="1"/>
        <pt x="135" y="-6" on="0"/>
        <pt x="24" y="90" on="0"/>
      </contour>
      <contour>
        <pt x="120" y="876" on="1"/>
        <pt x="120" y="888" on="0"/>
        <pt x="131" y="893" on="1"/>
        <pt x="235" y="949" on="1"/>
        <pt x="243" y="954" on="0"/>
        <pt x="261" y="954" on="0"/>
        <pt x="269" y="949" on="1"/>
        <pt x="373" y="894" on="1"/>
        <pt x="384" y="888" on="0"/>
        <pt x="384" y="874" on="1"/>
        <pt x="384" y="866" on="0"/>
        <pt x="373" y="854" on="0"/>
        <pt x="365" y="854" on="1"/>
        <pt x="356" y="857" on="1"/>
        <pt x="252" y="912" on="1"/>
        <pt x="148" y="856" on="1"/>
        <pt x="147" y="856" on="0"/>
        <pt x="141" y="853" on="0"/>
        <pt x="140" y="853" on="1"/>
        <pt x="132" y="853" on="0"/>
        <pt x="120" y="866" on="0"/>
      </contour>
    </TTGlyph>
    <TTGlyph name="K" xMin="79" yMin="-1" xMax="508" yMax="731">
      <contour>
        <pt x="79" y="22" on="1"/>
        <pt x="79" y="710" on="1"/>
        <pt x="79" y="731" on="0"/>
        <pt x="129" y="731" on="0"/>
        <pt x="129" y="710" on="1"/>
        <pt x="129" y="336" on="1"/>
        <pt x="436" y="723" on="1"/>
        <pt x="441" y="731" on="0"/>
        <pt x="453" y="731" on="1"/>
        <pt x="463" y="731" on="0"/>
        <pt x="480" y="715" on="0"/>
        <pt x="480" y="705" on="1"/>
        <pt x="480" y="697" on="0"/>
        <pt x="475" y="693" on="1"/>
        <pt x="252" y="415" on="1"/>
        <pt x="504" y="35" on="1"/>
        <pt x="508" y="31" on="0"/>
        <pt x="508" y="24" on="1"/>
        <pt x="508" y="14" on="0"/>
        <pt x="491" y="-1" on="0"/>
        <pt x="480" y="-1" on="1"/>
        <pt x="468" y="-1" on="0"/>
        <pt x="461" y="11" on="1"/>
        <pt x="219" y="373" on="1"/>
        <pt x="129" y="261" on="1"/>
        <pt x="129" y="22" on="1"/>
        <pt x="129" y="0" on="0"/>
        <pt x="79" y="0" on="0"/>
      </contour>
    </TTGlyph>
    <TTGlyph name="Kcommaaccent" xMin="79" yMin="-149" xMax="508" yMax="731">
      <contour>
        <pt x="79" y="22" on="1"/>
        <pt x="79" y="710" on="1"/>
        <pt x="79" y="731" on="0"/>
        <pt x="129" y="731" on="0"/>
        <pt x="129" y="710" on="1"/>
        <pt x="129" y="336" on="1"/>
        <pt x="436" y="723" on="1"/>
        <pt x="441" y="731" on="0"/>
        <pt x="453" y="731" on="1"/>
        <pt x="463" y="731" on="0"/>
        <pt x="480" y="715" on="0"/>
        <pt x="480" y="705" on="1"/>
        <pt x="480" y="697" on="0"/>
        <pt x="475" y="693" on="1"/>
        <pt x="252" y="415" on="1"/>
        <pt x="504" y="35" on="1"/>
        <pt x="508" y="31" on="0"/>
        <pt x="508" y="24" on="1"/>
        <pt x="508" y="14" on="0"/>
        <pt x="491" y="-1" on="0"/>
        <pt x="480" y="-1" on="1"/>
        <pt x="468" y="-1" on="0"/>
        <pt x="461" y="11" on="1"/>
        <pt x="219" y="373" on="1"/>
        <pt x="129" y="261" on="1"/>
        <pt x="129" y="22" on="1"/>
        <pt x="129" y="0" on="0"/>
        <pt x="79" y="0" on="0"/>
      </contour>
      <contour>
        <pt x="185" y="-126" on="1"/>
        <pt x="185" y="-115" on="0"/>
        <pt x="195" y="-111" on="1"/>
        <pt x="301" y="-50" on="1"/>
        <pt x="307" y="-48" on="0"/>
        <pt x="309" y="-48" on="1"/>
        <pt x="318" y="-48" on="0"/>
        <pt x="329" y="-62" on="0"/>
        <pt x="329" y="-71" on="1"/>
        <pt x="329" y="-84" on="0"/>
        <pt x="317" y="-91" on="1"/>
        <pt x="217" y="-146" on="1"/>
        <pt x="212" y="-149" on="0"/>
        <pt x="208" y="-149" on="1"/>
        <pt x="199" y="-149" on="0"/>
        <pt x="185" y="-135" on="0"/>
      </contour>
    </TTGlyph>
    <TTGlyph name="L" xMin="79" yMin="0" xMax="443" yMax="731">
      <contour>
        <pt x="79" y="22" on="1"/>
        <pt x="79" y="710" on="1"/>
        <pt x="79" y="731" on="0"/>
        <pt x="129" y="731" on="0"/>
        <pt x="129" y="710" on="1"/>
        <pt x="129" y="48" on="1"/>
        <pt x="424" y="48" on="1"/>
        <pt x="443" y="48" on="0"/>
        <pt x="443" y="0" on="0"/>
        <pt x="424" y="0" on="1"/>
        <pt x="103" y="0" on="1"/>
        <pt x="79" y="0" on="0"/>
      </contour>
    </TTGlyph>
    <TTGlyph name="Lacute" xMin="79" yMin="0" xMax="443" yMax="954">
      <contour>
        <pt x="79" y="22" on="1"/>
        <pt x="79" y="710" on="1"/>
        <pt x="79" y="731" on="0"/>
        <pt x="129" y="731" on="0"/>
        <pt x="129" y="710" on="1"/>
        <pt x="129" y="48" on="1"/>
        <pt x="424" y="48" on="1"/>
        <pt x="443" y="48" on="0"/>
        <pt x="443" y="0" on="0"/>
        <pt x="424" y="0" on="1"/>
        <pt x="103" y="0" on="1"/>
        <pt x="79" y="0" on="0"/>
      </contour>
      <contour>
        <pt x="188" y="876" on="1"/>
        <pt x="188" y="887" on="0"/>
        <pt x="197" y="891" on="1"/>
        <pt x="304" y="952" on="1"/>
        <pt x="308" y="954" on="0"/>
        <pt x="312" y="954" on="1"/>
        <pt x="321" y="954" on="0"/>
        <pt x="331" y="940" on="0"/>
        <pt x="331" y="931" on="1"/>
        <pt x="331" y="918" on="0"/>
        <pt x="320" y="911" on="1"/>
        <pt x="220" y="856" on="1"/>
        <pt x="216" y="853" on="0"/>
        <pt x="210" y="853" on="1"/>
        <pt x="201" y="853" on="0"/>
        <pt x="188" y="867" on="0"/>
      </contour>
    </TTGlyph>
    <TTGlyph name="Lcaron" xMin="79" yMin="0" xMax="443" yMax="741">
      <contour>
        <pt x="79" y="22" on="1"/>
        <pt x="79" y="710" on="1"/>
        <pt x="79" y="731" on="0"/>
        <pt x="129" y="731" on="0"/>
        <pt x="129" y="710" on="1"/>
        <pt x="129" y="48" on="1"/>
        <pt x="424" y="48" on="1"/>
        <pt x="443" y="48" on="0"/>
        <pt x="443" y="0" on="0"/>
        <pt x="424" y="0" on="1"/>
        <pt x="103" y="0" on="1"/>
        <pt x="79" y="0" on="0"/>
      </contour>
      <contour>
        <pt x="291" y="700" on="1"/>
        <pt x="291" y="717" on="0"/>
        <pt x="314" y="741" on="0"/>
        <pt x="332" y="741" on="1"/>
        <pt x="348" y="741" on="0"/>
        <pt x="372" y="717" on="0"/>
        <pt x="372" y="700" on="1"/>
        <pt x="372" y="674" on="0"/>
        <pt x="335" y="596" on="1"/>
        <pt x="330" y="585" on="0"/>
        <pt x="319" y="585" on="1"/>
        <pt x="312" y="585" on="0"/>
        <pt x="299" y="595" on="0"/>
        <pt x="299" y="603" on="1"/>
        <pt x="299" y="608" on="0"/>
        <pt x="301" y="610" on="1"/>
        <pt x="320" y="661" on="1"/>
        <pt x="291" y="671" on="0"/>
      </contour>
    </TTGlyph>
    <TTGlyph name="Lcommaaccent" xMin="79" yMin="-149" xMax="443" yMax="731">
      <contour>
        <pt x="79" y="22" on="1"/>
        <pt x="79" y="710" on="1"/>
        <pt x="79" y="731" on="0"/>
        <pt x="129" y="731" on="0"/>
        <pt x="129" y="710" on="1"/>
        <pt x="129" y="48" on="1"/>
        <pt x="424" y="48" on="1"/>
        <pt x="443" y="48" on="0"/>
        <pt x="443" y="0" on="0"/>
        <pt x="424" y="0" on="1"/>
        <pt x="103" y="0" on="1"/>
        <pt x="79" y="0" on="0"/>
      </contour>
      <contour>
        <pt x="181" y="-126" on="1"/>
        <pt x="181" y="-115" on="0"/>
        <pt x="191" y="-111" on="1"/>
        <pt x="297" y="-50" on="1"/>
        <pt x="303" y="-48" on="0"/>
        <pt x="305" y="-48" on="1"/>
        <pt x="314" y="-48" on="0"/>
        <pt x="325" y="-62" on="0"/>
        <pt x="325" y="-71" on="1"/>
        <pt x="325" y="-84" on="0"/>
        <pt x="313" y="-91" on="1"/>
        <pt x="213" y="-146" on="1"/>
        <pt x="208" y="-149" on="0"/>
        <pt x="204" y="-149" on="1"/>
        <pt x="195" y="-149" on="0"/>
        <pt x="181" y="-135" on="0"/>
      </contour>
    </TTGlyph>
    <TTGlyph name="Ldot" xMin="79" yMin="0" xMax="443" yMax="731">
      <contour>
        <pt x="79" y="22" on="1"/>
        <pt x="79" y="710" on="1"/>
        <pt x="79" y="731" on="0"/>
        <pt x="129" y="731" on="0"/>
        <pt x="129" y="710" on="1"/>
        <pt x="129" y="48" on="1"/>
        <pt x="424" y="48" on="1"/>
        <pt x="443" y="48" on="0"/>
        <pt x="443" y="0" on="0"/>
        <pt x="424" y="0" on="1"/>
        <pt x="103" y="0" on="1"/>
        <pt x="79" y="0" on="0"/>
      </contour>
      <contour>
        <pt x="288" y="421" on="1"/>
        <pt x="288" y="438" on="0"/>
        <pt x="311" y="461" on="0"/>
        <pt x="329" y="461" on="1"/>
        <pt x="346" y="461" on="0"/>
        <pt x="369" y="438" on="0"/>
        <pt x="369" y="421" on="1"/>
        <pt x="369" y="405" on="0"/>
        <pt x="345" y="381" on="0"/>
        <pt x="329" y="381" on="1"/>
        <pt x="311" y="381" on="0"/>
        <pt x="288" y="405" on="0"/>
      </contour>
    </TTGlyph>
    <TTGlyph name="Lslash" xMin="4" yMin="0" xMax="449" yMax="731">
      <contour>
        <pt x="4" y="290" on="1"/>
        <pt x="4" y="302" on="0"/>
        <pt x="14" y="306" on="1"/>
        <pt x="85" y="346" on="1"/>
        <pt x="85" y="710" on="1"/>
        <pt x="85" y="731" on="0"/>
        <pt x="135" y="731" on="0"/>
        <pt x="135" y="710" on="1"/>
        <pt x="135" y="374" on="1"/>
        <pt x="242" y="435" on="1"/>
        <pt x="245" y="437" on="0"/>
        <pt x="251" y="437" on="1"/>
        <pt x="260" y="437" on="0"/>
        <pt x="273" y="423" on="0"/>
        <pt x="273" y="414" on="1"/>
        <pt x="273" y="403" on="0"/>
        <pt x="263" y="396" on="1"/>
        <pt x="135" y="324" on="1"/>
        <pt x="135" y="48" on="1"/>
        <pt x="430" y="48" on="1"/>
        <pt x="449" y="48" on="0"/>
        <pt x="449" y="0" on="0"/>
        <pt x="430" y="0" on="1"/>
        <pt x="109" y="0" on="1"/>
        <pt x="85" y="0" on="0"/>
        <pt x="85" y="22" on="1"/>
        <pt x="85" y="296" on="1"/>
        <pt x="34" y="268" on="1"/>
        <pt x="30" y="265" on="0"/>
        <pt x="25" y="265" on="1"/>
        <pt x="17" y="265" on="0"/>
        <pt x="4" y="280" on="0"/>
      </contour>
    </TTGlyph>
    <TTGlyph name="M" xMin="79" yMin="0" xMax="580" yMax="731">
      <contour>
        <pt x="79" y="22" on="1"/>
        <pt x="79" y="707" on="1"/>
        <pt x="79" y="731" on="0"/>
        <pt x="104" y="731" on="1"/>
        <pt x="124" y="731" on="0"/>
        <pt x="146" y="690" on="1"/>
        <pt x="329" y="332" on="1"/>
        <pt x="513" y="690" on="1"/>
        <pt x="535" y="731" on="0"/>
        <pt x="555" y="731" on="1"/>
        <pt x="580" y="731" on="0"/>
        <pt x="580" y="707" on="1"/>
        <pt x="580" y="22" on="1"/>
        <pt x="580" y="0" on="0"/>
        <pt x="530" y="0" on="0"/>
        <pt x="530" y="22" on="1"/>
        <pt x="530" y="617" on="1"/>
        <pt x="352" y="277" on="1"/>
        <pt x="340" y="256" on="0"/>
        <pt x="329" y="256" on="1"/>
        <pt x="316" y="256" on="0"/>
        <pt x="306" y="277" on="1"/>
        <pt x="129" y="618" on="1"/>
        <pt x="129" y="22" on="1"/>
        <pt x="129" y="0" on="0"/>
        <pt x="79" y="0" on="0"/>
      </contour>
    </TTGlyph>
    <TTGlyph name="N" xMin="79" yMin="0" xMax="484" yMax="731">
      <contour>
        <pt x="79" y="22" on="1"/>
        <pt x="79" y="710" on="1"/>
        <pt x="79" y="731" on="0"/>
        <pt x="104" y="731" on="1"/>
        <pt x="123" y="731" on="0"/>
        <pt x="145" y="690" on="1"/>
        <pt x="434" y="119" on="1"/>
        <pt x="434" y="710" on="1"/>
        <pt x="434" y="731" on="0"/>
        <pt x="484" y="731" on="0"/>
        <pt x="484" y="710" on="1"/>
        <pt x="484" y="22" on="1"/>
        <pt x="484" y="0" on="0"/>
        <pt x="459" y="0" on="1"/>
        <pt x="443" y="0" on="0"/>
        <pt x="423" y="37" on="1"/>
        <pt x="129" y="613" on="1"/>
        <pt x="129" y="22" on="1"/>
        <pt x="129" y="0" on="0"/>
        <pt x="79" y="0" on="0"/>
      </contour>
    </TTGlyph>
    <TTGlyph name="Nacute" xMin="79" yMin="0" xMax="484" yMax="954">
      <contour>
        <pt x="79" y="22" on="1"/>
        <pt x="79" y="710" on="1"/>
        <pt x="79" y="731" on="0"/>
        <pt x="104" y="731" on="1"/>
        <pt x="123" y="731" on="0"/>
        <pt x="145" y="690" on="1"/>
        <pt x="434" y="119" on="1"/>
        <pt x="434" y="710" on="1"/>
        <pt x="434" y="731" on="0"/>
        <pt x="484" y="731" on="0"/>
        <pt x="484" y="710" on="1"/>
        <pt x="484" y="22" on="1"/>
        <pt x="484" y="0" on="0"/>
        <pt x="459" y="0" on="1"/>
        <pt x="443" y="0" on="0"/>
        <pt x="423" y="37" on="1"/>
        <pt x="129" y="613" on="1"/>
        <pt x="129" y="22" on="1"/>
        <pt x="129" y="0" on="0"/>
        <pt x="79" y="0" on="0"/>
      </contour>
      <contour>
        <pt x="208" y="876" on="1"/>
        <pt x="208" y="887" on="0"/>
        <pt x="217" y="891" on="1"/>
        <pt x="324" y="952" on="1"/>
        <pt x="328" y="954" on="0"/>
        <pt x="332" y="954" on="1"/>
        <pt x="341" y="954" on="0"/>
        <pt x="351" y="940" on="0"/>
        <pt x="351" y="931" on="1"/>
        <pt x="351" y="918" on="0"/>
        <pt x="340" y="911" on="1"/>
        <pt x="240" y="856" on="1"/>
        <pt x="236" y="853" on="0"/>
        <pt x="230" y="853" on="1"/>
        <pt x="221" y="853" on="0"/>
        <pt x="208" y="867" on="0"/>
      </contour>
    </TTGlyph>
    <TTGlyph name="Ncaron" xMin="79" yMin="0" xMax="484" yMax="988">
      <contour>
        <pt x="79" y="22" on="1"/>
        <pt x="79" y="710" on="1"/>
        <pt x="79" y="731" on="0"/>
        <pt x="104" y="731" on="1"/>
        <pt x="123" y="731" on="0"/>
        <pt x="145" y="690" on="1"/>
        <pt x="434" y="119" on="1"/>
        <pt x="434" y="710" on="1"/>
        <pt x="434" y="731" on="0"/>
        <pt x="484" y="731" on="0"/>
        <pt x="484" y="710" on="1"/>
        <pt x="484" y="22" on="1"/>
        <pt x="484" y="0" on="0"/>
        <pt x="459" y="0" on="1"/>
        <pt x="443" y="0" on="0"/>
        <pt x="423" y="37" on="1"/>
        <pt x="129" y="613" on="1"/>
        <pt x="129" y="22" on="1"/>
        <pt x="129" y="0" on="0"/>
        <pt x="79" y="0" on="0"/>
      </contour>
      <contour>
        <pt x="150" y="969" on="1"/>
        <pt x="150" y="976" on="0"/>
        <pt x="160" y="988" on="0"/>
        <pt x="167" y="988" on="1"/>
        <pt x="175" y="988" on="0"/>
        <pt x="182" y="981" on="1"/>
        <pt x="281" y="883" on="1"/>
        <pt x="379" y="981" on="1"/>
        <pt x="386" y="988" on="0"/>
        <pt x="395" y="988" on="1"/>
        <pt x="402" y="988" on="0"/>
        <pt x="412" y="976" on="0"/>
        <pt x="412" y="962" on="0"/>
        <pt x="402" y="950" on="1"/>
        <pt x="301" y="854" on="1"/>
        <pt x="289" y="844" on="0"/>
        <pt x="281" y="844" on="1"/>
        <pt x="270" y="844" on="0"/>
        <pt x="260" y="854" on="1"/>
        <pt x="160" y="950" on="1"/>
        <pt x="150" y="960" on="0"/>
      </contour>
    </TTGlyph>
    <TTGlyph name="Ncommaaccent" xMin="79" yMin="-149" xMax="484" yMax="731">
      <contour>
        <pt x="79" y="22" on="1"/>
        <pt x="79" y="710" on="1"/>
        <pt x="79" y="731" on="0"/>
        <pt x="104" y="731" on="1"/>
        <pt x="123" y="731" on="0"/>
        <pt x="145" y="690" on="1"/>
        <pt x="434" y="119" on="1"/>
        <pt x="434" y="710" on="1"/>
        <pt x="434" y="731" on="0"/>
        <pt x="484" y="731" on="0"/>
        <pt x="484" y="710" on="1"/>
        <pt x="484" y="22" on="1"/>
        <pt x="484" y="0" on="0"/>
        <pt x="459" y="0" on="1"/>
        <pt x="443" y="0" on="0"/>
        <pt x="423" y="37" on="1"/>
        <pt x="129" y="613" on="1"/>
        <pt x="129" y="22" on="1"/>
        <pt x="129" y="0" on="0"/>
        <pt x="79" y="0" on="0"/>
      </contour>
      <contour>
        <pt x="207" y="-126" on="1"/>
        <pt x="207" y="-115" on="0"/>
        <pt x="217" y="-111" on="1"/>
        <pt x="323" y="-50" on="1"/>
        <pt x="329" y="-48" on="0"/>
        <pt x="331" y="-48" on="1"/>
        <pt x="340" y="-48" on="0"/>
        <pt x="351" y="-62" on="0"/>
        <pt x="351" y="-71" on="1"/>
        <pt x="351" y="-84" on="0"/>
        <pt x="339" y="-91" on="1"/>
        <pt x="239" y="-146" on="1"/>
        <pt x="234" y="-149" on="0"/>
        <pt x="230" y="-149" on="1"/>
        <pt x="221" y="-149" on="0"/>
        <pt x="207" y="-135" on="0"/>
      </contour>
    </TTGlyph>
    <TTGlyph name="Ntilde" xMin="79" yMin="0" xMax="484" yMax="949">
      <contour>
        <pt x="79" y="22" on="1"/>
        <pt x="79" y="710" on="1"/>
        <pt x="79" y="731" on="0"/>
        <pt x="104" y="731" on="1"/>
        <pt x="123" y="731" on="0"/>
        <pt x="145" y="690" on="1"/>
        <pt x="434" y="119" on="1"/>
        <pt x="434" y="710" on="1"/>
        <pt x="434" y="731" on="0"/>
        <pt x="484" y="731" on="0"/>
        <pt x="484" y="710" on="1"/>
        <pt x="484" y="22" on="1"/>
        <pt x="484" y="0" on="0"/>
        <pt x="459" y="0" on="1"/>
        <pt x="443" y="0" on="0"/>
        <pt x="423" y="37" on="1"/>
        <pt x="129" y="613" on="1"/>
        <pt x="129" y="22" on="1"/>
        <pt x="129" y="0" on="0"/>
        <pt x="79" y="0" on="0"/>
      </contour>
      <contour>
        <pt x="130" y="895" on="1"/>
        <pt x="130" y="917" on="0"/>
        <pt x="191" y="949" on="0"/>
        <pt x="219" y="949" on="1"/>
        <pt x="244" y="949" on="0"/>
        <pt x="322" y="913" on="0"/>
        <pt x="374" y="913" on="0"/>
        <pt x="410" y="944" on="0"/>
        <pt x="415" y="944" on="1"/>
        <pt x="422" y="944" on="0"/>
        <pt x="432" y="932" on="0"/>
        <pt x="432" y="925" on="1"/>
        <pt x="432" y="901" on="0"/>
        <pt x="375" y="871" on="0"/>
        <pt x="348" y="871" on="1"/>
        <pt x="323" y="871" on="0"/>
        <pt x="245" y="907" on="0"/>
        <pt x="217" y="907" on="1"/>
        <pt x="192" y="907" on="0"/>
        <pt x="150" y="874" on="0"/>
        <pt x="146" y="874" on="1"/>
        <pt x="130" y="874" on="0"/>
      </contour>
    </TTGlyph>
    <TTGlyph name="O" xMin="72" yMin="-6" xMax="475" yMax="731">
      <contour>
        <pt x="72" y="204" on="1"/>
        <pt x="72" y="521" on="1"/>
        <pt x="72" y="630" on="0"/>
        <pt x="181" y="731" on="0"/>
        <pt x="273" y="731" on="1"/>
        <pt x="364" y="731" on="0"/>
        <pt x="475" y="630" on="0"/>
        <pt x="475" y="521" on="1"/>
        <pt x="475" y="204" on="1"/>
        <pt x="475" y="95" on="0"/>
        <pt x="364" y="-6" on="0"/>
        <pt x="273" y="-6" on="1"/>
        <pt x="181" y="-6" on="0"/>
        <pt x="72" y="95" on="0"/>
      </contour>
      <contour>
        <pt x="122" y="204" on="1"/>
        <pt x="122" y="42" on="0"/>
        <pt x="273" y="42" on="1"/>
        <pt x="346" y="42" on="0"/>
        <pt x="425" y="123" on="0"/>
        <pt x="425" y="204" on="1"/>
        <pt x="425" y="521" on="1"/>
        <pt x="425" y="602" on="0"/>
        <pt x="346" y="683" on="0"/>
        <pt x="273" y="683" on="1"/>
        <pt x="122" y="683" on="0"/>
        <pt x="122" y="521" on="1"/>
      </contour>
    </TTGlyph>
    <TTGlyph name="OE" xMin="72" yMin="-6" xMax="819" yMax="731">
      <contour>
        <pt x="72" y="204" on="1"/>
        <pt x="72" y="521" on="1"/>
        <pt x="72" y="630" on="0"/>
        <pt x="179" y="731" on="0"/>
        <pt x="269" y="731" on="1"/>
        <pt x="380" y="731" on="0"/>
        <pt x="428" y="659" on="1"/>
        <pt x="428" y="709" on="1"/>
        <pt x="428" y="731" on="0"/>
        <pt x="452" y="731" on="1"/>
        <pt x="799" y="731" on="1"/>
        <pt x="819" y="731" on="0"/>
        <pt x="819" y="708" on="1"/>
        <pt x="819" y="683" on="0"/>
        <pt x="799" y="683" on="1"/>
        <pt x="474" y="683" on="1"/>
        <pt x="474" y="389" on="1"/>
        <pt x="628" y="389" on="1"/>
        <pt x="648" y="389" on="0"/>
        <pt x="648" y="365" on="1"/>
        <pt x="648" y="343" on="0"/>
        <pt x="628" y="343" on="1"/>
        <pt x="474" y="343" on="1"/>
        <pt x="474" y="48" on="1"/>
        <pt x="799" y="48" on="1"/>
        <pt x="819" y="48" on="0"/>
        <pt x="819" y="23" on="1"/>
        <pt x="819" y="0" on="0"/>
        <pt x="799" y="0" on="1"/>
        <pt x="452" y="0" on="1"/>
        <pt x="428" y="0" on="0"/>
        <pt x="428" y="22" on="1"/>
        <pt x="428" y="66" on="1"/>
        <pt x="380" y="-6" on="0"/>
        <pt x="269" y="-6" on="1"/>
        <pt x="179" y="-6" on="0"/>
        <pt x="72" y="95" on="0"/>
      </contour>
      <contour>
        <pt x="122" y="204" on="1"/>
        <pt x="122" y="42" on="0"/>
        <pt x="273" y="42" on="1"/>
        <pt x="346" y="42" on="0"/>
        <pt x="425" y="123" on="0"/>
        <pt x="425" y="204" on="1"/>
        <pt x="425" y="521" on="1"/>
        <pt x="425" y="602" on="0"/>
        <pt x="346" y="683" on="0"/>
        <pt x="273" y="683" on="1"/>
        <pt x="122" y="683" on="0"/>
        <pt x="122" y="521" on="1"/>
      </contour>
    </TTGlyph>
    <TTGlyph name="Oacute" xMin="72" yMin="-6" xMax="475" yMax="954">
      <contour>
        <pt x="72" y="204" on="1"/>
        <pt x="72" y="521" on="1"/>
        <pt x="72" y="630" on="0"/>
        <pt x="181" y="731" on="0"/>
        <pt x="273" y="731" on="1"/>
        <pt x="364" y="731" on="0"/>
        <pt x="475" y="630" on="0"/>
        <pt x="475" y="521" on="1"/>
        <pt x="475" y="204" on="1"/>
        <pt x="475" y="95" on="0"/>
        <pt x="364" y="-6" on="0"/>
        <pt x="273" y="-6" on="1"/>
        <pt x="181" y="-6" on="0"/>
        <pt x="72" y="95" on="0"/>
      </contour>
      <contour>
        <pt x="122" y="204" on="1"/>
        <pt x="122" y="42" on="0"/>
        <pt x="273" y="42" on="1"/>
        <pt x="346" y="42" on="0"/>
        <pt x="425" y="123" on="0"/>
        <pt x="425" y="204" on="1"/>
        <pt x="425" y="521" on="1"/>
        <pt x="425" y="602" on="0"/>
        <pt x="346" y="683" on="0"/>
        <pt x="273" y="683" on="1"/>
        <pt x="122" y="683" on="0"/>
        <pt x="122" y="521" on="1"/>
      </contour>
      <contour>
        <pt x="207" y="876" on="1"/>
        <pt x="207" y="887" on="0"/>
        <pt x="216" y="891" on="1"/>
        <pt x="323" y="952" on="1"/>
        <pt x="327" y="954" on="0"/>
        <pt x="331" y="954" on="1"/>
        <pt x="340" y="954" on="0"/>
        <pt x="350" y="940" on="0"/>
        <pt x="350" y="931" on="1"/>
        <pt x="350" y="918" on="0"/>
        <pt x="339" y="911" on="1"/>
        <pt x="239" y="856" on="1"/>
        <pt x="234" y="853" on="0"/>
        <pt x="229" y="853" on="1"/>
        <pt x="220" y="853" on="0"/>
        <pt x="207" y="867" on="0"/>
      </contour>
    </TTGlyph>
    <TTGlyph name="Obreve" xMin="72" yMin="-6" xMax="475" yMax="969">
      <contour>
        <pt x="72" y="204" on="1"/>
        <pt x="72" y="521" on="1"/>
        <pt x="72" y="630" on="0"/>
        <pt x="181" y="731" on="0"/>
        <pt x="273" y="731" on="1"/>
        <pt x="364" y="731" on="0"/>
        <pt x="475" y="630" on="0"/>
        <pt x="475" y="521" on="1"/>
        <pt x="475" y="204" on="1"/>
        <pt x="475" y="95" on="0"/>
        <pt x="364" y="-6" on="0"/>
        <pt x="273" y="-6" on="1"/>
        <pt x="181" y="-6" on="0"/>
        <pt x="72" y="95" on="0"/>
      </contour>
      <contour>
        <pt x="122" y="204" on="1"/>
        <pt x="122" y="42" on="0"/>
        <pt x="273" y="42" on="1"/>
        <pt x="346" y="42" on="0"/>
        <pt x="425" y="123" on="0"/>
        <pt x="425" y="204" on="1"/>
        <pt x="425" y="521" on="1"/>
        <pt x="425" y="602" on="0"/>
        <pt x="346" y="683" on="0"/>
        <pt x="273" y="683" on="1"/>
        <pt x="122" y="683" on="0"/>
        <pt x="122" y="521" on="1"/>
      </contour>
      <contour>
        <pt x="160" y="969" on="1"/>
        <pt x="198" y="969" on="1"/>
        <pt x="198" y="935" on="0"/>
        <pt x="242" y="887" on="0"/>
        <pt x="273" y="887" on="1"/>
        <pt x="303" y="887" on="0"/>
        <pt x="347" y="935" on="0"/>
        <pt x="347" y="969" on="1"/>
        <pt x="385" y="969" on="1"/>
        <pt x="385" y="924" on="0"/>
        <pt x="317" y="856" on="0"/>
        <pt x="273" y="856" on="1"/>
        <pt x="228" y="856" on="0"/>
        <pt x="160" y="923" on="0"/>
      </contour>
    </TTGlyph>
    <TTGlyph name="Ocircumflex" xMin="72" yMin="-6" xMax="475" yMax="954">
      <contour>
        <pt x="72" y="204" on="1"/>
        <pt x="72" y="521" on="1"/>
        <pt x="72" y="630" on="0"/>
        <pt x="181" y="731" on="0"/>
        <pt x="273" y="731" on="1"/>
        <pt x="364" y="731" on="0"/>
        <pt x="475" y="630" on="0"/>
        <pt x="475" y="521" on="1"/>
        <pt x="475" y="204" on="1"/>
        <pt x="475" y="95" on="0"/>
        <pt x="364" y="-6" on="0"/>
        <pt x="273" y="-6" on="1"/>
        <pt x="181" y="-6" on="0"/>
        <pt x="72" y="95" on="0"/>
      </contour>
      <contour>
        <pt x="122" y="204" on="1"/>
        <pt x="122" y="42" on="0"/>
        <pt x="273" y="42" on="1"/>
        <pt x="346" y="42" on="0"/>
        <pt x="425" y="123" on="0"/>
        <pt x="425" y="204" on="1"/>
        <pt x="425" y="521" on="1"/>
        <pt x="425" y="602" on="0"/>
        <pt x="346" y="683" on="0"/>
        <pt x="273" y="683" on="1"/>
        <pt x="122" y="683" on="0"/>
        <pt x="122" y="521" on="1"/>
      </contour>
      <contour>
        <pt x="141" y="876" on="1"/>
        <pt x="141" y="888" on="0"/>
        <pt x="152" y="893" on="1"/>
        <pt x="256" y="949" on="1"/>
        <pt x="264" y="954" on="0"/>
        <pt x="282" y="954" on="0"/>
        <pt x="290" y="949" on="1"/>
        <pt x="394" y="894" on="1"/>
        <pt x="405" y="888" on="0"/>
        <pt x="405" y="874" on="1"/>
        <pt x="405" y="866" on="0"/>
        <pt x="394" y="854" on="0"/>
        <pt x="386" y="854" on="1"/>
        <pt x="377" y="857" on="1"/>
        <pt x="273" y="912" on="1"/>
        <pt x="169" y="856" on="1"/>
        <pt x="168" y="856" on="0"/>
        <pt x="162" y="853" on="0"/>
        <pt x="161" y="853" on="1"/>
        <pt x="153" y="853" on="0"/>
        <pt x="141" y="866" on="0"/>
      </contour>
    </TTGlyph>
    <TTGlyph name="Odieresis" xMin="72" yMin="-6" xMax="475" yMax="919">
      <contour>
        <pt x="72" y="204" on="1"/>
        <pt x="72" y="521" on="1"/>
        <pt x="72" y="630" on="0"/>
        <pt x="181" y="731" on="0"/>
        <pt x="273" y="731" on="1"/>
        <pt x="364" y="731" on="0"/>
        <pt x="475" y="630" on="0"/>
        <pt x="475" y="521" on="1"/>
        <pt x="475" y="204" on="1"/>
        <pt x="475" y="95" on="0"/>
        <pt x="364" y="-6" on="0"/>
        <pt x="273" y="-6" on="1"/>
        <pt x="181" y="-6" on="0"/>
        <pt x="72" y="95" on="0"/>
      </contour>
      <contour>
        <pt x="122" y="204" on="1"/>
        <pt x="122" y="42" on="0"/>
        <pt x="273" y="42" on="1"/>
        <pt x="346" y="42" on="0"/>
        <pt x="425" y="123" on="0"/>
        <pt x="425" y="204" on="1"/>
        <pt x="425" y="521" on="1"/>
        <pt x="425" y="602" on="0"/>
        <pt x="346" y="683" on="0"/>
        <pt x="273" y="683" on="1"/>
        <pt x="122" y="683" on="0"/>
        <pt x="122" y="521" on="1"/>
      </contour>
      <contour>
        <pt x="182" y="873" on="0"/>
        <pt x="182" y="901" on="0"/>
        <pt x="201" y="919" on="0"/>
        <pt x="229" y="919" on="0"/>
        <pt x="247" y="901" on="0"/>
        <pt x="247" y="873" on="0"/>
        <pt x="229" y="854" on="0"/>
        <pt x="201" y="854" on="0"/>
      </contour>
      <contour>
        <pt x="299" y="873" on="0"/>
        <pt x="299" y="901" on="0"/>
        <pt x="317" y="919" on="0"/>
        <pt x="332" y="919" on="1"/>
        <pt x="346" y="919" on="0"/>
        <pt x="364" y="901" on="0"/>
        <pt x="364" y="873" on="0"/>
        <pt x="346" y="854" on="0"/>
        <pt x="332" y="854" on="1"/>
        <pt x="317" y="854" on="0"/>
      </contour>
    </TTGlyph>
    <TTGlyph name="Ograve" xMin="72" yMin="-6" xMax="475" yMax="954">
      <contour>
        <pt x="72" y="204" on="1"/>
        <pt x="72" y="521" on="1"/>
        <pt x="72" y="630" on="0"/>
        <pt x="181" y="731" on="0"/>
        <pt x="273" y="731" on="1"/>
        <pt x="364" y="731" on="0"/>
        <pt x="475" y="630" on="0"/>
        <pt x="475" y="521" on="1"/>
        <pt x="475" y="204" on="1"/>
        <pt x="475" y="95" on="0"/>
        <pt x="364" y="-6" on="0"/>
        <pt x="273" y="-6" on="1"/>
        <pt x="181" y="-6" on="0"/>
        <pt x="72" y="95" on="0"/>
      </contour>
      <contour>
        <pt x="122" y="204" on="1"/>
        <pt x="122" y="42" on="0"/>
        <pt x="273" y="42" on="1"/>
        <pt x="346" y="42" on="0"/>
        <pt x="425" y="123" on="0"/>
        <pt x="425" y="204" on="1"/>
        <pt x="425" y="521" on="1"/>
        <pt x="425" y="602" on="0"/>
        <pt x="346" y="683" on="0"/>
        <pt x="273" y="683" on="1"/>
        <pt x="122" y="683" on="0"/>
        <pt x="122" y="521" on="1"/>
      </contour>
      <contour>
        <pt x="200" y="931" on="1"/>
        <pt x="200" y="940" on="0"/>
        <pt x="211" y="954" on="0"/>
        <pt x="220" y="954" on="1"/>
        <pt x="223" y="954" on="0"/>
        <pt x="227" y="952" on="1"/>
        <pt x="334" y="891" on="1"/>
        <pt x="343" y="887" on="0"/>
        <pt x="343" y="876" on="1"/>
        <pt x="343" y="867" on="0"/>
        <pt x="330" y="853" on="0"/>
        <pt x="321" y="853" on="1"/>
        <pt x="317" y="853" on="0"/>
        <pt x="311" y="856" on="1"/>
        <pt x="211" y="911" on="1"/>
        <pt x="200" y="918" on="0"/>
      </contour>
    </TTGlyph>
    <TTGlyph name="Ohungarumlaut" xMin="72" yMin="-6" xMax="475" yMax="954">
      <contour>
        <pt x="72" y="204" on="1"/>
        <pt x="72" y="521" on="1"/>
        <pt x="72" y="630" on="0"/>
        <pt x="181" y="731" on="0"/>
        <pt x="273" y="731" on="1"/>
        <pt x="364" y="731" on="0"/>
        <pt x="475" y="630" on="0"/>
        <pt x="475" y="521" on="1"/>
        <pt x="475" y="204" on="1"/>
        <pt x="475" y="95" on="0"/>
        <pt x="364" y="-6" on="0"/>
        <pt x="273" y="-6" on="1"/>
        <pt x="181" y="-6" on="0"/>
        <pt x="72" y="95" on="0"/>
      </contour>
      <contour>
        <pt x="122" y="204" on="1"/>
        <pt x="122" y="42" on="0"/>
        <pt x="273" y="42" on="1"/>
        <pt x="346" y="42" on="0"/>
        <pt x="425" y="123" on="0"/>
        <pt x="425" y="204" on="1"/>
        <pt x="425" y="521" on="1"/>
        <pt x="425" y="602" on="0"/>
        <pt x="346" y="683" on="0"/>
        <pt x="273" y="683" on="1"/>
        <pt x="122" y="683" on="0"/>
        <pt x="122" y="521" on="1"/>
      </contour>
      <contour>
        <pt x="169" y="874" on="1"/>
        <pt x="169" y="883" on="0"/>
        <pt x="177" y="887" on="1"/>
        <pt x="276" y="951" on="1"/>
        <pt x="280" y="954" on="0"/>
        <pt x="285" y="954" on="1"/>
        <pt x="293" y="954" on="0"/>
        <pt x="304" y="941" on="0"/>
        <pt x="304" y="933" on="1"/>
        <pt x="304" y="922" on="0"/>
        <pt x="295" y="915" on="1"/>
        <pt x="202" y="857" on="1"/>
        <pt x="197" y="853" on="0"/>
        <pt x="191" y="853" on="1"/>
        <pt x="183" y="853" on="0"/>
        <pt x="169" y="866" on="0"/>
      </contour>
      <contour>
        <pt x="318" y="874" on="1"/>
        <pt x="318" y="883" on="0"/>
        <pt x="325" y="887" on="1"/>
        <pt x="425" y="951" on="1"/>
        <pt x="428" y="954" on="0"/>
        <pt x="433" y="954" on="1"/>
        <pt x="442" y="954" on="0"/>
        <pt x="453" y="942" on="0"/>
        <pt x="453" y="933" on="1"/>
        <pt x="453" y="922" on="0"/>
        <pt x="443" y="915" on="1"/>
        <pt x="350" y="857" on="1"/>
        <pt x="346" y="853" on="0"/>
        <pt x="340" y="853" on="1"/>
        <pt x="331" y="853" on="0"/>
        <pt x="318" y="866" on="0"/>
      </contour>
    </TTGlyph>
    <TTGlyph name="Omacron" xMin="72" yMin="-6" xMax="475" yMax="941">
      <contour>
        <pt x="72" y="204" on="1"/>
        <pt x="72" y="521" on="1"/>
        <pt x="72" y="630" on="0"/>
        <pt x="181" y="731" on="0"/>
        <pt x="273" y="731" on="1"/>
        <pt x="364" y="731" on="0"/>
        <pt x="475" y="630" on="0"/>
        <pt x="475" y="521" on="1"/>
        <pt x="475" y="204" on="1"/>
        <pt x="475" y="95" on="0"/>
        <pt x="364" y="-6" on="0"/>
        <pt x="273" y="-6" on="1"/>
        <pt x="181" y="-6" on="0"/>
        <pt x="72" y="95" on="0"/>
      </contour>
      <contour>
        <pt x="122" y="204" on="1"/>
        <pt x="122" y="42" on="0"/>
        <pt x="273" y="42" on="1"/>
        <pt x="346" y="42" on="0"/>
        <pt x="425" y="123" on="0"/>
        <pt x="425" y="204" on="1"/>
        <pt x="425" y="521" on="1"/>
        <pt x="425" y="602" on="0"/>
        <pt x="346" y="683" on="0"/>
        <pt x="273" y="683" on="1"/>
        <pt x="122" y="683" on="0"/>
        <pt x="122" y="521" on="1"/>
      </contour>
      <contour>
        <pt x="143" y="919" on="1"/>
        <pt x="143" y="941" on="0"/>
        <pt x="164" y="941" on="1"/>
        <pt x="381" y="941" on="1"/>
        <pt x="389" y="941" on="0"/>
        <pt x="403" y="928" on="0"/>
        <pt x="403" y="910" on="0"/>
        <pt x="390" y="899" on="0"/>
        <pt x="381" y="899" on="1"/>
        <pt x="164" y="899" on="1"/>
        <pt x="143" y="899" on="0"/>
      </contour>
    </TTGlyph>
    <TTGlyph name="Oslash" xMin="60" yMin="-23" xMax="488" yMax="768">
      <contour>
        <pt x="60" y="-4" on="1"/>
        <pt x="60" y="3" on="0"/>
        <pt x="62" y="7" on="1"/>
        <pt x="99" y="80" on="1"/>
        <pt x="72" y="129" on="0"/>
        <pt x="72" y="204" on="1"/>
        <pt x="72" y="521" on="1"/>
        <pt x="72" y="630" on="0"/>
        <pt x="181" y="731" on="0"/>
        <pt x="273" y="731" on="1"/>
        <pt x="360" y="731" on="0"/>
        <pt x="411" y="687" on="1"/>
        <pt x="448" y="758" on="1"/>
        <pt x="453" y="768" on="0"/>
        <pt x="465" y="768" on="1"/>
        <pt x="473" y="768" on="0"/>
        <pt x="488" y="755" on="0"/>
        <pt x="488" y="745" on="1"/>
        <pt x="488" y="739" on="0"/>
        <pt x="484" y="734" on="1"/>
        <pt x="442" y="652" on="1"/>
        <pt x="475" y="602" on="0"/>
        <pt x="475" y="521" on="1"/>
        <pt x="475" y="204" on="1"/>
        <pt x="475" y="95" on="0"/>
        <pt x="364" y="-6" on="0"/>
        <pt x="273" y="-6" on="1"/>
        <pt x="178" y="-6" on="0"/>
        <pt x="128" y="43" on="1"/>
        <pt x="101" y="-10" on="1"/>
        <pt x="94" y="-23" on="0"/>
        <pt x="80" y="-23" on="1"/>
        <pt x="72" y="-23" on="0"/>
        <pt x="60" y="-12" on="0"/>
      </contour>
      <contour>
        <pt x="122" y="204" on="1"/>
        <pt x="122" y="169" on="0"/>
        <pt x="130" y="139" on="1"/>
        <pt x="387" y="640" on="1"/>
        <pt x="348" y="683" on="0"/>
        <pt x="273" y="683" on="1"/>
        <pt x="122" y="683" on="0"/>
        <pt x="122" y="521" on="1"/>
      </contour>
      <contour>
        <pt x="153" y="91" on="1"/>
        <pt x="192" y="42" on="0"/>
        <pt x="273" y="42" on="1"/>
        <pt x="346" y="42" on="0"/>
        <pt x="425" y="123" on="0"/>
        <pt x="425" y="204" on="1"/>
        <pt x="425" y="521" on="1"/>
        <pt x="425" y="564" on="0"/>
        <pt x="413" y="596" on="1"/>
      </contour>
    </TTGlyph>
    <TTGlyph name="Oslashacute" xMin="60" yMin="-23" xMax="488" yMax="954">
      <contour>
        <pt x="60" y="-4" on="1"/>
        <pt x="60" y="3" on="0"/>
        <pt x="62" y="7" on="1"/>
        <pt x="99" y="80" on="1"/>
        <pt x="72" y="129" on="0"/>
        <pt x="72" y="204" on="1"/>
        <pt x="72" y="521" on="1"/>
        <pt x="72" y="630" on="0"/>
        <pt x="181" y="731" on="0"/>
        <pt x="273" y="731" on="1"/>
        <pt x="360" y="731" on="0"/>
        <pt x="411" y="687" on="1"/>
        <pt x="448" y="758" on="1"/>
        <pt x="453" y="768" on="0"/>
        <pt x="465" y="768" on="1"/>
        <pt x="473" y="768" on="0"/>
        <pt x="488" y="755" on="0"/>
        <pt x="488" y="745" on="1"/>
        <pt x="488" y="739" on="0"/>
        <pt x="484" y="734" on="1"/>
        <pt x="442" y="652" on="1"/>
        <pt x="475" y="602" on="0"/>
        <pt x="475" y="521" on="1"/>
        <pt x="475" y="204" on="1"/>
        <pt x="475" y="95" on="0"/>
        <pt x="364" y="-6" on="0"/>
        <pt x="273" y="-6" on="1"/>
        <pt x="178" y="-6" on="0"/>
        <pt x="128" y="43" on="1"/>
        <pt x="101" y="-10" on="1"/>
        <pt x="94" y="-23" on="0"/>
        <pt x="80" y="-23" on="1"/>
        <pt x="72" y="-23" on="0"/>
        <pt x="60" y="-12" on="0"/>
      </contour>
      <contour>
        <pt x="122" y="204" on="1"/>
        <pt x="122" y="169" on="0"/>
        <pt x="130" y="139" on="1"/>
        <pt x="387" y="640" on="1"/>
        <pt x="348" y="683" on="0"/>
        <pt x="273" y="683" on="1"/>
        <pt x="122" y="683" on="0"/>
        <pt x="122" y="521" on="1"/>
      </contour>
      <contour>
        <pt x="153" y="91" on="1"/>
        <pt x="192" y="42" on="0"/>
        <pt x="273" y="42" on="1"/>
        <pt x="346" y="42" on="0"/>
        <pt x="425" y="123" on="0"/>
        <pt x="425" y="204" on="1"/>
        <pt x="425" y="521" on="1"/>
        <pt x="425" y="564" on="0"/>
        <pt x="413" y="596" on="1"/>
      </contour>
      <contour>
        <pt x="204" y="876" on="1"/>
        <pt x="204" y="887" on="0"/>
        <pt x="213" y="891" on="1"/>
        <pt x="320" y="952" on="1"/>
        <pt x="324" y="954" on="0"/>
        <pt x="328" y="954" on="1"/>
        <pt x="337" y="954" on="0"/>
        <pt x="347" y="940" on="0"/>
        <pt x="347" y="931" on="1"/>
        <pt x="347" y="918" on="0"/>
        <pt x="336" y="911" on="1"/>
        <pt x="236" y="856" on="1"/>
        <pt x="232" y="853" on="0"/>
        <pt x="226" y="853" on="1"/>
        <pt x="217" y="853" on="0"/>
        <pt x="204" y="867" on="0"/>
      </contour>
    </TTGlyph>
    <TTGlyph name="Otilde" xMin="72" yMin="-6" xMax="475" yMax="949">
      <contour>
        <pt x="72" y="204" on="1"/>
        <pt x="72" y="521" on="1"/>
        <pt x="72" y="630" on="0"/>
        <pt x="181" y="731" on="0"/>
        <pt x="273" y="731" on="1"/>
        <pt x="364" y="731" on="0"/>
        <pt x="475" y="630" on="0"/>
        <pt x="475" y="521" on="1"/>
        <pt x="475" y="204" on="1"/>
        <pt x="475" y="95" on="0"/>
        <pt x="364" y="-6" on="0"/>
        <pt x="273" y="-6" on="1"/>
        <pt x="181" y="-6" on="0"/>
        <pt x="72" y="95" on="0"/>
      </contour>
      <contour>
        <pt x="122" y="204" on="1"/>
        <pt x="122" y="42" on="0"/>
        <pt x="273" y="42" on="1"/>
        <pt x="346" y="42" on="0"/>
        <pt x="425" y="123" on="0"/>
        <pt x="425" y="204" on="1"/>
        <pt x="425" y="521" on="1"/>
        <pt x="425" y="602" on="0"/>
        <pt x="346" y="683" on="0"/>
        <pt x="273" y="683" on="1"/>
        <pt x="122" y="683" on="0"/>
        <pt x="122" y="521" on="1"/>
      </contour>
      <contour>
        <pt x="122" y="895" on="1"/>
        <pt x="122" y="917" on="0"/>
        <pt x="183" y="949" on="0"/>
        <pt x="211" y="949" on="1"/>
        <pt x="236" y="949" on="0"/>
        <pt x="314" y="913" on="0"/>
        <pt x="366" y="913" on="0"/>
        <pt x="402" y="944" on="0"/>
        <pt x="407" y="944" on="1"/>
        <pt x="414" y="944" on="0"/>
        <pt x="424" y="932" on="0"/>
        <pt x="424" y="925" on="1"/>
        <pt x="424" y="901" on="0"/>
        <pt x="367" y="871" on="0"/>
        <pt x="340" y="871" on="1"/>
        <pt x="315" y="871" on="0"/>
        <pt x="237" y="907" on="0"/>
        <pt x="209" y="907" on="1"/>
        <pt x="184" y="907" on="0"/>
        <pt x="142" y="874" on="0"/>
        <pt x="138" y="874" on="1"/>
        <pt x="122" y="874" on="0"/>
      </contour>
    </TTGlyph>
    <TTGlyph name="P" xMin="79" yMin="0" xMax="483" yMax="731">
      <contour>
        <pt x="79" y="22" on="1"/>
        <pt x="79" y="710" on="1"/>
        <pt x="79" y="729" on="0"/>
        <pt x="102" y="731" on="1"/>
        <pt x="282" y="731" on="1"/>
        <pt x="373" y="731" on="0"/>
        <pt x="483" y="630" on="0"/>
        <pt x="483" y="522" on="1"/>
        <pt x="483" y="511" on="1"/>
        <pt x="483" y="403" on="0"/>
        <pt x="372" y="301" on="0"/>
        <pt x="281" y="301" on="1"/>
        <pt x="129" y="301" on="1"/>
        <pt x="129" y="22" on="1"/>
        <pt x="129" y="0" on="0"/>
        <pt x="79" y="0" on="0"/>
      </contour>
      <contour>
        <pt x="129" y="347" on="1"/>
        <pt x="281" y="347" on="1"/>
        <pt x="354" y="347" on="0"/>
        <pt x="433" y="428" on="0"/>
        <pt x="433" y="510" on="1"/>
        <pt x="433" y="521" on="1"/>
        <pt x="433" y="602" on="0"/>
        <pt x="354" y="683" on="0"/>
        <pt x="281" y="683" on="1"/>
        <pt x="129" y="683" on="1"/>
      </contour>
    </TTGlyph>
    <TTGlyph name="Q" xMin="72" yMin="-109" xMax="475" yMax="731">
      <contour>
        <pt x="72" y="204" on="1"/>
        <pt x="72" y="521" on="1"/>
        <pt x="72" y="630" on="0"/>
        <pt x="181" y="731" on="0"/>
        <pt x="273" y="731" on="1"/>
        <pt x="364" y="731" on="0"/>
        <pt x="475" y="630" on="0"/>
        <pt x="475" y="521" on="1"/>
        <pt x="475" y="204" on="1"/>
        <pt x="475" y="101" on="0"/>
        <pt x="378" y="0" on="0"/>
        <pt x="295" y="-5" on="1"/>
        <pt x="295" y="-87" on="1"/>
        <pt x="295" y="-98" on="0"/>
        <pt x="282" y="-109" on="0"/>
        <pt x="274" y="-109" on="1"/>
        <pt x="252" y="-109" on="0"/>
        <pt x="252" y="-87" on="1"/>
        <pt x="252" y="-5" on="1"/>
        <pt x="169" y="0" on="0"/>
        <pt x="72" y="101" on="0"/>
      </contour>
      <contour>
        <pt x="122" y="204" on="1"/>
        <pt x="122" y="54" on="0"/>
        <pt x="252" y="43" on="1"/>
        <pt x="252" y="122" on="1"/>
        <pt x="252" y="143" on="0"/>
        <pt x="274" y="143" on="1"/>
        <pt x="295" y="143" on="0"/>
        <pt x="295" y="122" on="1"/>
        <pt x="295" y="44" on="1"/>
        <pt x="425" y="55" on="0"/>
        <pt x="425" y="204" on="1"/>
        <pt x="425" y="521" on="1"/>
        <pt x="425" y="602" on="0"/>
        <pt x="346" y="683" on="0"/>
        <pt x="273" y="683" on="1"/>
        <pt x="122" y="683" on="0"/>
        <pt x="122" y="521" on="1"/>
      </contour>
    </TTGlyph>
    <TTGlyph name="R" xMin="79" yMin="-1" xMax="483" yMax="731">
      <contour>
        <pt x="79" y="22" on="1"/>
        <pt x="79" y="710" on="1"/>
        <pt x="79" y="719" on="0"/>
        <pt x="91" y="731" on="0"/>
        <pt x="101" y="731" on="1"/>
        <pt x="272" y="731" on="1"/>
        <pt x="366" y="731" on="0"/>
        <pt x="483" y="640" on="0"/>
        <pt x="483" y="537" on="1"/>
        <pt x="483" y="369" on="0"/>
        <pt x="320" y="346" on="1"/>
        <pt x="480" y="36" on="1"/>
        <pt x="483" y="30" on="0"/>
        <pt x="483" y="24" on="1"/>
        <pt x="483" y="14" on="0"/>
        <pt x="468" y="-1" on="0"/>
        <pt x="444" y="-1" on="0"/>
        <pt x="425" y="34" on="1"/>
        <pt x="268" y="341" on="1"/>
        <pt x="129" y="341" on="1"/>
        <pt x="129" y="22" on="1"/>
        <pt x="129" y="0" on="0"/>
        <pt x="79" y="0" on="0"/>
      </contour>
      <contour>
        <pt x="129" y="387" on="1"/>
        <pt x="272" y="387" on="1"/>
        <pt x="433" y="387" on="0"/>
        <pt x="433" y="536" on="1"/>
        <pt x="433" y="683" on="0"/>
        <pt x="272" y="683" on="1"/>
        <pt x="129" y="683" on="1"/>
      </contour>
    </TTGlyph>
    <TTGlyph name="Racute" xMin="79" yMin="-1" xMax="483" yMax="954">
      <contour>
        <pt x="79" y="22" on="1"/>
        <pt x="79" y="710" on="1"/>
        <pt x="79" y="719" on="0"/>
        <pt x="91" y="731" on="0"/>
        <pt x="101" y="731" on="1"/>
        <pt x="272" y="731" on="1"/>
        <pt x="366" y="731" on="0"/>
        <pt x="483" y="640" on="0"/>
        <pt x="483" y="537" on="1"/>
        <pt x="483" y="369" on="0"/>
        <pt x="320" y="346" on="1"/>
        <pt x="480" y="36" on="1"/>
        <pt x="483" y="30" on="0"/>
        <pt x="483" y="24" on="1"/>
        <pt x="483" y="14" on="0"/>
        <pt x="468" y="-1" on="0"/>
        <pt x="444" y="-1" on="0"/>
        <pt x="425" y="34" on="1"/>
        <pt x="268" y="341" on="1"/>
        <pt x="129" y="341" on="1"/>
        <pt x="129" y="22" on="1"/>
        <pt x="129" y="0" on="0"/>
        <pt x="79" y="0" on="0"/>
      </contour>
      <contour>
        <pt x="129" y="387" on="1"/>
        <pt x="272" y="387" on="1"/>
        <pt x="433" y="387" on="0"/>
        <pt x="433" y="536" on="1"/>
        <pt x="433" y="683" on="0"/>
        <pt x="272" y="683" on="1"/>
        <pt x="129" y="683" on="1"/>
      </contour>
      <contour>
        <pt x="212" y="876" on="1"/>
        <pt x="212" y="887" on="0"/>
        <pt x="221" y="891" on="1"/>
        <pt x="328" y="952" on="1"/>
        <pt x="332" y="954" on="0"/>
        <pt x="336" y="954" on="1"/>
        <pt x="345" y="954" on="0"/>
        <pt x="355" y="940" on="0"/>
        <pt x="355" y="931" on="1"/>
        <pt x="355" y="918" on="0"/>
        <pt x="344" y="911" on="1"/>
        <pt x="244" y="856" on="1"/>
        <pt x="240" y="853" on="0"/>
        <pt x="234" y="853" on="1"/>
        <pt x="225" y="853" on="0"/>
        <pt x="212" y="867" on="0"/>
      </contour>
    </TTGlyph>
    <TTGlyph name="Rcaron" xMin="79" yMin="-1" xMax="483" yMax="988">
      <contour>
        <pt x="79" y="22" on="1"/>
        <pt x="79" y="710" on="1"/>
        <pt x="79" y="719" on="0"/>
        <pt x="91" y="731" on="0"/>
        <pt x="101" y="731" on="1"/>
        <pt x="272" y="731" on="1"/>
        <pt x="366" y="731" on="0"/>
        <pt x="483" y="640" on="0"/>
        <pt x="483" y="537" on="1"/>
        <pt x="483" y="369" on="0"/>
        <pt x="320" y="346" on="1"/>
        <pt x="480" y="36" on="1"/>
        <pt x="483" y="30" on="0"/>
        <pt x="483" y="24" on="1"/>
        <pt x="483" y="14" on="0"/>
        <pt x="468" y="-1" on="0"/>
        <pt x="444" y="-1" on="0"/>
        <pt x="425" y="34" on="1"/>
        <pt x="268" y="341" on="1"/>
        <pt x="129" y="341" on="1"/>
        <pt x="129" y="22" on="1"/>
        <pt x="129" y="0" on="0"/>
        <pt x="79" y="0" on="0"/>
      </contour>
      <contour>
        <pt x="129" y="387" on="1"/>
        <pt x="272" y="387" on="1"/>
        <pt x="433" y="387" on="0"/>
        <pt x="433" y="536" on="1"/>
        <pt x="433" y="683" on="0"/>
        <pt x="272" y="683" on="1"/>
        <pt x="129" y="683" on="1"/>
      </contour>
      <contour>
        <pt x="145" y="969" on="1"/>
        <pt x="145" y="976" on="0"/>
        <pt x="155" y="988" on="0"/>
        <pt x="162" y="988" on="1"/>
        <pt x="170" y="988" on="0"/>
        <pt x="177" y="981" on="1"/>
        <pt x="276" y="883" on="1"/>
        <pt x="374" y="981" on="1"/>
        <pt x="381" y="988" on="0"/>
        <pt x="390" y="988" on="1"/>
        <pt x="397" y="988" on="0"/>
        <pt x="407" y="976" on="0"/>
        <pt x="407" y="962" on="0"/>
        <pt x="397" y="950" on="1"/>
        <pt x="296" y="854" on="1"/>
        <pt x="284" y="844" on="0"/>
        <pt x="276" y="844" on="1"/>
        <pt x="265" y="844" on="0"/>
        <pt x="255" y="854" on="1"/>
        <pt x="155" y="950" on="1"/>
        <pt x="145" y="960" on="0"/>
      </contour>
    </TTGlyph>
    <TTGlyph name="Rcommaaccent" xMin="79" yMin="-149" xMax="483" yMax="731">
      <contour>
        <pt x="79" y="22" on="1"/>
        <pt x="79" y="710" on="1"/>
        <pt x="79" y="719" on="0"/>
        <pt x="91" y="731" on="0"/>
        <pt x="101" y="731" on="1"/>
        <pt x="272" y="731" on="1"/>
        <pt x="366" y="731" on="0"/>
        <pt x="483" y="640" on="0"/>
        <pt x="483" y="537" on="1"/>
        <pt x="483" y="369" on="0"/>
        <pt x="320" y="346" on="1"/>
        <pt x="480" y="36" on="1"/>
        <pt x="483" y="30" on="0"/>
        <pt x="483" y="24" on="1"/>
        <pt x="483" y="14" on="0"/>
        <pt x="468" y="-1" on="0"/>
        <pt x="444" y="-1" on="0"/>
        <pt x="425" y="34" on="1"/>
        <pt x="268" y="341" on="1"/>
        <pt x="129" y="341" on="1"/>
        <pt x="129" y="22" on="1"/>
        <pt x="129" y="0" on="0"/>
        <pt x="79" y="0" on="0"/>
      </contour>
      <contour>
        <pt x="129" y="387" on="1"/>
        <pt x="272" y="387" on="1"/>
        <pt x="433" y="387" on="0"/>
        <pt x="433" y="536" on="1"/>
        <pt x="433" y="683" on="0"/>
        <pt x="272" y="683" on="1"/>
        <pt x="129" y="683" on="1"/>
      </contour>
      <contour>
        <pt x="174" y="-126" on="1"/>
        <pt x="174" y="-115" on="0"/>
        <pt x="184" y="-111" on="1"/>
        <pt x="290" y="-50" on="1"/>
        <pt x="296" y="-48" on="0"/>
        <pt x="298" y="-48" on="1"/>
        <pt x="307" y="-48" on="0"/>
        <pt x="318" y="-62" on="0"/>
        <pt x="318" y="-71" on="1"/>
        <pt x="318" y="-84" on="0"/>
        <pt x="306" y="-91" on="1"/>
        <pt x="206" y="-146" on="1"/>
        <pt x="202" y="-149" on="0"/>
        <pt x="197" y="-149" on="1"/>
        <pt x="188" y="-149" on="0"/>
        <pt x="174" y="-135" on="0"/>
      </contour>
    </TTGlyph>
    <TTGlyph name="S" xMin="39" yMin="-6" xMax="442" yMax="732">
      <contour>
        <pt x="39" y="98" on="1"/>
        <pt x="39" y="108" on="0"/>
        <pt x="54" y="126" on="0"/>
        <pt x="62" y="126" on="1"/>
        <pt x="68" y="126" on="0"/>
        <pt x="80" y="113" on="1"/>
        <pt x="107" y="84" on="1"/>
        <pt x="122" y="68" on="0"/>
        <pt x="189" y="42" on="0"/>
        <pt x="233" y="42" on="1"/>
        <pt x="310" y="42" on="0"/>
        <pt x="392" y="118" on="0"/>
        <pt x="392" y="192" on="1"/>
        <pt x="392" y="248" on="0"/>
        <pt x="342" y="322" on="0"/>
        <pt x="268" y="354" on="0"/>
        <pt x="181" y="388" on="0"/>
        <pt x="107" y="421" on="0"/>
        <pt x="57" y="497" on="0"/>
        <pt x="57" y="555" on="1"/>
        <pt x="57" y="607" on="0"/>
        <pt x="95" y="680" on="0"/>
        <pt x="159" y="717" on="0"/>
        <pt x="224" y="732" on="0"/>
        <pt x="261" y="732" on="1"/>
        <pt x="321" y="732" on="0"/>
        <pt x="424" y="697" on="0"/>
        <pt x="424" y="675" on="1"/>
        <pt x="424" y="666" on="0"/>
        <pt x="410" y="646" on="0"/>
        <pt x="401" y="646" on="1"/>
        <pt x="396" y="646" on="0"/>
        <pt x="362" y="665" on="0"/>
        <pt x="299" y="684" on="0"/>
        <pt x="260" y="684" on="1"/>
        <pt x="195" y="684" on="0"/>
        <pt x="107" y="627" on="0"/>
        <pt x="107" y="559" on="1"/>
        <pt x="107" y="518" on="0"/>
        <pt x="144" y="463" on="0"/>
        <pt x="203" y="433" on="0"/>
        <pt x="274" y="409" on="0"/>
        <pt x="346" y="379" on="0"/>
        <pt x="405" y="335" on="0"/>
        <pt x="442" y="254" on="0"/>
        <pt x="442" y="197" on="1"/>
        <pt x="442" y="95" on="0"/>
        <pt x="331" y="-6" on="0"/>
        <pt x="238" y="-6" on="1"/>
        <pt x="152" y="-6" on="0"/>
        <pt x="39" y="68" on="0"/>
      </contour>
    </TTGlyph>
    <TTGlyph name="Sacute" xMin="39" yMin="-6" xMax="442" yMax="954">
      <contour>
        <pt x="39" y="98" on="1"/>
        <pt x="39" y="108" on="0"/>
        <pt x="54" y="126" on="0"/>
        <pt x="62" y="126" on="1"/>
        <pt x="69" y="126" on="0"/>
        <pt x="80" y="113" on="1"/>
        <pt x="107" y="84" on="1"/>
        <pt x="122" y="68" on="0"/>
        <pt x="189" y="42" on="0"/>
        <pt x="233" y="42" on="1"/>
        <pt x="310" y="42" on="0"/>
        <pt x="392" y="118" on="0"/>
        <pt x="392" y="192" on="1"/>
        <pt x="392" y="248" on="0"/>
        <pt x="342" y="322" on="0"/>
        <pt x="268" y="354" on="0"/>
        <pt x="181" y="388" on="0"/>
        <pt x="107" y="421" on="0"/>
        <pt x="57" y="497" on="0"/>
        <pt x="57" y="555" on="1"/>
        <pt x="57" y="607" on="0"/>
        <pt x="95" y="680" on="0"/>
        <pt x="159" y="717" on="0"/>
        <pt x="224" y="732" on="0"/>
        <pt x="261" y="732" on="1"/>
        <pt x="321" y="732" on="0"/>
        <pt x="424" y="697" on="0"/>
        <pt x="424" y="675" on="1"/>
        <pt x="424" y="666" on="0"/>
        <pt x="410" y="646" on="0"/>
        <pt x="401" y="646" on="1"/>
        <pt x="396" y="646" on="0"/>
        <pt x="362" y="665" on="0"/>
        <pt x="299" y="684" on="0"/>
        <pt x="260" y="684" on="1"/>
        <pt x="195" y="684" on="0"/>
        <pt x="107" y="627" on="0"/>
        <pt x="107" y="559" on="1"/>
        <pt x="107" y="518" on="0"/>
        <pt x="144" y="463" on="0"/>
        <pt x="203" y="433" on="0"/>
        <pt x="274" y="409" on="0"/>
        <pt x="346" y="379" on="0"/>
        <pt x="405" y="335" on="0"/>
        <pt x="442" y="254" on="0"/>
        <pt x="442" y="197" on="1"/>
        <pt x="442" y="95" on="0"/>
        <pt x="331" y="-6" on="0"/>
        <pt x="238" y="-6" on="1"/>
        <pt x="152" y="-6" on="0"/>
        <pt x="39" y="68" on="0"/>
      </contour>
      <contour>
        <pt x="172" y="876" on="1"/>
        <pt x="172" y="887" on="0"/>
        <pt x="181" y="891" on="1"/>
        <pt x="288" y="952" on="1"/>
        <pt x="292" y="954" on="0"/>
        <pt x="296" y="954" on="1"/>
        <pt x="305" y="954" on="0"/>
        <pt x="315" y="940" on="0"/>
        <pt x="315" y="931" on="1"/>
        <pt x="315" y="918" on="0"/>
        <pt x="304" y="911" on="1"/>
        <pt x="204" y="856" on="1"/>
        <pt x="200" y="853" on="0"/>
        <pt x="194" y="853" on="1"/>
        <pt x="185" y="853" on="0"/>
        <pt x="172" y="867" on="0"/>
      </contour>
    </TTGlyph>
    <TTGlyph name="Scaron" xMin="39" yMin="-6" xMax="442" yMax="988">
      <contour>
        <pt x="39" y="98" on="1"/>
        <pt x="39" y="108" on="0"/>
        <pt x="54" y="126" on="0"/>
        <pt x="62" y="126" on="1"/>
        <pt x="69" y="126" on="0"/>
        <pt x="80" y="113" on="1"/>
        <pt x="107" y="84" on="1"/>
        <pt x="122" y="68" on="0"/>
        <pt x="189" y="42" on="0"/>
        <pt x="233" y="42" on="1"/>
        <pt x="310" y="42" on="0"/>
        <pt x="392" y="118" on="0"/>
        <pt x="392" y="192" on="1"/>
        <pt x="392" y="248" on="0"/>
        <pt x="342" y="322" on="0"/>
        <pt x="268" y="354" on="0"/>
        <pt x="181" y="388" on="0"/>
        <pt x="107" y="421" on="0"/>
        <pt x="57" y="497" on="0"/>
        <pt x="57" y="555" on="1"/>
        <pt x="57" y="607" on="0"/>
        <pt x="95" y="680" on="0"/>
        <pt x="159" y="717" on="0"/>
        <pt x="224" y="732" on="0"/>
        <pt x="261" y="732" on="1"/>
        <pt x="321" y="732" on="0"/>
        <pt x="424" y="697" on="0"/>
        <pt x="424" y="675" on="1"/>
        <pt x="424" y="666" on="0"/>
        <pt x="410" y="646" on="0"/>
        <pt x="401" y="646" on="1"/>
        <pt x="396" y="646" on="0"/>
        <pt x="362" y="665" on="0"/>
        <pt x="299" y="684" on="0"/>
        <pt x="260" y="684" on="1"/>
        <pt x="195" y="684" on="0"/>
        <pt x="107" y="627" on="0"/>
        <pt x="107" y="559" on="1"/>
        <pt x="107" y="518" on="0"/>
        <pt x="144" y="463" on="0"/>
        <pt x="203" y="433" on="0"/>
        <pt x="274" y="409" on="0"/>
        <pt x="346" y="379" on="0"/>
        <pt x="405" y="335" on="0"/>
        <pt x="442" y="254" on="0"/>
        <pt x="442" y="197" on="1"/>
        <pt x="442" y="95" on="0"/>
        <pt x="331" y="-6" on="0"/>
        <pt x="238" y="-6" on="1"/>
        <pt x="152" y="-6" on="0"/>
        <pt x="39" y="68" on="0"/>
      </contour>
      <contour>
        <pt x="109" y="969" on="1"/>
        <pt x="109" y="976" on="0"/>
        <pt x="119" y="988" on="0"/>
        <pt x="126" y="988" on="1"/>
        <pt x="134" y="988" on="0"/>
        <pt x="141" y="981" on="1"/>
        <pt x="240" y="883" on="1"/>
        <pt x="338" y="981" on="1"/>
        <pt x="345" y="988" on="0"/>
        <pt x="354" y="988" on="1"/>
        <pt x="361" y="988" on="0"/>
        <pt x="371" y="976" on="0"/>
        <pt x="371" y="962" on="0"/>
        <pt x="361" y="950" on="1"/>
        <pt x="260" y="854" on="1"/>
        <pt x="248" y="844" on="0"/>
        <pt x="240" y="844" on="1"/>
        <pt x="229" y="844" on="0"/>
        <pt x="219" y="854" on="1"/>
        <pt x="119" y="950" on="1"/>
        <pt x="109" y="960" on="0"/>
      </contour>
    </TTGlyph>
    <TTGlyph name="Scedilla" xMin="39" yMin="-208" xMax="442" yMax="732">
      <contour>
        <pt x="39" y="98" on="1"/>
        <pt x="39" y="108" on="0"/>
        <pt x="54" y="126" on="0"/>
        <pt x="62" y="126" on="1"/>
        <pt x="69" y="126" on="0"/>
        <pt x="80" y="113" on="1"/>
        <pt x="107" y="84" on="1"/>
        <pt x="122" y="68" on="0"/>
        <pt x="189" y="42" on="0"/>
        <pt x="233" y="42" on="1"/>
        <pt x="310" y="42" on="0"/>
        <pt x="392" y="118" on="0"/>
        <pt x="392" y="192" on="1"/>
        <pt x="392" y="248" on="0"/>
        <pt x="342" y="322" on="0"/>
        <pt x="268" y="354" on="0"/>
        <pt x="181" y="388" on="0"/>
        <pt x="107" y="421" on="0"/>
        <pt x="57" y="497" on="0"/>
        <pt x="57" y="555" on="1"/>
        <pt x="57" y="607" on="0"/>
        <pt x="95" y="680" on="0"/>
        <pt x="159" y="717" on="0"/>
        <pt x="224" y="732" on="0"/>
        <pt x="261" y="732" on="1"/>
        <pt x="321" y="732" on="0"/>
        <pt x="424" y="697" on="0"/>
        <pt x="424" y="675" on="1"/>
        <pt x="424" y="666" on="0"/>
        <pt x="410" y="646" on="0"/>
        <pt x="401" y="646" on="1"/>
        <pt x="396" y="646" on="0"/>
        <pt x="362" y="665" on="0"/>
        <pt x="299" y="684" on="0"/>
        <pt x="260" y="684" on="1"/>
        <pt x="195" y="684" on="0"/>
        <pt x="107" y="627" on="0"/>
        <pt x="107" y="559" on="1"/>
        <pt x="107" y="518" on="0"/>
        <pt x="144" y="463" on="0"/>
        <pt x="203" y="433" on="0"/>
        <pt x="274" y="409" on="0"/>
        <pt x="346" y="379" on="0"/>
        <pt x="405" y="335" on="0"/>
        <pt x="442" y="254" on="0"/>
        <pt x="442" y="197" on="1"/>
        <pt x="442" y="107" on="0"/>
        <pt x="357" y="8" on="0"/>
        <pt x="282" y="-3" on="1"/>
        <pt x="267" y="-63" on="1"/>
        <pt x="315" y="-64" on="0"/>
        <pt x="362" y="-105" on="0"/>
        <pt x="362" y="-134" on="1"/>
        <pt x="362" y="-164" on="0"/>
        <pt x="317" y="-208" on="0"/>
        <pt x="277" y="-208" on="1"/>
        <pt x="253" y="-208" on="0"/>
        <pt x="201" y="-195" on="0"/>
        <pt x="201" y="-184" on="1"/>
        <pt x="201" y="-178" on="0"/>
        <pt x="210" y="-163" on="0"/>
        <pt x="215" y="-163" on="1"/>
        <pt x="233" y="-170" on="1"/>
        <pt x="251" y="-176" on="0"/>
        <pt x="271" y="-176" on="1"/>
        <pt x="325" y="-176" on="0"/>
        <pt x="325" y="-136" on="1"/>
        <pt x="325" y="-97" on="0"/>
        <pt x="258" y="-92" on="1"/>
        <pt x="225" y="-90" on="1"/>
        <pt x="246" y="-6" on="1"/>
        <pt x="238" y="-6" on="1"/>
        <pt x="152" y="-6" on="0"/>
        <pt x="39" y="68" on="0"/>
      </contour>
    </TTGlyph>
    <TTGlyph name="Scircumflex" xMin="39" yMin="-6" xMax="442" yMax="954">
      <contour>
        <pt x="39" y="98" on="1"/>
        <pt x="39" y="108" on="0"/>
        <pt x="54" y="126" on="0"/>
        <pt x="62" y="126" on="1"/>
        <pt x="69" y="126" on="0"/>
        <pt x="80" y="113" on="1"/>
        <pt x="107" y="84" on="1"/>
        <pt x="122" y="68" on="0"/>
        <pt x="189" y="42" on="0"/>
        <pt x="233" y="42" on="1"/>
        <pt x="310" y="42" on="0"/>
        <pt x="392" y="118" on="0"/>
        <pt x="392" y="192" on="1"/>
        <pt x="392" y="248" on="0"/>
        <pt x="342" y="322" on="0"/>
        <pt x="268" y="354" on="0"/>
        <pt x="181" y="388" on="0"/>
        <pt x="107" y="421" on="0"/>
        <pt x="57" y="497" on="0"/>
        <pt x="57" y="555" on="1"/>
        <pt x="57" y="607" on="0"/>
        <pt x="95" y="680" on="0"/>
        <pt x="159" y="717" on="0"/>
        <pt x="224" y="732" on="0"/>
        <pt x="261" y="732" on="1"/>
        <pt x="321" y="732" on="0"/>
        <pt x="424" y="697" on="0"/>
        <pt x="424" y="675" on="1"/>
        <pt x="424" y="666" on="0"/>
        <pt x="410" y="646" on="0"/>
        <pt x="401" y="646" on="1"/>
        <pt x="396" y="646" on="0"/>
        <pt x="362" y="665" on="0"/>
        <pt x="299" y="684" on="0"/>
        <pt x="260" y="684" on="1"/>
        <pt x="195" y="684" on="0"/>
        <pt x="107" y="627" on="0"/>
        <pt x="107" y="559" on="1"/>
        <pt x="107" y="518" on="0"/>
        <pt x="144" y="463" on="0"/>
        <pt x="203" y="433" on="0"/>
        <pt x="274" y="409" on="0"/>
        <pt x="346" y="379" on="0"/>
        <pt x="405" y="335" on="0"/>
        <pt x="442" y="254" on="0"/>
        <pt x="442" y="197" on="1"/>
        <pt x="442" y="95" on="0"/>
        <pt x="331" y="-6" on="0"/>
        <pt x="238" y="-6" on="1"/>
        <pt x="152" y="-6" on="0"/>
        <pt x="39" y="68" on="0"/>
      </contour>
      <contour>
        <pt x="108" y="876" on="1"/>
        <pt x="108" y="888" on="0"/>
        <pt x="119" y="893" on="1"/>
        <pt x="223" y="949" on="1"/>
        <pt x="231" y="954" on="0"/>
        <pt x="249" y="954" on="0"/>
        <pt x="257" y="949" on="1"/>
        <pt x="361" y="894" on="1"/>
        <pt x="372" y="888" on="0"/>
        <pt x="372" y="874" on="1"/>
        <pt x="372" y="866" on="0"/>
        <pt x="361" y="854" on="0"/>
        <pt x="353" y="854" on="1"/>
        <pt x="344" y="857" on="1"/>
        <pt x="240" y="912" on="1"/>
        <pt x="136" y="856" on="1"/>
        <pt x="135" y="856" on="0"/>
        <pt x="129" y="853" on="0"/>
        <pt x="128" y="853" on="1"/>
        <pt x="120" y="853" on="0"/>
        <pt x="108" y="866" on="0"/>
      </contour>
    </TTGlyph>
    <TTGlyph name="Scommaaccent" xMin="39" yMin="-149" xMax="442" yMax="732">
      <contour>
        <pt x="39" y="98" on="1"/>
        <pt x="39" y="108" on="0"/>
        <pt x="54" y="126" on="0"/>
        <pt x="62" y="126" on="1"/>
        <pt x="69" y="126" on="0"/>
        <pt x="80" y="113" on="1"/>
        <pt x="107" y="84" on="1"/>
        <pt x="122" y="68" on="0"/>
        <pt x="189" y="42" on="0"/>
        <pt x="233" y="42" on="1"/>
        <pt x="310" y="42" on="0"/>
        <pt x="392" y="118" on="0"/>
        <pt x="392" y="192" on="1"/>
        <pt x="392" y="248" on="0"/>
        <pt x="342" y="322" on="0"/>
        <pt x="268" y="354" on="0"/>
        <pt x="181" y="388" on="0"/>
        <pt x="107" y="421" on="0"/>
        <pt x="57" y="497" on="0"/>
        <pt x="57" y="555" on="1"/>
        <pt x="57" y="607" on="0"/>
        <pt x="95" y="680" on="0"/>
        <pt x="159" y="717" on="0"/>
        <pt x="224" y="732" on="0"/>
        <pt x="261" y="732" on="1"/>
        <pt x="321" y="732" on="0"/>
        <pt x="424" y="697" on="0"/>
        <pt x="424" y="675" on="1"/>
        <pt x="424" y="666" on="0"/>
        <pt x="410" y="646" on="0"/>
        <pt x="401" y="646" on="1"/>
        <pt x="396" y="646" on="0"/>
        <pt x="362" y="665" on="0"/>
        <pt x="299" y="684" on="0"/>
        <pt x="260" y="684" on="1"/>
        <pt x="195" y="684" on="0"/>
        <pt x="107" y="627" on="0"/>
        <pt x="107" y="559" on="1"/>
        <pt x="107" y="518" on="0"/>
        <pt x="144" y="463" on="0"/>
        <pt x="203" y="433" on="0"/>
        <pt x="274" y="409" on="0"/>
        <pt x="346" y="379" on="0"/>
        <pt x="405" y="335" on="0"/>
        <pt x="442" y="254" on="0"/>
        <pt x="442" y="197" on="1"/>
        <pt x="442" y="95" on="0"/>
        <pt x="331" y="-6" on="0"/>
        <pt x="238" y="-6" on="1"/>
        <pt x="152" y="-6" on="0"/>
        <pt x="39" y="68" on="0"/>
      </contour>
      <contour>
        <pt x="182" y="-126" on="1"/>
        <pt x="182" y="-115" on="0"/>
        <pt x="192" y="-111" on="1"/>
        <pt x="298" y="-50" on="1"/>
        <pt x="304" y="-48" on="0"/>
        <pt x="306" y="-48" on="1"/>
        <pt x="315" y="-48" on="0"/>
        <pt x="326" y="-62" on="0"/>
        <pt x="326" y="-71" on="1"/>
        <pt x="326" y="-84" on="0"/>
        <pt x="314" y="-91" on="1"/>
        <pt x="214" y="-146" on="1"/>
        <pt x="210" y="-149" on="0"/>
        <pt x="205" y="-149" on="1"/>
        <pt x="196" y="-149" on="0"/>
        <pt x="182" y="-135" on="0"/>
      </contour>
    </TTGlyph>
    <TTGlyph name="T" xMin="15" yMin="0" xMax="453" yMax="731">
      <contour>
        <pt x="15" y="697" on="0"/>
        <pt x="15" y="717" on="0"/>
        <pt x="27" y="731" on="0"/>
        <pt x="36" y="731" on="1"/>
        <pt x="432" y="731" on="1"/>
        <pt x="453" y="731" on="0"/>
        <pt x="453" y="708" on="1"/>
        <pt x="453" y="683" on="0"/>
        <pt x="432" y="683" on="1"/>
        <pt x="260" y="683" on="1"/>
        <pt x="260" y="22" on="1"/>
        <pt x="260" y="0" on="0"/>
        <pt x="210" y="0" on="0"/>
        <pt x="210" y="22" on="1"/>
        <pt x="210" y="683" on="1"/>
        <pt x="36" y="683" on="1"/>
        <pt x="27" y="683" on="0"/>
      </contour>
    </TTGlyph>
    <TTGlyph name="Tbar" xMin="16" yMin="0" xMax="454" yMax="731">
      <contour>
        <pt x="16" y="697" on="0"/>
        <pt x="16" y="717" on="0"/>
        <pt x="28" y="731" on="0"/>
        <pt x="37" y="731" on="1"/>
        <pt x="433" y="731" on="1"/>
        <pt x="454" y="731" on="0"/>
        <pt x="454" y="708" on="1"/>
        <pt x="454" y="683" on="0"/>
        <pt x="433" y="683" on="1"/>
        <pt x="261" y="683" on="1"/>
        <pt x="261" y="387" on="1"/>
        <pt x="398" y="387" on="1"/>
        <pt x="419" y="387" on="0"/>
        <pt x="419" y="366" on="1"/>
        <pt x="419" y="343" on="0"/>
        <pt x="398" y="343" on="1"/>
        <pt x="261" y="343" on="1"/>
        <pt x="261" y="22" on="1"/>
        <pt x="261" y="0" on="0"/>
        <pt x="211" y="0" on="0"/>
        <pt x="211" y="22" on="1"/>
        <pt x="211" y="343" on="1"/>
        <pt x="72" y="343" on="1"/>
        <pt x="52" y="343" on="0"/>
        <pt x="52" y="387" on="0"/>
        <pt x="72" y="387" on="1"/>
        <pt x="211" y="387" on="1"/>
        <pt x="211" y="683" on="1"/>
        <pt x="37" y="683" on="1"/>
        <pt x="28" y="683" on="0"/>
      </contour>
    </TTGlyph>
    <TTGlyph name="Tcaron" xMin="15" yMin="0" xMax="453" yMax="988">
      <contour>
        <pt x="15" y="697" on="0"/>
        <pt x="15" y="717" on="0"/>
        <pt x="27" y="731" on="0"/>
        <pt x="36" y="731" on="1"/>
        <pt x="432" y="731" on="1"/>
        <pt x="453" y="731" on="0"/>
        <pt x="453" y="708" on="1"/>
        <pt x="453" y="683" on="0"/>
        <pt x="432" y="683" on="1"/>
        <pt x="260" y="683" on="1"/>
        <pt x="260" y="22" on="1"/>
        <pt x="260" y="0" on="0"/>
        <pt x="210" y="0" on="0"/>
        <pt x="210" y="22" on="1"/>
        <pt x="210" y="683" on="1"/>
        <pt x="36" y="683" on="1"/>
        <pt x="27" y="683" on="0"/>
      </contour>
      <contour>
        <pt x="102" y="969" on="1"/>
        <pt x="102" y="976" on="0"/>
        <pt x="112" y="988" on="0"/>
        <pt x="119" y="988" on="1"/>
        <pt x="127" y="988" on="0"/>
        <pt x="134" y="981" on="1"/>
        <pt x="233" y="883" on="1"/>
        <pt x="331" y="981" on="1"/>
        <pt x="338" y="988" on="0"/>
        <pt x="347" y="988" on="1"/>
        <pt x="354" y="988" on="0"/>
        <pt x="364" y="976" on="0"/>
        <pt x="364" y="962" on="0"/>
        <pt x="354" y="950" on="1"/>
        <pt x="253" y="854" on="1"/>
        <pt x="241" y="844" on="0"/>
        <pt x="233" y="844" on="1"/>
        <pt x="222" y="844" on="0"/>
        <pt x="212" y="854" on="1"/>
        <pt x="112" y="950" on="1"/>
        <pt x="102" y="960" on="0"/>
      </contour>
    </TTGlyph>
    <TTGlyph name="Tcommaaccent" xMin="15" yMin="-149" xMax="453" yMax="731">
      <contour>
        <pt x="15" y="697" on="0"/>
        <pt x="15" y="717" on="0"/>
        <pt x="27" y="731" on="0"/>
        <pt x="36" y="731" on="1"/>
        <pt x="432" y="731" on="1"/>
        <pt x="453" y="731" on="0"/>
        <pt x="453" y="708" on="1"/>
        <pt x="453" y="683" on="0"/>
        <pt x="432" y="683" on="1"/>
        <pt x="260" y="683" on="1"/>
        <pt x="260" y="22" on="1"/>
        <pt x="260" y="0" on="0"/>
        <pt x="210" y="0" on="0"/>
        <pt x="210" y="22" on="1"/>
        <pt x="210" y="683" on="1"/>
        <pt x="36" y="683" on="1"/>
        <pt x="27" y="683" on="0"/>
      </contour>
      <contour>
        <pt x="162" y="-126" on="1"/>
        <pt x="162" y="-115" on="0"/>
        <pt x="172" y="-111" on="1"/>
        <pt x="278" y="-50" on="1"/>
        <pt x="284" y="-48" on="0"/>
        <pt x="286" y="-48" on="1"/>
        <pt x="295" y="-48" on="0"/>
        <pt x="306" y="-62" on="0"/>
        <pt x="306" y="-71" on="1"/>
        <pt x="306" y="-84" on="0"/>
        <pt x="294" y="-91" on="1"/>
        <pt x="194" y="-146" on="1"/>
        <pt x="190" y="-149" on="0"/>
        <pt x="185" y="-149" on="1"/>
        <pt x="176" y="-149" on="0"/>
        <pt x="162" y="-135" on="0"/>
      </contour>
    </TTGlyph>
    <TTGlyph name="Thorn" xMin="79" yMin="0" xMax="441" yMax="733">
      <contour>
        <pt x="79" y="22" on="1"/>
        <pt x="79" y="713" on="1"/>
        <pt x="79" y="733" on="0"/>
        <pt x="103" y="733" on="1"/>
        <pt x="128" y="733" on="0"/>
        <pt x="128" y="712" on="1"/>
        <pt x="128" y="543" on="1"/>
        <pt x="172" y="619" on="0"/>
        <pt x="269" y="619" on="1"/>
        <pt x="340" y="619" on="0"/>
        <pt x="441" y="536" on="0"/>
        <pt x="441" y="466" on="1"/>
        <pt x="441" y="288" on="1"/>
        <pt x="441" y="218" on="0"/>
        <pt x="339" y="134" on="0"/>
        <pt x="274" y="134" on="1"/>
        <pt x="226" y="134" on="0"/>
        <pt x="141" y="178" on="0"/>
        <pt x="128" y="212" on="1"/>
        <pt x="128" y="22" on="1"/>
        <pt x="128" y="14" on="0"/>
        <pt x="114" y="0" on="0"/>
        <pt x="94" y="0" on="0"/>
        <pt x="79" y="14" on="0"/>
      </contour>
      <contour>
        <pt x="128" y="287" on="1"/>
        <pt x="128" y="247" on="0"/>
        <pt x="208" y="180" on="0"/>
        <pt x="265" y="180" on="1"/>
        <pt x="316" y="180" on="0"/>
        <pt x="392" y="237" on="0"/>
        <pt x="392" y="288" on="1"/>
        <pt x="392" y="466" on="1"/>
        <pt x="392" y="516" on="0"/>
        <pt x="317" y="572" on="0"/>
        <pt x="265" y="572" on="1"/>
        <pt x="209" y="572" on="0"/>
        <pt x="128" y="512" on="0"/>
        <pt x="128" y="466" on="1"/>
      </contour>
    </TTGlyph>
    <TTGlyph name="U" xMin="76" yMin="-6" xMax="481" yMax="731">
      <contour>
        <pt x="76" y="204" on="1"/>
        <pt x="76" y="710" on="1"/>
        <pt x="76" y="731" on="0"/>
        <pt x="126" y="731" on="0"/>
        <pt x="126" y="710" on="1"/>
        <pt x="126" y="204" on="1"/>
        <pt x="126" y="123" on="0"/>
        <pt x="205" y="42" on="0"/>
        <pt x="351" y="42" on="0"/>
        <pt x="431" y="123" on="0"/>
        <pt x="431" y="204" on="1"/>
        <pt x="431" y="710" on="1"/>
        <pt x="431" y="731" on="0"/>
        <pt x="481" y="731" on="0"/>
        <pt x="481" y="710" on="1"/>
        <pt x="481" y="204" on="1"/>
        <pt x="481" y="95" on="0"/>
        <pt x="370" y="-6" on="0"/>
        <pt x="186" y="-6" on="0"/>
        <pt x="76" y="95" on="0"/>
      </contour>
    </TTGlyph>
    <TTGlyph name="Uacute" xMin="76" yMin="-6" xMax="481" yMax="954">
      <contour>
        <pt x="76" y="204" on="1"/>
        <pt x="76" y="710" on="1"/>
        <pt x="76" y="731" on="0"/>
        <pt x="126" y="731" on="0"/>
        <pt x="126" y="710" on="1"/>
        <pt x="126" y="204" on="1"/>
        <pt x="126" y="123" on="0"/>
        <pt x="205" y="42" on="0"/>
        <pt x="351" y="42" on="0"/>
        <pt x="431" y="123" on="0"/>
        <pt x="431" y="204" on="1"/>
        <pt x="431" y="710" on="1"/>
        <pt x="431" y="731" on="0"/>
        <pt x="481" y="731" on="0"/>
        <pt x="481" y="710" on="1"/>
        <pt x="481" y="204" on="1"/>
        <pt x="481" y="95" on="0"/>
        <pt x="370" y="-6" on="0"/>
        <pt x="186" y="-6" on="0"/>
        <pt x="76" y="95" on="0"/>
      </contour>
      <contour>
        <pt x="210" y="876" on="1"/>
        <pt x="210" y="887" on="0"/>
        <pt x="219" y="891" on="1"/>
        <pt x="326" y="952" on="1"/>
        <pt x="330" y="954" on="0"/>
        <pt x="334" y="954" on="1"/>
        <pt x="343" y="954" on="0"/>
        <pt x="353" y="940" on="0"/>
        <pt x="353" y="931" on="1"/>
        <pt x="353" y="918" on="0"/>
        <pt x="342" y="911" on="1"/>
        <pt x="242" y="856" on="1"/>
        <pt x="238" y="853" on="0"/>
        <pt x="232" y="853" on="1"/>
        <pt x="223" y="853" on="0"/>
        <pt x="210" y="867" on="0"/>
      </contour>
    </TTGlyph>
    <TTGlyph name="Ubreve" xMin="76" yMin="-6" xMax="481" yMax="969">
      <contour>
        <pt x="76" y="204" on="1"/>
        <pt x="76" y="710" on="1"/>
        <pt x="76" y="731" on="0"/>
        <pt x="126" y="731" on="0"/>
        <pt x="126" y="710" on="1"/>
        <pt x="126" y="204" on="1"/>
        <pt x="126" y="123" on="0"/>
        <pt x="205" y="42" on="0"/>
        <pt x="351" y="42" on="0"/>
        <pt x="431" y="123" on="0"/>
        <pt x="431" y="204" on="1"/>
        <pt x="431" y="710" on="1"/>
        <pt x="431" y="731" on="0"/>
        <pt x="481" y="731" on="0"/>
        <pt x="481" y="710" on="1"/>
        <pt x="481" y="204" on="1"/>
        <pt x="481" y="95" on="0"/>
        <pt x="370" y="-6" on="0"/>
        <pt x="186" y="-6" on="0"/>
        <pt x="76" y="95" on="0"/>
      </contour>
      <contour>
        <pt x="165" y="969" on="1"/>
        <pt x="203" y="969" on="1"/>
        <pt x="203" y="935" on="0"/>
        <pt x="247" y="887" on="0"/>
        <pt x="278" y="887" on="1"/>
        <pt x="308" y="887" on="0"/>
        <pt x="352" y="935" on="0"/>
        <pt x="352" y="969" on="1"/>
        <pt x="390" y="969" on="1"/>
        <pt x="390" y="924" on="0"/>
        <pt x="322" y="856" on="0"/>
        <pt x="278" y="856" on="1"/>
        <pt x="233" y="856" on="0"/>
        <pt x="165" y="923" on="0"/>
      </contour>
    </TTGlyph>
    <TTGlyph name="Ucircumflex" xMin="76" yMin="-6" xMax="481" yMax="954">
      <contour>
        <pt x="76" y="204" on="1"/>
        <pt x="76" y="710" on="1"/>
        <pt x="76" y="731" on="0"/>
        <pt x="126" y="731" on="0"/>
        <pt x="126" y="710" on="1"/>
        <pt x="126" y="204" on="1"/>
        <pt x="126" y="123" on="0"/>
        <pt x="205" y="42" on="0"/>
        <pt x="351" y="42" on="0"/>
        <pt x="431" y="123" on="0"/>
        <pt x="431" y="204" on="1"/>
        <pt x="431" y="710" on="1"/>
        <pt x="431" y="731" on="0"/>
        <pt x="481" y="731" on="0"/>
        <pt x="481" y="710" on="1"/>
        <pt x="481" y="204" on="1"/>
        <pt x="481" y="95" on="0"/>
        <pt x="370" y="-6" on="0"/>
        <pt x="186" y="-6" on="0"/>
        <pt x="76" y="95" on="0"/>
      </contour>
      <contour>
        <pt x="145" y="876" on="1"/>
        <pt x="145" y="888" on="0"/>
        <pt x="156" y="893" on="1"/>
        <pt x="260" y="949" on="1"/>
        <pt x="268" y="954" on="0"/>
        <pt x="286" y="954" on="0"/>
        <pt x="294" y="949" on="1"/>
        <pt x="398" y="894" on="1"/>
        <pt x="409" y="888" on="0"/>
        <pt x="409" y="874" on="1"/>
        <pt x="409" y="866" on="0"/>
        <pt x="398" y="854" on="0"/>
        <pt x="390" y="854" on="1"/>
        <pt x="381" y="857" on="1"/>
        <pt x="277" y="912" on="1"/>
        <pt x="173" y="856" on="1"/>
        <pt x="172" y="856" on="0"/>
        <pt x="166" y="853" on="0"/>
        <pt x="165" y="853" on="1"/>
        <pt x="157" y="853" on="0"/>
        <pt x="145" y="866" on="0"/>
      </contour>
    </TTGlyph>
    <TTGlyph name="Udieresis" xMin="76" yMin="-6" xMax="481" yMax="919">
      <contour>
        <pt x="76" y="204" on="1"/>
        <pt x="76" y="710" on="1"/>
        <pt x="76" y="731" on="0"/>
        <pt x="126" y="731" on="0"/>
        <pt x="126" y="710" on="1"/>
        <pt x="126" y="204" on="1"/>
        <pt x="126" y="123" on="0"/>
        <pt x="205" y="42" on="0"/>
        <pt x="351" y="42" on="0"/>
        <pt x="431" y="123" on="0"/>
        <pt x="431" y="204" on="1"/>
        <pt x="431" y="710" on="1"/>
        <pt x="431" y="731" on="0"/>
        <pt x="481" y="731" on="0"/>
        <pt x="481" y="710" on="1"/>
        <pt x="481" y="204" on="1"/>
        <pt x="481" y="95" on="0"/>
        <pt x="370" y="-6" on="0"/>
        <pt x="186" y="-6" on="0"/>
        <pt x="76" y="95" on="0"/>
      </contour>
      <contour>
        <pt x="187" y="873" on="0"/>
        <pt x="187" y="901" on="0"/>
        <pt x="206" y="919" on="0"/>
        <pt x="234" y="919" on="0"/>
        <pt x="252" y="901" on="0"/>
        <pt x="252" y="873" on="0"/>
        <pt x="234" y="854" on="0"/>
        <pt x="206" y="854" on="0"/>
      </contour>
      <contour>
        <pt x="304" y="873" on="0"/>
        <pt x="304" y="901" on="0"/>
        <pt x="322" y="919" on="0"/>
        <pt x="337" y="919" on="1"/>
        <pt x="351" y="919" on="0"/>
        <pt x="369" y="901" on="0"/>
        <pt x="369" y="873" on="0"/>
        <pt x="351" y="854" on="0"/>
        <pt x="337" y="854" on="1"/>
        <pt x="322" y="854" on="0"/>
      </contour>
    </TTGlyph>
    <TTGlyph name="Ugrave" xMin="76" yMin="-6" xMax="481" yMax="954">
      <contour>
        <pt x="76" y="204" on="1"/>
        <pt x="76" y="710" on="1"/>
        <pt x="76" y="731" on="0"/>
        <pt x="126" y="731" on="0"/>
        <pt x="126" y="710" on="1"/>
        <pt x="126" y="204" on="1"/>
        <pt x="126" y="123" on="0"/>
        <pt x="205" y="42" on="0"/>
        <pt x="351" y="42" on="0"/>
        <pt x="431" y="123" on="0"/>
        <pt x="431" y="204" on="1"/>
        <pt x="431" y="710" on="1"/>
        <pt x="431" y="731" on="0"/>
        <pt x="481" y="731" on="0"/>
        <pt x="481" y="710" on="1"/>
        <pt x="481" y="204" on="1"/>
        <pt x="481" y="95" on="0"/>
        <pt x="370" y="-6" on="0"/>
        <pt x="186" y="-6" on="0"/>
        <pt x="76" y="95" on="0"/>
      </contour>
      <contour>
        <pt x="204" y="931" on="1"/>
        <pt x="204" y="940" on="0"/>
        <pt x="215" y="954" on="0"/>
        <pt x="224" y="954" on="1"/>
        <pt x="227" y="954" on="0"/>
        <pt x="231" y="952" on="1"/>
        <pt x="338" y="891" on="1"/>
        <pt x="347" y="887" on="0"/>
        <pt x="347" y="876" on="1"/>
        <pt x="347" y="867" on="0"/>
        <pt x="334" y="853" on="0"/>
        <pt x="325" y="853" on="1"/>
        <pt x="321" y="853" on="0"/>
        <pt x="315" y="856" on="1"/>
        <pt x="215" y="911" on="1"/>
        <pt x="204" y="918" on="0"/>
      </contour>
    </TTGlyph>
    <TTGlyph name="Uhungarumlaut" xMin="76" yMin="-6" xMax="481" yMax="954">
      <contour>
        <pt x="76" y="204" on="1"/>
        <pt x="76" y="710" on="1"/>
        <pt x="76" y="731" on="0"/>
        <pt x="126" y="731" on="0"/>
        <pt x="126" y="710" on="1"/>
        <pt x="126" y="204" on="1"/>
        <pt x="126" y="123" on="0"/>
        <pt x="205" y="42" on="0"/>
        <pt x="351" y="42" on="0"/>
        <pt x="431" y="123" on="0"/>
        <pt x="431" y="204" on="1"/>
        <pt x="431" y="710" on="1"/>
        <pt x="431" y="731" on="0"/>
        <pt x="481" y="731" on="0"/>
        <pt x="481" y="710" on="1"/>
        <pt x="481" y="204" on="1"/>
        <pt x="481" y="95" on="0"/>
        <pt x="370" y="-6" on="0"/>
        <pt x="186" y="-6" on="0"/>
        <pt x="76" y="95" on="0"/>
      </contour>
      <contour>
        <pt x="184" y="874" on="1"/>
        <pt x="184" y="883" on="0"/>
        <pt x="192" y="887" on="1"/>
        <pt x="291" y="951" on="1"/>
        <pt x="296" y="954" on="0"/>
        <pt x="300" y="954" on="1"/>
        <pt x="308" y="954" on="0"/>
        <pt x="319" y="941" on="0"/>
        <pt x="319" y="933" on="1"/>
        <pt x="319" y="922" on="0"/>
        <pt x="310" y="915" on="1"/>
        <pt x="217" y="857" on="1"/>
        <pt x="212" y="853" on="0"/>
        <pt x="206" y="853" on="1"/>
        <pt x="198" y="853" on="0"/>
        <pt x="184" y="866" on="0"/>
      </contour>
      <contour>
        <pt x="333" y="874" on="1"/>
        <pt x="333" y="883" on="0"/>
        <pt x="340" y="887" on="1"/>
        <pt x="440" y="951" on="1"/>
        <pt x="443" y="954" on="0"/>
        <pt x="448" y="954" on="1"/>
        <pt x="457" y="954" on="0"/>
        <pt x="468" y="942" on="0"/>
        <pt x="468" y="933" on="1"/>
        <pt x="468" y="922" on="0"/>
        <pt x="458" y="915" on="1"/>
        <pt x="365" y="857" on="1"/>
        <pt x="361" y="853" on="0"/>
        <pt x="355" y="853" on="1"/>
        <pt x="346" y="853" on="0"/>
        <pt x="333" y="866" on="0"/>
      </contour>
    </TTGlyph>
    <TTGlyph name="Umacron" xMin="76" yMin="-6" xMax="481" yMax="941">
      <contour>
        <pt x="76" y="204" on="1"/>
        <pt x="76" y="710" on="1"/>
        <pt x="76" y="731" on="0"/>
        <pt x="126" y="731" on="0"/>
        <pt x="126" y="710" on="1"/>
        <pt x="126" y="204" on="1"/>
        <pt x="126" y="123" on="0"/>
        <pt x="205" y="42" on="0"/>
        <pt x="351" y="42" on="0"/>
        <pt x="431" y="123" on="0"/>
        <pt x="431" y="204" on="1"/>
        <pt x="431" y="710" on="1"/>
        <pt x="431" y="731" on="0"/>
        <pt x="481" y="731" on="0"/>
        <pt x="481" y="710" on="1"/>
        <pt x="481" y="204" on="1"/>
        <pt x="481" y="95" on="0"/>
        <pt x="370" y="-6" on="0"/>
        <pt x="186" y="-6" on="0"/>
        <pt x="76" y="95" on="0"/>
      </contour>
      <contour>
        <pt x="148" y="919" on="1"/>
        <pt x="148" y="941" on="0"/>
        <pt x="169" y="941" on="1"/>
        <pt x="386" y="941" on="1"/>
        <pt x="394" y="941" on="0"/>
        <pt x="408" y="928" on="0"/>
        <pt x="408" y="910" on="0"/>
        <pt x="395" y="899" on="0"/>
        <pt x="386" y="899" on="1"/>
        <pt x="169" y="899" on="1"/>
        <pt x="148" y="899" on="0"/>
      </contour>
    </TTGlyph>
    <TTGlyph name="Uogonek" xMin="76" yMin="-198" xMax="481" yMax="731">
      <contour>
        <pt x="76" y="204" on="1"/>
        <pt x="76" y="710" on="1"/>
        <pt x="76" y="731" on="0"/>
        <pt x="126" y="731" on="0"/>
        <pt x="126" y="710" on="1"/>
        <pt x="126" y="204" on="1"/>
        <pt x="126" y="123" on="0"/>
        <pt x="205" y="42" on="0"/>
        <pt x="351" y="42" on="0"/>
        <pt x="431" y="123" on="0"/>
        <pt x="431" y="204" on="1"/>
        <pt x="431" y="710" on="1"/>
        <pt x="431" y="731" on="0"/>
        <pt x="481" y="731" on="0"/>
        <pt x="481" y="710" on="1"/>
        <pt x="481" y="204" on="1"/>
        <pt x="481" y="38" on="0"/>
        <pt x="348" y="2" on="1"/>
        <pt x="276" y="-65" on="0"/>
        <pt x="276" y="-124" on="1"/>
        <pt x="276" y="-167" on="0"/>
        <pt x="339" y="-167" on="1"/>
        <pt x="357" y="-167" on="0"/>
        <pt x="357" y="-183" on="1"/>
        <pt x="357" y="-198" on="0"/>
        <pt x="333" y="-198" on="1"/>
        <pt x="296" y="-198" on="0"/>
        <pt x="242" y="-164" on="0"/>
        <pt x="242" y="-127" on="1"/>
        <pt x="242" y="-63" on="0"/>
        <pt x="295" y="-5" on="1"/>
        <pt x="289" y="-6" on="0"/>
        <pt x="278" y="-6" on="1"/>
        <pt x="186" y="-6" on="0"/>
        <pt x="76" y="95" on="0"/>
      </contour>
    </TTGlyph>
    <TTGlyph name="Uring" xMin="76" yMin="-6" xMax="481" yMax="1025">
      <contour>
        <pt x="76" y="204" on="1"/>
        <pt x="76" y="710" on="1"/>
        <pt x="76" y="731" on="0"/>
        <pt x="126" y="731" on="0"/>
        <pt x="126" y="710" on="1"/>
        <pt x="126" y="204" on="1"/>
        <pt x="126" y="123" on="0"/>
        <pt x="205" y="42" on="0"/>
        <pt x="351" y="42" on="0"/>
        <pt x="431" y="123" on="0"/>
        <pt x="431" y="204" on="1"/>
        <pt x="431" y="710" on="1"/>
        <pt x="431" y="731" on="0"/>
        <pt x="481" y="731" on="0"/>
        <pt x="481" y="710" on="1"/>
        <pt x="481" y="204" on="1"/>
        <pt x="481" y="95" on="0"/>
        <pt x="370" y="-6" on="0"/>
        <pt x="186" y="-6" on="0"/>
        <pt x="76" y="95" on="0"/>
      </contour>
      <contour>
        <pt x="187" y="933" on="1"/>
        <pt x="187" y="970" on="0"/>
        <pt x="240" y="1025" on="0"/>
        <pt x="278" y="1025" on="1"/>
        <pt x="314" y="1025" on="0"/>
        <pt x="369" y="970" on="0"/>
        <pt x="369" y="896" on="0"/>
        <pt x="314" y="839" on="0"/>
        <pt x="278" y="839" on="1"/>
        <pt x="241" y="839" on="0"/>
        <pt x="187" y="895" on="0"/>
      </contour>
      <contour>
        <pt x="215" y="933" on="1"/>
        <pt x="215" y="908" on="0"/>
        <pt x="253" y="866" on="0"/>
        <pt x="303" y="866" on="0"/>
        <pt x="340" y="907" on="0"/>
        <pt x="340" y="933" on="1"/>
        <pt x="340" y="956" on="0"/>
        <pt x="303" y="995" on="0"/>
        <pt x="253" y="995" on="0"/>
        <pt x="215" y="956" on="0"/>
      </contour>
    </TTGlyph>
    <TTGlyph name="Utilde" xMin="76" yMin="-6" xMax="481" yMax="949">
      <contour>
        <pt x="76" y="204" on="1"/>
        <pt x="76" y="710" on="1"/>
        <pt x="76" y="731" on="0"/>
        <pt x="126" y="731" on="0"/>
        <pt x="126" y="710" on="1"/>
        <pt x="126" y="204" on="1"/>
        <pt x="126" y="123" on="0"/>
        <pt x="205" y="42" on="0"/>
        <pt x="351" y="42" on="0"/>
        <pt x="431" y="123" on="0"/>
        <pt x="431" y="204" on="1"/>
        <pt x="431" y="710" on="1"/>
        <pt x="431" y="731" on="0"/>
        <pt x="481" y="731" on="0"/>
        <pt x="481" y="710" on="1"/>
        <pt x="481" y="204" on="1"/>
        <pt x="481" y="95" on="0"/>
        <pt x="370" y="-6" on="0"/>
        <pt x="186" y="-6" on="0"/>
        <pt x="76" y="95" on="0"/>
      </contour>
      <contour>
        <pt x="127" y="895" on="1"/>
        <pt x="127" y="917" on="0"/>
        <pt x="188" y="949" on="0"/>
        <pt x="216" y="949" on="1"/>
        <pt x="241" y="949" on="0"/>
        <pt x="319" y="913" on="0"/>
        <pt x="371" y="913" on="0"/>
        <pt x="407" y="944" on="0"/>
        <pt x="412" y="944" on="1"/>
        <pt x="419" y="944" on="0"/>
        <pt x="429" y="932" on="0"/>
        <pt x="429" y="925" on="1"/>
        <pt x="429" y="901" on="0"/>
        <pt x="372" y="871" on="0"/>
        <pt x="345" y="871" on="1"/>
        <pt x="320" y="871" on="0"/>
        <pt x="242" y="907" on="0"/>
        <pt x="214" y="907" on="1"/>
        <pt x="189" y="907" on="0"/>
        <pt x="147" y="874" on="0"/>
        <pt x="143" y="874" on="1"/>
        <pt x="127" y="874" on="0"/>
      </contour>
    </TTGlyph>
    <TTGlyph name="V" xMin="22" yMin="-6" xMax="506" yMax="731">
      <contour>
        <pt x="22" y="709" on="1"/>
        <pt x="22" y="719" on="0"/>
        <pt x="39" y="731" on="0"/>
        <pt x="50" y="731" on="1"/>
        <pt x="67" y="731" on="0"/>
        <pt x="72" y="716" on="1"/>
        <pt x="265" y="84" on="1"/>
        <pt x="457" y="716" on="1"/>
        <pt x="461" y="731" on="0"/>
        <pt x="477" y="731" on="1"/>
        <pt x="488" y="731" on="0"/>
        <pt x="506" y="718" on="0"/>
        <pt x="506" y="709" on="1"/>
        <pt x="506" y="707" on="0"/>
        <pt x="505" y="704" on="0"/>
        <pt x="505" y="703" on="1"/>
        <pt x="293" y="12" on="1"/>
        <pt x="288" y="-6" on="0"/>
        <pt x="265" y="-6" on="1"/>
        <pt x="243" y="-6" on="0"/>
        <pt x="237" y="12" on="1"/>
        <pt x="23" y="703" on="1"/>
        <pt x="22" y="705" on="0"/>
      </contour>
    </TTGlyph>
    <TTGlyph name="W" xMin="24" yMin="-6" xMax="738" yMax="731">
      <contour>
        <pt x="24" y="710" on="1"/>
        <pt x="24" y="719" on="0"/>
        <pt x="41" y="731" on="0"/>
        <pt x="51" y="731" on="1"/>
        <pt x="70" y="731" on="0"/>
        <pt x="74" y="716" on="1"/>
        <pt x="251" y="84" on="1"/>
        <pt x="353" y="463" on="1"/>
        <pt x="358" y="483" on="0"/>
        <pt x="402" y="483" on="0"/>
        <pt x="408" y="463" on="1"/>
        <pt x="513" y="84" on="1"/>
        <pt x="688" y="716" on="1"/>
        <pt x="692" y="731" on="0"/>
        <pt x="711" y="731" on="1"/>
        <pt x="721" y="731" on="0"/>
        <pt x="738" y="719" on="0"/>
        <pt x="738" y="710" on="1"/>
        <pt x="738" y="706" on="0"/>
        <pt x="737" y="703" on="1"/>
        <pt x="541" y="12" on="1"/>
        <pt x="535" y="-6" on="0"/>
        <pt x="512" y="-6" on="1"/>
        <pt x="488" y="-6" on="0"/>
        <pt x="485" y="12" on="1"/>
        <pt x="382" y="386" on="1"/>
        <pt x="279" y="12" on="1"/>
        <pt x="274" y="-6" on="0"/>
        <pt x="228" y="-6" on="0"/>
        <pt x="223" y="12" on="1"/>
        <pt x="25" y="703" on="1"/>
        <pt x="24" y="706" on="0"/>
      </contour>
    </TTGlyph>
    <TTGlyph name="Wacute" xMin="24" yMin="-6" xMax="738" yMax="954">
      <contour>
        <pt x="24" y="710" on="1"/>
        <pt x="24" y="719" on="0"/>
        <pt x="41" y="731" on="0"/>
        <pt x="51" y="731" on="1"/>
        <pt x="70" y="731" on="0"/>
        <pt x="74" y="716" on="1"/>
        <pt x="251" y="84" on="1"/>
        <pt x="353" y="463" on="1"/>
        <pt x="358" y="483" on="0"/>
        <pt x="402" y="483" on="0"/>
        <pt x="408" y="463" on="1"/>
        <pt x="513" y="84" on="1"/>
        <pt x="688" y="716" on="1"/>
        <pt x="692" y="731" on="0"/>
        <pt x="711" y="731" on="1"/>
        <pt x="721" y="731" on="0"/>
        <pt x="738" y="719" on="0"/>
        <pt x="738" y="710" on="1"/>
        <pt x="738" y="706" on="0"/>
        <pt x="737" y="703" on="1"/>
        <pt x="541" y="12" on="1"/>
        <pt x="535" y="-6" on="0"/>
        <pt x="512" y="-6" on="1"/>
        <pt x="488" y="-6" on="0"/>
        <pt x="485" y="12" on="1"/>
        <pt x="382" y="386" on="1"/>
        <pt x="279" y="12" on="1"/>
        <pt x="274" y="-6" on="0"/>
        <pt x="228" y="-6" on="0"/>
        <pt x="223" y="12" on="1"/>
        <pt x="25" y="703" on="1"/>
        <pt x="24" y="706" on="0"/>
      </contour>
      <contour>
        <pt x="312" y="876" on="1"/>
        <pt x="312" y="887" on="0"/>
        <pt x="321" y="891" on="1"/>
        <pt x="428" y="952" on="1"/>
        <pt x="432" y="954" on="0"/>
        <pt x="436" y="954" on="1"/>
        <pt x="445" y="954" on="0"/>
        <pt x="455" y="940" on="0"/>
        <pt x="455" y="931" on="1"/>
        <pt x="455" y="918" on="0"/>
        <pt x="444" y="911" on="1"/>
        <pt x="344" y="856" on="1"/>
        <pt x="340" y="853" on="0"/>
        <pt x="334" y="853" on="1"/>
        <pt x="325" y="853" on="0"/>
        <pt x="312" y="867" on="0"/>
      </contour>
    </TTGlyph>
    <TTGlyph name="Wcircumflex" xMin="24" yMin="-6" xMax="738" yMax="954">
      <contour>
        <pt x="24" y="710" on="1"/>
        <pt x="24" y="719" on="0"/>
        <pt x="41" y="731" on="0"/>
        <pt x="51" y="731" on="1"/>
        <pt x="70" y="731" on="0"/>
        <pt x="74" y="716" on="1"/>
        <pt x="251" y="84" on="1"/>
        <pt x="353" y="463" on="1"/>
        <pt x="358" y="483" on="0"/>
        <pt x="402" y="483" on="0"/>
        <pt x="408" y="463" on="1"/>
        <pt x="513" y="84" on="1"/>
        <pt x="688" y="716" on="1"/>
        <pt x="692" y="731" on="0"/>
        <pt x="711" y="731" on="1"/>
        <pt x="721" y="731" on="0"/>
        <pt x="738" y="719" on="0"/>
        <pt x="738" y="710" on="1"/>
        <pt x="738" y="706" on="0"/>
        <pt x="737" y="703" on="1"/>
        <pt x="541" y="12" on="1"/>
        <pt x="535" y="-6" on="0"/>
        <pt x="512" y="-6" on="1"/>
        <pt x="488" y="-6" on="0"/>
        <pt x="485" y="12" on="1"/>
        <pt x="382" y="386" on="1"/>
        <pt x="279" y="12" on="1"/>
        <pt x="274" y="-6" on="0"/>
        <pt x="228" y="-6" on="0"/>
        <pt x="223" y="12" on="1"/>
        <pt x="25" y="703" on="1"/>
        <pt x="24" y="706" on="0"/>
      </contour>
      <contour>
        <pt x="249" y="876" on="1"/>
        <pt x="249" y="888" on="0"/>
        <pt x="260" y="893" on="1"/>
        <pt x="364" y="949" on="1"/>
        <pt x="372" y="954" on="0"/>
        <pt x="390" y="954" on="0"/>
        <pt x="398" y="949" on="1"/>
        <pt x="502" y="894" on="1"/>
        <pt x="513" y="888" on="0"/>
        <pt x="513" y="874" on="1"/>
        <pt x="513" y="866" on="0"/>
        <pt x="502" y="854" on="0"/>
        <pt x="494" y="854" on="1"/>
        <pt x="485" y="857" on="1"/>
        <pt x="381" y="912" on="1"/>
        <pt x="277" y="856" on="1"/>
        <pt x="276" y="856" on="0"/>
        <pt x="270" y="853" on="0"/>
        <pt x="269" y="853" on="1"/>
        <pt x="261" y="853" on="0"/>
        <pt x="249" y="866" on="0"/>
      </contour>
    </TTGlyph>
    <TTGlyph name="Wdieresis" xMin="24" yMin="-6" xMax="738" yMax="919">
      <contour>
        <pt x="24" y="710" on="1"/>
        <pt x="24" y="719" on="0"/>
        <pt x="41" y="731" on="0"/>
        <pt x="51" y="731" on="1"/>
        <pt x="70" y="731" on="0"/>
        <pt x="74" y="716" on="1"/>
        <pt x="251" y="84" on="1"/>
        <pt x="353" y="463" on="1"/>
        <pt x="358" y="483" on="0"/>
        <pt x="402" y="483" on="0"/>
        <pt x="408" y="463" on="1"/>
        <pt x="513" y="84" on="1"/>
        <pt x="688" y="716" on="1"/>
        <pt x="692" y="731" on="0"/>
        <pt x="711" y="731" on="1"/>
        <pt x="721" y="731" on="0"/>
        <pt x="738" y="719" on="0"/>
        <pt x="738" y="710" on="1"/>
        <pt x="738" y="706" on="0"/>
        <pt x="737" y="703" on="1"/>
        <pt x="541" y="12" on="1"/>
        <pt x="535" y="-6" on="0"/>
        <pt x="512" y="-6" on="1"/>
        <pt x="488" y="-6" on="0"/>
        <pt x="485" y="12" on="1"/>
        <pt x="382" y="386" on="1"/>
        <pt x="279" y="12" on="1"/>
        <pt x="274" y="-6" on="0"/>
        <pt x="228" y="-6" on="0"/>
        <pt x="223" y="12" on="1"/>
        <pt x="25" y="703" on="1"/>
        <pt x="24" y="706" on="0"/>
      </contour>
      <contour>
        <pt x="290" y="873" on="0"/>
        <pt x="290" y="901" on="0"/>
        <pt x="309" y="919" on="0"/>
        <pt x="337" y="919" on="0"/>
        <pt x="355" y="901" on="0"/>
        <pt x="355" y="873" on="0"/>
        <pt x="337" y="854" on="0"/>
        <pt x="309" y="854" on="0"/>
      </contour>
      <contour>
        <pt x="407" y="873" on="0"/>
        <pt x="407" y="901" on="0"/>
        <pt x="425" y="919" on="0"/>
        <pt x="440" y="919" on="1"/>
        <pt x="454" y="919" on="0"/>
        <pt x="472" y="901" on="0"/>
        <pt x="472" y="873" on="0"/>
        <pt x="454" y="854" on="0"/>
        <pt x="440" y="854" on="1"/>
        <pt x="425" y="854" on="0"/>
      </contour>
    </TTGlyph>
    <TTGlyph name="Wgrave" xMin="24" yMin="-6" xMax="738" yMax="954">
      <contour>
        <pt x="24" y="710" on="1"/>
        <pt x="24" y="719" on="0"/>
        <pt x="41" y="731" on="0"/>
        <pt x="51" y="731" on="1"/>
        <pt x="70" y="731" on="0"/>
        <pt x="74" y="716" on="1"/>
        <pt x="251" y="84" on="1"/>
        <pt x="353" y="463" on="1"/>
        <pt x="358" y="483" on="0"/>
        <pt x="402" y="483" on="0"/>
        <pt x="408" y="463" on="1"/>
        <pt x="513" y="84" on="1"/>
        <pt x="688" y="716" on="1"/>
        <pt x="692" y="731" on="0"/>
        <pt x="711" y="731" on="1"/>
        <pt x="721" y="731" on="0"/>
        <pt x="738" y="719" on="0"/>
        <pt x="738" y="710" on="1"/>
        <pt x="738" y="706" on="0"/>
        <pt x="737" y="703" on="1"/>
        <pt x="541" y="12" on="1"/>
        <pt x="535" y="-6" on="0"/>
        <pt x="512" y="-6" on="1"/>
        <pt x="488" y="-6" on="0"/>
        <pt x="485" y="12" on="1"/>
        <pt x="382" y="386" on="1"/>
        <pt x="279" y="12" on="1"/>
        <pt x="274" y="-6" on="0"/>
        <pt x="228" y="-6" on="0"/>
        <pt x="223" y="12" on="1"/>
        <pt x="25" y="703" on="1"/>
        <pt x="24" y="706" on="0"/>
      </contour>
      <contour>
        <pt x="307" y="931" on="1"/>
        <pt x="307" y="940" on="0"/>
        <pt x="318" y="954" on="0"/>
        <pt x="327" y="954" on="1"/>
        <pt x="330" y="954" on="0"/>
        <pt x="334" y="952" on="1"/>
        <pt x="441" y="891" on="1"/>
        <pt x="450" y="887" on="0"/>
        <pt x="450" y="876" on="1"/>
        <pt x="450" y="867" on="0"/>
        <pt x="437" y="853" on="0"/>
        <pt x="428" y="853" on="1"/>
        <pt x="424" y="853" on="0"/>
        <pt x="418" y="856" on="1"/>
        <pt x="318" y="911" on="1"/>
        <pt x="307" y="918" on="0"/>
      </contour>
    </TTGlyph>
    <TTGlyph name="X" xMin="26" yMin="-1" xMax="439" yMax="732">
      <contour>
        <pt x="26" y="24" on="1"/>
        <pt x="26" y="27" on="0"/>
        <pt x="30" y="37" on="1"/>
        <pt x="202" y="366" on="1"/>
        <pt x="33" y="692" on="1"/>
        <pt x="27" y="702" on="0"/>
        <pt x="27" y="711" on="1"/>
        <pt x="27" y="732" on="0"/>
        <pt x="55" y="732" on="1"/>
        <pt x="70" y="732" on="0"/>
        <pt x="87" y="697" on="1"/>
        <pt x="232" y="414" on="1"/>
        <pt x="378" y="697" on="1"/>
        <pt x="378" y="698" on="0"/>
        <pt x="382" y="706" on="1"/>
        <pt x="388" y="716" on="1"/>
        <pt x="390" y="718" on="0"/>
        <pt x="398" y="728" on="0"/>
        <pt x="406" y="732" on="0"/>
        <pt x="410" y="732" on="1"/>
        <pt x="438" y="732" on="0"/>
        <pt x="438" y="711" on="1"/>
        <pt x="438" y="702" on="0"/>
        <pt x="432" y="692" on="1"/>
        <pt x="262" y="366" on="1"/>
        <pt x="435" y="37" on="1"/>
        <pt x="439" y="27" on="0"/>
        <pt x="439" y="24" on="1"/>
        <pt x="439" y="14" on="0"/>
        <pt x="422" y="-1" on="0"/>
        <pt x="411" y="-1" on="1"/>
        <pt x="408" y="-1" on="0"/>
        <pt x="405" y="0" on="1"/>
        <pt x="402" y="2" on="0"/>
        <pt x="400" y="4" on="1"/>
        <pt x="395" y="8" on="1"/>
        <pt x="393" y="10" on="0"/>
        <pt x="388" y="18" on="0"/>
        <pt x="387" y="22" on="0"/>
        <pt x="381" y="32" on="0"/>
        <pt x="381" y="33" on="1"/>
        <pt x="232" y="319" on="1"/>
        <pt x="84" y="33" on="1"/>
        <pt x="84" y="32" on="0"/>
        <pt x="78" y="22" on="0"/>
        <pt x="77" y="18" on="0"/>
        <pt x="72" y="10" on="0"/>
        <pt x="70" y="8" on="1"/>
        <pt x="66" y="4" on="1"/>
        <pt x="64" y="2" on="0"/>
        <pt x="57" y="-1" on="0"/>
        <pt x="54" y="-1" on="1"/>
        <pt x="44" y="-1" on="0"/>
        <pt x="26" y="14" on="0"/>
      </contour>
    </TTGlyph>
    <TTGlyph name="Y" xMin="21" yMin="0" xMax="498" yMax="731">
      <contour>
        <pt x="21" y="709" on="1"/>
        <pt x="21" y="719" on="0"/>
        <pt x="35" y="731" on="0"/>
        <pt x="45" y="731" on="1"/>
        <pt x="58" y="731" on="0"/>
        <pt x="68" y="713" on="1"/>
        <pt x="260" y="328" on="1"/>
        <pt x="453" y="713" on="1"/>
        <pt x="462" y="731" on="0"/>
        <pt x="476" y="731" on="1"/>
        <pt x="485" y="731" on="0"/>
        <pt x="498" y="719" on="0"/>
        <pt x="498" y="709" on="1"/>
        <pt x="498" y="698" on="0"/>
        <pt x="494" y="690" on="1"/>
        <pt x="286" y="283" on="1"/>
        <pt x="285" y="281" on="0"/>
        <pt x="285" y="276" on="1"/>
        <pt x="285" y="22" on="1"/>
        <pt x="285" y="0" on="0"/>
        <pt x="235" y="0" on="0"/>
        <pt x="235" y="22" on="1"/>
        <pt x="235" y="276" on="1"/>
        <pt x="235" y="279" on="0"/>
        <pt x="233" y="283" on="1"/>
        <pt x="26" y="690" on="1"/>
        <pt x="21" y="703" on="0"/>
      </contour>
    </TTGlyph>
    <TTGlyph name="Yacute" xMin="21" yMin="0" xMax="498" yMax="954">
      <contour>
        <pt x="21" y="709" on="1"/>
        <pt x="21" y="719" on="0"/>
        <pt x="35" y="731" on="0"/>
        <pt x="45" y="731" on="1"/>
        <pt x="58" y="731" on="0"/>
        <pt x="68" y="713" on="1"/>
        <pt x="260" y="328" on="1"/>
        <pt x="453" y="713" on="1"/>
        <pt x="462" y="731" on="0"/>
        <pt x="476" y="731" on="1"/>
        <pt x="485" y="731" on="0"/>
        <pt x="498" y="719" on="0"/>
        <pt x="498" y="709" on="1"/>
        <pt x="498" y="698" on="0"/>
        <pt x="494" y="690" on="1"/>
        <pt x="286" y="283" on="1"/>
        <pt x="285" y="281" on="0"/>
        <pt x="285" y="276" on="1"/>
        <pt x="285" y="22" on="1"/>
        <pt x="285" y="0" on="0"/>
        <pt x="235" y="0" on="0"/>
        <pt x="235" y="22" on="1"/>
        <pt x="235" y="276" on="1"/>
        <pt x="235" y="279" on="0"/>
        <pt x="233" y="283" on="1"/>
        <pt x="26" y="690" on="1"/>
        <pt x="21" y="703" on="0"/>
      </contour>
      <contour>
        <pt x="190" y="876" on="1"/>
        <pt x="190" y="887" on="0"/>
        <pt x="199" y="891" on="1"/>
        <pt x="306" y="952" on="1"/>
        <pt x="310" y="954" on="0"/>
        <pt x="314" y="954" on="1"/>
        <pt x="323" y="954" on="0"/>
        <pt x="333" y="940" on="0"/>
        <pt x="333" y="931" on="1"/>
        <pt x="333" y="918" on="0"/>
        <pt x="322" y="911" on="1"/>
        <pt x="222" y="856" on="1"/>
        <pt x="218" y="853" on="0"/>
        <pt x="212" y="853" on="1"/>
        <pt x="203" y="853" on="0"/>
        <pt x="190" y="867" on="0"/>
      </contour>
    </TTGlyph>
    <TTGlyph name="Ycircumflex" xMin="21" yMin="0" xMax="498" yMax="954">
      <contour>
        <pt x="21" y="709" on="1"/>
        <pt x="21" y="719" on="0"/>
        <pt x="35" y="731" on="0"/>
        <pt x="45" y="731" on="1"/>
        <pt x="58" y="731" on="0"/>
        <pt x="68" y="713" on="1"/>
        <pt x="260" y="328" on="1"/>
        <pt x="453" y="713" on="1"/>
        <pt x="462" y="731" on="0"/>
        <pt x="476" y="731" on="1"/>
        <pt x="485" y="731" on="0"/>
        <pt x="498" y="719" on="0"/>
        <pt x="498" y="709" on="1"/>
        <pt x="498" y="698" on="0"/>
        <pt x="494" y="690" on="1"/>
        <pt x="286" y="283" on="1"/>
        <pt x="285" y="281" on="0"/>
        <pt x="285" y="276" on="1"/>
        <pt x="285" y="22" on="1"/>
        <pt x="285" y="0" on="0"/>
        <pt x="235" y="0" on="0"/>
        <pt x="235" y="22" on="1"/>
        <pt x="235" y="276" on="1"/>
        <pt x="235" y="279" on="0"/>
        <pt x="233" y="283" on="1"/>
        <pt x="26" y="690" on="1"/>
        <pt x="21" y="703" on="0"/>
      </contour>
      <contour>
        <pt x="128" y="876" on="1"/>
        <pt x="128" y="888" on="0"/>
        <pt x="139" y="893" on="1"/>
        <pt x="243" y="949" on="1"/>
        <pt x="251" y="954" on="0"/>
        <pt x="269" y="954" on="0"/>
        <pt x="277" y="949" on="1"/>
        <pt x="381" y="894" on="1"/>
        <pt x="392" y="888" on="0"/>
        <pt x="392" y="874" on="1"/>
        <pt x="392" y="866" on="0"/>
        <pt x="381" y="854" on="0"/>
        <pt x="373" y="854" on="1"/>
        <pt x="364" y="857" on="1"/>
        <pt x="260" y="912" on="1"/>
        <pt x="156" y="856" on="1"/>
        <pt x="155" y="856" on="0"/>
        <pt x="149" y="853" on="0"/>
        <pt x="148" y="853" on="1"/>
        <pt x="140" y="853" on="0"/>
        <pt x="128" y="866" on="0"/>
      </contour>
    </TTGlyph>
    <TTGlyph name="Ydieresis" xMin="21" yMin="0" xMax="498" yMax="919">
      <contour>
        <pt x="21" y="709" on="1"/>
        <pt x="21" y="719" on="0"/>
        <pt x="35" y="731" on="0"/>
        <pt x="45" y="731" on="1"/>
        <pt x="58" y="731" on="0"/>
        <pt x="68" y="713" on="1"/>
        <pt x="260" y="328" on="1"/>
        <pt x="453" y="713" on="1"/>
        <pt x="462" y="731" on="0"/>
        <pt x="476" y="731" on="1"/>
        <pt x="485" y="731" on="0"/>
        <pt x="498" y="719" on="0"/>
        <pt x="498" y="709" on="1"/>
        <pt x="498" y="698" on="0"/>
        <pt x="494" y="690" on="1"/>
        <pt x="286" y="283" on="1"/>
        <pt x="285" y="281" on="0"/>
        <pt x="285" y="276" on="1"/>
        <pt x="285" y="22" on="1"/>
        <pt x="285" y="0" on="0"/>
        <pt x="235" y="0" on="0"/>
        <pt x="235" y="22" on="1"/>
        <pt x="235" y="276" on="1"/>
        <pt x="235" y="279" on="0"/>
        <pt x="233" y="283" on="1"/>
        <pt x="26" y="690" on="1"/>
        <pt x="21" y="703" on="0"/>
      </contour>
      <contour>
        <pt x="169" y="873" on="0"/>
        <pt x="169" y="901" on="0"/>
        <pt x="188" y="919" on="0"/>
        <pt x="216" y="919" on="0"/>
        <pt x="234" y="901" on="0"/>
        <pt x="234" y="873" on="0"/>
        <pt x="216" y="854" on="0"/>
        <pt x="188" y="854" on="0"/>
      </contour>
      <contour>
        <pt x="286" y="873" on="0"/>
        <pt x="286" y="901" on="0"/>
        <pt x="304" y="919" on="0"/>
        <pt x="319" y="919" on="1"/>
        <pt x="333" y="919" on="0"/>
        <pt x="351" y="901" on="0"/>
        <pt x="351" y="873" on="0"/>
        <pt x="333" y="854" on="0"/>
        <pt x="319" y="854" on="1"/>
        <pt x="304" y="854" on="0"/>
      </contour>
    </TTGlyph>
</ttFont>
